<?xml version="1.0" encoding="UTF-8" standalone="no"?>
<!DOCTYPE svg PUBLIC "-//W3C//DTD SVG 1.1//EN"
 "http://www.w3.org/Graphics/SVG/1.1/DTD/svg11.dtd">
<!-- Generated by graphviz version 2.38.0 (20140413.2041)
 -->
<!-- Title: src/Main.cpp Pages: 1 -->
<!--zoomable 196 -->
<svg id="main" version="1.1" xmlns="http://www.w3.org/2000/svg" xmlns:xlink="http://www.w3.org/1999/xlink" xml:space="preserve" onload="init(evt)">
<style type="text/css"><![CDATA[
.edge:hover path { stroke: red; }
.edge:hover polygon { stroke: red; fill: red; }
]]></style>
<script type="text/javascript"><![CDATA[
var edges = document.getElementsByTagName('g');
if (edges && edges.length) {
  for (var i=0;i<edges.length;i++) {
    if (edges[i].id.substr(0,4)=='edge') {
      edges[i].setAttribute('class','edge');
    }
  }
}
]]></script>
        <defs>
                <circle id="rim" cx="0" cy="0" r="7"/>
                <circle id="rim2" cx="0" cy="0" r="3.5"/>
                <g id="zoomPlus">
                        <use xlink:href="#rim" fill="#404040">
                                <set attributeName="fill" to="#808080" begin="zoomplus.mouseover" end="zoomplus.mouseout"/>
                        </use>
                        <path d="M-4,0h8M0,-4v8" fill="none" stroke="white" stroke-width="1.5" pointer-events="none"/>
                </g>
                <g id="zoomMin">
                        <use xlink:href="#rim" fill="#404040">
                                <set attributeName="fill" to="#808080" begin="zoomminus.mouseover" end="zoomminus.mouseout"/>
                        </use>
                        <path d="M-4,0h8" fill="none" stroke="white" stroke-width="1.5" pointer-events="none"/>
                </g>
                <g id="dirArrow">
                        <path fill="none" stroke="white" stroke-width="1.5" d="M0,-3.0v7 M-2.5,-0.5L0,-3.0L2.5,-0.5"/>
                </g>
               <g id="resetDef">
                       <use xlink:href="#rim2" fill="#404040">
                               <set attributeName="fill" to="#808080" begin="reset.mouseover" end="reset.mouseout"/>
                       </use>
               </g>
        </defs>

<script type="text/javascript">
var viewWidth = 692;
var viewHeight = 196;
var sectionId = 'dynsection-0';
</script>
<script xlink:href="../../svgpan.js"/>
<svg id="graph" class="graph">
<g id="viewport">
<title>src/Main.cpp</title>
<polygon fill="white" stroke="none" points="-4,4 -4,-192 687.5,-192 687.5,4 -4,4"/>
<!-- Node0 -->
<g id="node1" class="node"><title>Node0</title>
<g id="a_node1"><a xlink:title=" ">
<polygon fill="#bfbfbf" stroke="black" points="257.5,-168.5 257.5,-187.5 330.5,-187.5 330.5,-168.5 257.5,-168.5"/>
<text text-anchor="middle" x="294" y="-175.5" font-family="Helvetica,sans-Serif" font-size="10.00">src/Main.cpp</text>
</a>
</g>
</g>
<!-- Node1 -->
<g id="node2" class="node"><title>Node1</title>
<g id="a_node2"><a xlink:title=" ">
<polygon fill="white" stroke="#bfbfbf" points="318,-56.5 318,-75.5 372,-75.5 372,-56.5 318,-56.5"/>
<text text-anchor="middle" x="345" y="-63.5" font-family="Helvetica,sans-Serif" font-size="10.00">iostream</text>
</a>
</g>
</g>
<!-- Node0&#45;&gt;Node1 -->
<g id="edge1" class="edge"><title>Node0&#45;&gt;Node1</title>
<path fill="none" stroke="midnightblue" d="M305.645,-168.423C315.76,-160.268 329.873,-147.038 337,-132 343.847,-117.552 345.586,-99.363 345.762,-85.9031"/>
<polygon fill="midnightblue" stroke="midnightblue" points="349.262,-85.8444 345.621,-75.8949 342.263,-85.9435 349.262,-85.8444"/>
</g>
<!-- Node2 -->
<g id="node3" class="node"><title>Node2</title>
<g id="a_node3"><a xlink:title=" ">
<polygon fill="white" stroke="#bfbfbf" points="0,-0.5 0,-19.5 44,-19.5 44,-0.5 0,-0.5"/>
<text text-anchor="middle" x="22" y="-7.5" font-family="Helvetica,sans-Serif" font-size="10.00">vector</text>
</a>
</g>
</g>
<!-- Node0&#45;&gt;Node2 -->
<g id="edge2" class="edge"><title>Node0&#45;&gt;Node2</title>
<path fill="none" stroke="midnightblue" d="M257.05,-174.452C198.637,-169.693 88.6373,-157.538 60,-132 30.5111,-105.703 23.6921,-56.8197 22.2509,-29.9351"/>
<polygon fill="midnightblue" stroke="midnightblue" points="25.7375,-29.4682 21.9084,-19.5895 18.7413,-29.6999 25.7375,-29.4682"/>
</g>
<!-- Node3 -->
<g id="node4" class="node"><title>Node3</title>
<g id="a_node4"><a xlink:title=" ">
<polygon fill="white" stroke="#bfbfbf" points="324.5,-0.5 324.5,-19.5 365.5,-19.5 365.5,-0.5 324.5,-0.5"/>
<text text-anchor="middle" x="345" y="-7.5" font-family="Helvetica,sans-Serif" font-size="10.00">string</text>
</a>
</g>
</g>
<!-- Node0&#45;&gt;Node3 -->
<g id="edge3" class="edge"><title>Node0&#45;&gt;Node3</title>
<path fill="none" stroke="midnightblue" d="M281.503,-168.302C271.126,-160.251 257.113,-147.245 251,-132 247.692,-123.75 247.959,-120.353 251,-112 264.66,-74.477 300.389,-42.9946 323.653,-25.5971"/>
<polygon fill="midnightblue" stroke="midnightblue" points="325.84,-28.3351 331.887,-19.6357 321.735,-22.6652 325.84,-28.3351"/>
</g>
<!-- Node4 -->
<g id="node5" class="node"><title>Node4</title>
<g id="a_node5"><a xlink:title=" ">
<polygon fill="white" stroke="#bfbfbf" points="168.5,-112.5 168.5,-131.5 203.5,-131.5 203.5,-112.5 168.5,-112.5"/>
<text text-anchor="middle" x="186" y="-119.5" font-family="Helvetica,sans-Serif" font-size="10.00">map</text>
</a>
</g>
</g>
<!-- Node0&#45;&gt;Node4 -->
<g id="edge4" class="edge"><title>Node0&#45;&gt;Node4</title>
<path fill="none" stroke="midnightblue" d="M276.648,-168.324C259.328,-159.664 232.485,-146.242 212.498,-136.249"/>
<polygon fill="midnightblue" stroke="midnightblue" points="213.819,-132.996 203.309,-131.655 210.688,-139.257 213.819,-132.996"/>
</g>
<!-- Node5 -->
<g id="node6" class="node"><title>Node5</title>
<g id="a_node6"><a xlink:href="../../db/dad/_person_8hpp.html" target="_top" xlink:title=" ">
<polygon fill="white" stroke="black" points="544,-56.5 544,-75.5 610,-75.5 610,-56.5 544,-56.5"/>
<text text-anchor="middle" x="577" y="-63.5" font-family="Helvetica,sans-Serif" font-size="10.00">Person.hpp</text>
</a>
</g>
</g>
<!-- Node0&#45;&gt;Node5 -->
<g id="edge5" class="edge"><title>Node0&#45;&gt;Node5</title>
<path fill="none" stroke="midnightblue" d="M330.658,-175.296C394.597,-171.596 522.87,-160.719 556,-132 569.282,-120.487 574.223,-100.516 576.03,-85.741"/>
<polygon fill="midnightblue" stroke="midnightblue" points="579.526,-85.9422 576.887,-75.6812 572.551,-85.3481 579.526,-85.9422"/>
</g>
<!-- Node6 -->
<g id="node7" class="node"><title>Node6</title>
<g id="a_node7"><a xlink:href="../../d3/dba/_employee_8hpp.html" target="_top" xlink:title=" ">
<polygon fill="white" stroke="black" points="604.5,-112.5 604.5,-131.5 683.5,-131.5 683.5,-112.5 604.5,-112.5"/>
<text text-anchor="middle" x="644" y="-119.5" font-family="Helvetica,sans-Serif" font-size="10.00">Employee.hpp</text>
</a>
</g>
</g>
<!-- Node0&#45;&gt;Node6 -->
<g id="edge7" class="edge"><title>Node0&#45;&gt;Node6</title>
<path fill="none" stroke="midnightblue" d="M330.943,-171.557C386.987,-163.26 496.833,-146.845 590,-132 591.467,-131.766 592.955,-131.528 594.458,-131.285"/>
<polygon fill="midnightblue" stroke="midnightblue" points="595.184,-134.713 604.492,-129.652 594.059,-127.804 595.184,-134.713"/>
</g>
<!-- Node7 -->
<g id="node8" class="node"><title>Node7</title>
<g id="a_node8"><a xlink:href="../../d9/dbb/_client_8hpp.html" target="_top" xlink:title=" ">
<polygon fill="white" stroke="black" points="486.5,-112.5 486.5,-131.5 547.5,-131.5 547.5,-112.5 486.5,-112.5"/>
<text text-anchor="middle" x="517" y="-119.5" font-family="Helvetica,sans-Serif" font-size="10.00">Client.hpp</text>
</a>
</g>
</g>
<!-- Node0&#45;&gt;Node7 -->
<g id="edge10" class="edge"><title>Node0&#45;&gt;Node7</title>
<path fill="none" stroke="midnightblue" d="M329.335,-168.444C369.386,-158.745 434.55,-142.965 476.589,-132.786"/>
<polygon fill="midnightblue" stroke="midnightblue" points="477.593,-136.144 486.489,-130.388 475.946,-129.34 477.593,-136.144"/>
</g>
<!-- Node8 -->
<g id="node9" class="node"><title>Node8</title>
<g id="a_node9"><a xlink:href="../../d4/d2b/_vehicles_8hpp.html" target="_top" xlink:title=" ">
<polygon fill="white" stroke="black" points="77.5,-112.5 77.5,-131.5 150.5,-131.5 150.5,-112.5 77.5,-112.5"/>
<text text-anchor="middle" x="114" y="-119.5" font-family="Helvetica,sans-Serif" font-size="10.00">Vehicles.hpp</text>
</a>
</g>
</g>
<!-- Node0&#45;&gt;Node8 -->
<g id="edge13" class="edge"><title>Node0&#45;&gt;Node8</title>
<path fill="none" stroke="midnightblue" d="M265.478,-168.444C234.934,-159.28 186.292,-144.688 152.397,-134.519"/>
<polygon fill="midnightblue" stroke="midnightblue" points="152.972,-131.038 142.388,-131.516 150.961,-137.742 152.972,-131.038"/>
</g>
<!-- Node9 -->
<g id="node10" class="node"><title>Node9</title>
<g id="a_node10"><a xlink:href="../../dc/de3/_alocation_8hpp.html" target="_top" xlink:title=" ">
<polygon fill="white" stroke="black" points="66,-56.5 66,-75.5 142,-75.5 142,-56.5 66,-56.5"/>
<text text-anchor="middle" x="104" y="-63.5" font-family="Helvetica,sans-Serif" font-size="10.00">Alocation.hpp</text>
</a>
</g>
</g>
<!-- Node0&#45;&gt;Node9 -->
<g id="edge19" class="edge"><title>Node0&#45;&gt;Node9</title>
<path fill="none" stroke="midnightblue" d="M257.376,-175.168C199.627,-171.427 91.5369,-160.686 68,-132 55.4345,-116.686 70.8976,-96.3557 85.2846,-82.5376"/>
<polygon fill="midnightblue" stroke="midnightblue" points="87.8942,-84.8974 92.9818,-75.604 83.2092,-79.6964 87.8942,-84.8974"/>
</g>
<!-- Node11 -->
<g id="node12" class="node"><title>Node11</title>
<g id="a_node12"><a xlink:href="../../d6/d02/_agency_8hpp.html" target="_top" xlink:title=" ">
<polygon fill="white" stroke="black" points="260,-112.5 260,-131.5 328,-131.5 328,-112.5 260,-112.5"/>
<text text-anchor="middle" x="294" y="-119.5" font-family="Helvetica,sans-Serif" font-size="10.00">Agency.hpp</text>
</a>
</g>
</g>
<!-- Node0&#45;&gt;Node11 -->
<g id="edge20" class="edge"><title>Node0&#45;&gt;Node11</title>
<path fill="none" stroke="midnightblue" d="M294,-168.083C294,-161.006 294,-150.861 294,-141.986"/>
<polygon fill="midnightblue" stroke="midnightblue" points="297.5,-141.751 294,-131.751 290.5,-141.751 297.5,-141.751"/>
</g>
<!-- Node12 -->
<g id="node13" class="node"><title>Node12</title>
<g id="a_node13"><a xlink:href="../../de/d24/_exceptions_8hpp.html" target="_top" xlink:title=" ">
<polygon fill="white" stroke="black" points="384,-112.5 384,-131.5 468,-131.5 468,-112.5 384,-112.5"/>
<text text-anchor="middle" x="426" y="-119.5" font-family="Helvetica,sans-Serif" font-size="10.00">Exceptions.hpp</text>
</a>
</g>
</g>
<!-- Node0&#45;&gt;Node12 -->
<g id="edge23" class="edge"><title>Node0&#45;&gt;Node12</title>
<path fill="none" stroke="midnightblue" d="M314.916,-168.444C336.736,-159.517 371.15,-145.439 395.892,-135.317"/>
<polygon fill="midnightblue" stroke="midnightblue" points="397.252,-138.542 405.182,-131.516 394.601,-132.063 397.252,-138.542"/>
</g>
<!-- Node5&#45;&gt;Node3 -->
<g id="edge6" class="edge"><title>Node5&#45;&gt;Node3</title>
<path fill="none" stroke="midnightblue" d="M543.76,-57.2631C498.754,-46.7877 419.068,-28.2401 375.515,-18.1027"/>
<polygon fill="midnightblue" stroke="midnightblue" points="376.307,-14.6934 365.773,-15.8352 374.72,-21.5111 376.307,-14.6934"/>
</g>
<!-- Node6&#45;&gt;Node3 -->
<g id="edge9" class="edge"><title>Node6&#45;&gt;Node3</title>
<path fill="none" stroke="midnightblue" d="M643.327,-112.262C641.735,-98.0768 636.441,-70.1965 619,-56 582.156,-26.0097 439.627,-15.5248 375.99,-12.2876"/>
<polygon fill="midnightblue" stroke="midnightblue" points="375.93,-8.78073 365.773,-11.7961 375.594,-15.7726 375.93,-8.78073"/>
</g>
<!-- Node6&#45;&gt;Node5 -->
<g id="edge8" class="edge"><title>Node6&#45;&gt;Node5</title>
<path fill="none" stroke="midnightblue" d="M633.235,-112.324C623.234,-104.263 608.113,-92.0765 596.07,-82.3695"/>
<polygon fill="midnightblue" stroke="midnightblue" points="597.943,-79.3841 587.961,-75.8339 593.55,-84.8343 597.943,-79.3841"/>
</g>
<!-- Node7&#45;&gt;Node3 -->
<g id="edge12" class="edge"><title>Node7&#45;&gt;Node3</title>
<path fill="none" stroke="midnightblue" d="M516.654,-112.087C515.626,-98.1585 511.605,-71.2522 496,-56 463.52,-24.2543 409.656,-14.7582 375.807,-12.0045"/>
<polygon fill="midnightblue" stroke="midnightblue" points="375.782,-8.49534 365.573,-11.3277 375.32,-15.4801 375.782,-8.49534"/>
</g>
<!-- Node7&#45;&gt;Node5 -->
<g id="edge11" class="edge"><title>Node7&#45;&gt;Node5</title>
<path fill="none" stroke="midnightblue" d="M526.64,-112.324C535.51,-104.341 548.875,-92.3128 559.608,-82.6529"/>
<polygon fill="midnightblue" stroke="midnightblue" points="562.093,-85.1251 567.185,-75.8339 557.41,-79.922 562.093,-85.1251"/>
</g>
<!-- Node8&#45;&gt;Node3 -->
<g id="edge18" class="edge"><title>Node8&#45;&gt;Node3</title>
<path fill="none" stroke="midnightblue" d="M125.986,-112.289C144.842,-98.8721 182.907,-72.9328 218,-56 249.804,-40.6542 288.261,-27.7588 314.466,-19.7602"/>
<polygon fill="midnightblue" stroke="midnightblue" points="315.635,-23.0636 324.209,-16.8395 313.625,-16.3583 315.635,-23.0636"/>
</g>
<!-- Node8&#45;&gt;Node9 -->
<g id="edge14" class="edge"><title>Node8&#45;&gt;Node9</title>
<path fill="none" stroke="midnightblue" d="M112.349,-112.083C111.024,-104.927 109.118,-94.6353 107.461,-85.6911"/>
<polygon fill="midnightblue" stroke="midnightblue" points="110.883,-84.9466 105.621,-75.7511 104,-86.2212 110.883,-84.9466"/>
</g>
<!-- Node9&#45;&gt;Node2 -->
<g id="edge15" class="edge"><title>Node9&#45;&gt;Node2</title>
<path fill="none" stroke="midnightblue" d="M90.8253,-56.324C78.1532,-47.979 58.7666,-35.2122 43.7944,-25.3524"/>
<polygon fill="midnightblue" stroke="midnightblue" points="45.4187,-22.2313 35.142,-19.6545 41.5688,-28.0776 45.4187,-22.2313"/>
</g>
<!-- Node9&#45;&gt;Node3 -->
<g id="edge16" class="edge"><title>Node9&#45;&gt;Node3</title>
<path fill="none" stroke="midnightblue" d="M142.187,-56.4435C189.985,-45.7335 270.883,-27.6072 314.669,-17.7961"/>
<polygon fill="midnightblue" stroke="midnightblue" points="315.456,-21.2068 324.448,-15.6049 313.925,-14.3761 315.456,-21.2068"/>
</g>
<!-- Node10 -->
<g id="node11" class="node"><title>Node10</title>
<g id="a_node11"><a xlink:title=" ">
<polygon fill="white" stroke="#bfbfbf" points="83.5,-0.5 83.5,-19.5 124.5,-19.5 124.5,-0.5 83.5,-0.5"/>
<text text-anchor="middle" x="104" y="-7.5" font-family="Helvetica,sans-Serif" font-size="10.00">ctime</text>
</a>
</g>
</g>
<!-- Node9&#45;&gt;Node10 -->
<g id="edge17" class="edge"><title>Node9&#45;&gt;Node10</title>
<path fill="none" stroke="midnightblue" d="M104,-56.083C104,-49.0059 104,-38.8611 104,-29.9865"/>
<polygon fill="midnightblue" stroke="midnightblue" points="107.5,-29.751 104,-19.7511 100.5,-29.7511 107.5,-29.751"/>
</g>
<!-- Node11&#45;&gt;Node1 -->
<g id="edge21" class="edge"><title>Node11&#45;&gt;Node1</title>
<path fill="none" stroke="midnightblue" d="M302.422,-112.083C309.848,-104.22 320.852,-92.5688 329.812,-83.0813"/>
<polygon fill="midnightblue" stroke="midnightblue" points="332.413,-85.4244 336.735,-75.7511 327.324,-80.618 332.413,-85.4244"/>
</g>
<!-- Node11&#45;&gt;Node3 -->
<g id="edge22" class="edge"><title>Node11&#45;&gt;Node3</title>
<path fill="none" stroke="midnightblue" d="M294.78,-112.176C296.192,-99.2762 299.918,-74.764 309,-56 314.047,-45.5733 321.892,-35.3733 328.972,-27.3277"/>
<polygon fill="midnightblue" stroke="midnightblue" points="331.709,-29.5239 335.925,-19.804 326.567,-24.7732 331.709,-29.5239"/>
</g>
<!-- Node12&#45;&gt;Node1 -->
<g id="edge24" class="edge"><title>Node12&#45;&gt;Node1</title>
<path fill="none" stroke="midnightblue" d="M412.986,-112.324C400.468,-103.979 381.318,-91.2122 366.529,-81.3524"/>
<polygon fill="midnightblue" stroke="midnightblue" points="368.244,-78.2894 357.982,-75.6545 364.361,-84.1137 368.244,-78.2894"/>
</g>
<!-- Node12&#45;&gt;Node3 -->
<g id="edge26" class="edge"><title>Node12&#45;&gt;Node3</title>
<path fill="none" stroke="midnightblue" d="M420.358,-112.454C412.009,-99.8995 395.757,-75.8139 381,-56 373.903,-46.4715 365.644,-36.1001 358.828,-27.7181"/>
<polygon fill="midnightblue" stroke="midnightblue" points="361.403,-25.3377 352.357,-19.8221 355.989,-29.775 361.403,-25.3377"/>
</g>
<!-- Node13 -->
<g id="node14" class="node"><title>Node13</title>
<g id="a_node14"><a xlink:title=" ">
<polygon fill="white" stroke="#bfbfbf" points="428.5,-56.5 428.5,-75.5 487.5,-75.5 487.5,-56.5 428.5,-56.5"/>
<text text-anchor="middle" x="458" y="-63.5" font-family="Helvetica,sans-Serif" font-size="10.00">exception</text>
</a>
</g>
</g>
<!-- Node12&#45;&gt;Node13 -->
<g id="edge25" class="edge"><title>Node12&#45;&gt;Node13</title>
<path fill="none" stroke="midnightblue" d="M431.284,-112.083C435.711,-104.613 442.163,-93.7244 447.618,-84.5199"/>
<polygon fill="midnightblue" stroke="midnightblue" points="450.727,-86.1383 452.814,-75.7511 444.705,-82.5697 450.727,-86.1383"/>
</g>
</g>
</svg>
        <g id="navigator" transform="translate(0 0)" fill="#404254">
                <rect fill="#f2f5e9" fill-opacity="0.5" stroke="#606060" stroke-width=".5" x="0" y="0" width="60" height="60"/>
                <use id="zoomplus" xlink:href="#zoomPlus" x="17" y="9" onmousedown="handleZoom(evt,'in')"/>
                <use id="zoomminus" xlink:href="#zoomMin" x="42" y="9" onmousedown="handleZoom(evt,'out')"/>
                <use id="reset" xlink:href="#resetDef" x="30" y="36" onmousedown="handleReset()"/>
                <g id="arrowUp" xlink:href="#dirArrow" transform="translate(30 24)" onmousedown="handlePan(0,-1)">
                  <use xlink:href="#rim" fill="#404040">
                        <set attributeName="fill" to="#808080" begin="arrowUp.mouseover" end="arrowUp.mouseout"/>
                  </use>
                  <path fill="none" stroke="white" stroke-width="1.5" d="M0,-3.0v7 M-2.5,-0.5L0,-3.0L2.5,-0.5"/>
                </g>
                <g id="arrowRight" xlink:href="#dirArrow" transform="rotate(90) translate(36 -43)" onmousedown="handlePan(1,0)">
                  <use xlink:href="#rim" fill="#404040">
                        <set attributeName="fill" to="#808080" begin="arrowRight.mouseover" end="arrowRight.mouseout"/>
                  </use>
                  <path fill="none" stroke="white" stroke-width="1.5" d="M0,-3.0v7 M-2.5,-0.5L0,-3.0L2.5,-0.5"/>
                </g>
                <g id="arrowDown" xlink:href="#dirArrow" transform="rotate(180) translate(-30 -48)" onmousedown="handlePan(0,1)">
                  <use xlink:href="#rim" fill="#404040">
                        <set attributeName="fill" to="#808080" begin="arrowDown.mouseover" end="arrowDown.mouseout"/>
                  </use>
                  <path fill="none" stroke="white" stroke-width="1.5" d="M0,-3.0v7 M-2.5,-0.5L0,-3.0L2.5,-0.5"/>
                </g>
                <g id="arrowLeft" xlink:href="#dirArrow" transform="rotate(270) translate(-36 17)" onmousedown="handlePan(-1,0)">
                  <use xlink:href="#rim" fill="#404040">
                        <set attributeName="fill" to="#808080" begin="arrowLeft.mouseover" end="arrowLeft.mouseout"/>
                  </use>
                  <path fill="none" stroke="white" stroke-width="1.5" d="M0,-3.0v7 M-2.5,-0.5L0,-3.0L2.5,-0.5"/>
                </g>
        </g>
        <svg viewBox="0 0 15 15" width="100%" height="30px" preserveAspectRatio="xMaxYMin meet">
         <g id="arrow_out" transform="scale(0.3 0.3)">
          <a xlink:href="_main_8cpp__incl_org.svg" target="_base">
           <rect id="button" ry="5" rx="5" y="6" x="6" height="38" width="38"
                fill="#f2f5e9" fill-opacity="0.5" stroke="#606060" stroke-width="1.0"/>
           <path id="arrow"
             d="M 11.500037,31.436501 C 11.940474,20.09759 22.043105,11.32322 32.158766,21.979434 L 37.068811,17.246167 C 37.068811,17.246167 37.088388,32 37.088388,32 L 22.160133,31.978069 C 22.160133,31.978069 26.997745,27.140456 26.997745,27.140456 C 18.528582,18.264221 13.291696,25.230495 11.500037,31.436501 z"
             style="fill:#404040;"/>
          </a>
         </g>
        </svg>
</svg>
