<?xml version="1.0" encoding="UTF-8" standalone="no"?>
<!DOCTYPE svg PUBLIC "-//W3C//DTD SVG 1.1//EN"
 "http://www.w3.org/Graphics/SVG/1.1/DTD/svg11.dtd">
<!-- Generated by graphviz version 2.38.0 (20140413.2041)
 -->
<!-- Title: src/Main.cpp Pages: 1 -->
<svg width="894pt" height="308pt"
 viewBox="0.00 0.00 893.50 308.00" xmlns="http://www.w3.org/2000/svg" xmlns:xlink="http://www.w3.org/1999/xlink">
<g id="graph0" class="graph" transform="scale(1 1) rotate(0) translate(4 304)">
<title>src/Main.cpp</title>
<polygon fill="white" stroke="none" points="-4,4 -4,-304 889.5,-304 889.5,4 -4,4"/>
<!-- Node0 -->
<g id="node1" class="node"><title>Node0</title>
<g id="a_node1"><a xlink:title=" ">
<polygon fill="#bfbfbf" stroke="black" points="409.5,-280.5 409.5,-299.5 482.5,-299.5 482.5,-280.5 409.5,-280.5"/>
<text text-anchor="middle" x="446" y="-287.5" font-family="Helvetica,sans-Serif" font-size="10.00">src/Main.cpp</text>
</a>
</g>
</g>
<!-- Node1 -->
<g id="node2" class="node"><title>Node1</title>
<g id="a_node2"><a xlink:title=" ">
<polygon fill="white" stroke="#bfbfbf" points="409,-0.5 409,-19.5 463,-19.5 463,-0.5 409,-0.5"/>
<text text-anchor="middle" x="436" y="-7.5" font-family="Helvetica,sans-Serif" font-size="10.00">iostream</text>
</a>
</g>
</g>
<!-- Node0&#45;&gt;Node1 -->
<g id="edge1" class="edge"><title>Node0&#45;&gt;Node1</title>
<path fill="none" stroke="midnightblue" d="M409.123,-287.781C302.267,-283.259 0,-263.037 0,-179 0,-179 0,-179 0,-121 0,-82.2823 23.6642,-73.8917 58,-56 116.804,-25.3582 315.676,-15.1046 398.898,-12.1036"/>
<polygon fill="midnightblue" stroke="midnightblue" points="399.048,-15.6005 408.921,-11.7573 398.806,-8.60472 399.048,-15.6005"/>
</g>
<!-- Node2 -->
<g id="node3" class="node"><title>Node2</title>
<g id="a_node3"><a xlink:title=" ">
<polygon fill="white" stroke="#bfbfbf" points="702.5,-224.5 702.5,-243.5 751.5,-243.5 751.5,-224.5 702.5,-224.5"/>
<text text-anchor="middle" x="727" y="-231.5" font-family="Helvetica,sans-Serif" font-size="10.00">istream</text>
</a>
</g>
</g>
<!-- Node0&#45;&gt;Node2 -->
<g id="edge2" class="edge"><title>Node0&#45;&gt;Node2</title>
<path fill="none" stroke="midnightblue" d="M482.584,-282.702C530.06,-274.413 615.414,-259.117 688,-244 689.446,-243.699 690.92,-243.386 692.408,-243.065"/>
<polygon fill="midnightblue" stroke="midnightblue" points="693.274,-246.458 702.278,-240.874 691.757,-239.624 693.274,-246.458"/>
</g>
<!-- Node3 -->
<g id="node4" class="node"><title>Node3</title>
<g id="a_node4"><a xlink:title=" ">
<polygon fill="white" stroke="#bfbfbf" points="770,-224.5 770,-243.5 822,-243.5 822,-224.5 770,-224.5"/>
<text text-anchor="middle" x="796" y="-231.5" font-family="Helvetica,sans-Serif" font-size="10.00">ostream</text>
</a>
</g>
</g>
<!-- Node0&#45;&gt;Node3 -->
<g id="edge3" class="edge"><title>Node0&#45;&gt;Node3</title>
<path fill="none" stroke="midnightblue" d="M482.946,-284.951C540.071,-278.42 653.431,-264.385 759.786,-243.843"/>
<polygon fill="midnightblue" stroke="midnightblue" points="760.581,-247.254 769.724,-241.9 759.238,-240.384 760.581,-247.254"/>
</g>
<!-- Node4 -->
<g id="node5" class="node"><title>Node4</title>
<g id="a_node5"><a xlink:title=" ">
<polygon fill="white" stroke="#bfbfbf" points="165,-56.5 165,-75.5 209,-75.5 209,-56.5 165,-56.5"/>
<text text-anchor="middle" x="187" y="-63.5" font-family="Helvetica,sans-Serif" font-size="10.00">vector</text>
</a>
</g>
</g>
<!-- Node0&#45;&gt;Node4 -->
<g id="edge4" class="edge"><title>Node0&#45;&gt;Node4</title>
<path fill="none" stroke="midnightblue" d="M409.405,-286.594C340.562,-281.554 194.768,-268.297 151,-244 88.0301,-209.044 15.2245,-170.668 57,-112 68.5502,-95.7793 120.21,-81.5973 154.826,-73.6802"/>
<polygon fill="midnightblue" stroke="midnightblue" points="155.956,-77.0146 164.959,-71.429 154.438,-70.1812 155.956,-77.0146"/>
</g>
<!-- Node5 -->
<g id="node6" class="node"><title>Node5</title>
<g id="a_node6"><a xlink:title=" ">
<polygon fill="white" stroke="#bfbfbf" points="383.5,-56.5 383.5,-75.5 424.5,-75.5 424.5,-56.5 383.5,-56.5"/>
<text text-anchor="middle" x="404" y="-63.5" font-family="Helvetica,sans-Serif" font-size="10.00">string</text>
</a>
</g>
</g>
<!-- Node0&#45;&gt;Node5 -->
<g id="edge5" class="edge"><title>Node0&#45;&gt;Node5</title>
<path fill="none" stroke="midnightblue" d="M409.496,-285.347C381.604,-280.562 344.419,-269.513 323,-244 290.487,-205.273 307.462,-182.368 303,-132 302.216,-123.146 298.16,-119.455 303,-112 318.479,-88.1569 349.847,-76.8407 373.541,-71.537"/>
<polygon fill="midnightblue" stroke="midnightblue" points="374.357,-74.9433 383.48,-69.5563 372.988,-68.0783 374.357,-74.9433"/>
</g>
<!-- Node6 -->
<g id="node7" class="node"><title>Node6</title>
<g id="a_node7"><a xlink:title=" ">
<polygon fill="white" stroke="#bfbfbf" points="552.5,-112.5 552.5,-131.5 587.5,-131.5 587.5,-112.5 552.5,-112.5"/>
<text text-anchor="middle" x="570" y="-119.5" font-family="Helvetica,sans-Serif" font-size="10.00">map</text>
</a>
</g>
</g>
<!-- Node0&#45;&gt;Node6 -->
<g id="edge6" class="edge"><title>Node0&#45;&gt;Node6</title>
<path fill="none" stroke="midnightblue" d="M452.667,-280.075C472.523,-253.493 531.502,-174.538 557.478,-139.763"/>
<polygon fill="midnightblue" stroke="midnightblue" points="560.419,-141.674 563.6,-131.568 554.811,-137.485 560.419,-141.674"/>
</g>
<!-- Node7 -->
<g id="node8" class="node"><title>Node7</title>
<g id="a_node8"><a xlink:title=" ">
<polygon fill="white" stroke="#bfbfbf" points="840.5,-224.5 840.5,-243.5 885.5,-243.5 885.5,-224.5 840.5,-224.5"/>
<text text-anchor="middle" x="863" y="-231.5" font-family="Helvetica,sans-Serif" font-size="10.00">cstdlib</text>
</a>
</g>
</g>
<!-- Node0&#45;&gt;Node7 -->
<g id="edge7" class="edge"><title>Node0&#45;&gt;Node7</title>
<path fill="none" stroke="midnightblue" d="M482.659,-286.65C549.781,-281.932 696.995,-269.656 830.394,-243.805"/>
<polygon fill="midnightblue" stroke="midnightblue" points="831.246,-247.204 840.381,-241.838 829.893,-240.336 831.246,-247.204"/>
</g>
<!-- Node8 -->
<g id="node9" class="node"><title>Node8</title>
<g id="a_node9"><a xlink:href="../../db/dad/_person_8hpp.html" target="_top" xlink:title=" ">
<polygon fill="white" stroke="black" points="644,-112.5 644,-131.5 710,-131.5 710,-112.5 644,-112.5"/>
<text text-anchor="middle" x="677" y="-119.5" font-family="Helvetica,sans-Serif" font-size="10.00">Person.hpp</text>
</a>
</g>
</g>
<!-- Node0&#45;&gt;Node8 -->
<g id="edge8" class="edge"><title>Node0&#45;&gt;Node8</title>
<path fill="none" stroke="midnightblue" d="M472.218,-280.43C511.759,-266.421 587.206,-235.347 636,-188 650.023,-174.393 661.42,-155.081 668.606,-141.046"/>
<polygon fill="midnightblue" stroke="midnightblue" points="671.822,-142.436 673.071,-131.915 665.534,-139.36 671.822,-142.436"/>
</g>
<!-- Node10 -->
<g id="node11" class="node"><title>Node10</title>
<g id="a_node11"><a xlink:href="../../d3/dba/_employee_8hpp.html" target="_top" xlink:title=" ">
<polygon fill="white" stroke="black" points="684.5,-168.5 684.5,-187.5 763.5,-187.5 763.5,-168.5 684.5,-168.5"/>
<text text-anchor="middle" x="724" y="-175.5" font-family="Helvetica,sans-Serif" font-size="10.00">Employee.hpp</text>
</a>
</g>
</g>
<!-- Node0&#45;&gt;Node10 -->
<g id="edge14" class="edge"><title>Node0&#45;&gt;Node10</title>
<path fill="none" stroke="midnightblue" d="M482.855,-286.428C525.198,-282.247 595.809,-271.454 650,-244 673.939,-231.872 696.337,-210.186 710.087,-195.219"/>
<polygon fill="midnightblue" stroke="midnightblue" points="712.75,-197.492 716.791,-187.698 707.524,-192.834 712.75,-197.492"/>
</g>
<!-- Node11 -->
<g id="node12" class="node"><title>Node11</title>
<g id="a_node12"><a xlink:href="../../d9/dbb/_client_8hpp.html" target="_top" xlink:title=" ">
<polygon fill="white" stroke="black" points="566.5,-168.5 566.5,-187.5 627.5,-187.5 627.5,-168.5 566.5,-168.5"/>
<text text-anchor="middle" x="597" y="-175.5" font-family="Helvetica,sans-Serif" font-size="10.00">Client.hpp</text>
</a>
</g>
</g>
<!-- Node0&#45;&gt;Node11 -->
<g id="edge18" class="edge"><title>Node0&#45;&gt;Node11</title>
<path fill="none" stroke="midnightblue" d="M459.763,-280.349C473.656,-271.511 495.625,-257.243 514,-244 536.76,-227.597 562.02,-207.534 578.628,-194.074"/>
<polygon fill="midnightblue" stroke="midnightblue" points="580.921,-196.721 586.465,-187.692 576.5,-191.293 580.921,-196.721"/>
</g>
<!-- Node12 -->
<g id="node13" class="node"><title>Node12</title>
<g id="a_node13"><a xlink:href="../../d4/d2b/_vehicles_8hpp.html" target="_top" xlink:title=" ">
<polygon fill="white" stroke="black" points="144.5,-168.5 144.5,-187.5 217.5,-187.5 217.5,-168.5 144.5,-168.5"/>
<text text-anchor="middle" x="181" y="-175.5" font-family="Helvetica,sans-Serif" font-size="10.00">Vehicles.hpp</text>
</a>
</g>
</g>
<!-- Node0&#45;&gt;Node12 -->
<g id="edge21" class="edge"><title>Node0&#45;&gt;Node12</title>
<path fill="none" stroke="midnightblue" d="M409.123,-288.751C364.092,-286.846 287.129,-278.286 232,-244 213.416,-232.442 198.868,-211.572 190.146,-196.595"/>
<polygon fill="midnightblue" stroke="midnightblue" points="193.168,-194.827 185.273,-187.762 187.039,-198.208 193.168,-194.827"/>
</g>
<!-- Node13 -->
<g id="node14" class="node"><title>Node13</title>
<g id="a_node14"><a xlink:href="../../dc/de3/_alocation_8hpp.html" target="_top" xlink:title=" ">
<polygon fill="white" stroke="black" points="66,-112.5 66,-131.5 142,-131.5 142,-112.5 66,-112.5"/>
<text text-anchor="middle" x="104" y="-119.5" font-family="Helvetica,sans-Serif" font-size="10.00">Alocation.hpp</text>
</a>
</g>
</g>
<!-- Node0&#45;&gt;Node13 -->
<g id="edge29" class="edge"><title>Node0&#45;&gt;Node13</title>
<path fill="none" stroke="midnightblue" d="M409.256,-286.209C361.352,-281.652 275.589,-270.323 207,-244 162.31,-226.849 141.863,-227.62 115,-188 105.867,-174.531 103.486,-155.972 103.174,-142.132"/>
<polygon fill="midnightblue" stroke="midnightblue" points="106.677,-141.873 103.296,-131.832 99.6778,-141.79 106.677,-141.873"/>
</g>
<!-- Node15 -->
<g id="node16" class="node"><title>Node15</title>
<g id="a_node16"><a xlink:href="../../d6/d02/_agency_8hpp.html" target="_top" xlink:title=" ">
<polygon fill="white" stroke="black" points="312,-112.5 312,-131.5 380,-131.5 380,-112.5 312,-112.5"/>
<text text-anchor="middle" x="346" y="-119.5" font-family="Helvetica,sans-Serif" font-size="10.00">Agency.hpp</text>
</a>
</g>
</g>
<!-- Node0&#45;&gt;Node15 -->
<g id="edge30" class="edge"><title>Node0&#45;&gt;Node15</title>
<path fill="none" stroke="midnightblue" d="M409.384,-284.746C383.845,-279.656 351.497,-268.489 335,-244 313.964,-212.773 327.611,-166.265 337.802,-140.968"/>
<polygon fill="midnightblue" stroke="midnightblue" points="341.124,-142.102 341.847,-131.532 334.69,-139.344 341.124,-142.102"/>
</g>
<!-- Node16 -->
<g id="node17" class="node"><title>Node16</title>
<g id="a_node17"><a xlink:href="../../de/d24/_exceptions_8hpp.html" target="_top" xlink:title=" ">
<polygon fill="white" stroke="black" points="388,-168.5 388,-187.5 472,-187.5 472,-168.5 388,-168.5"/>
<text text-anchor="middle" x="430" y="-175.5" font-family="Helvetica,sans-Serif" font-size="10.00">Exceptions.hpp</text>
</a>
</g>
</g>
<!-- Node0&#45;&gt;Node16 -->
<g id="edge34" class="edge"><title>Node0&#45;&gt;Node16</title>
<path fill="none" stroke="midnightblue" d="M444.745,-280.368C442.162,-262.617 436.206,-221.666 432.705,-197.597"/>
<polygon fill="midnightblue" stroke="midnightblue" points="436.153,-196.983 431.25,-187.591 429.226,-197.991 436.153,-196.983"/>
</g>
<!-- Node18 -->
<g id="node19" class="node"><title>Node18</title>
<g id="a_node19"><a xlink:href="../../dc/dba/_interface_8hpp.html" target="_top" xlink:title=" ">
<polygon fill="white" stroke="black" points="344,-224.5 344,-243.5 418,-243.5 418,-224.5 344,-224.5"/>
<text text-anchor="middle" x="381" y="-231.5" font-family="Helvetica,sans-Serif" font-size="10.00">Interface.hpp</text>
</a>
</g>
</g>
<!-- Node0&#45;&gt;Node18 -->
<g id="edge40" class="edge"><title>Node0&#45;&gt;Node18</title>
<path fill="none" stroke="midnightblue" d="M435.557,-280.324C425.854,-272.263 411.185,-260.077 399.5,-250.369"/>
<polygon fill="midnightblue" stroke="midnightblue" points="401.562,-247.532 391.633,-243.834 397.089,-252.916 401.562,-247.532"/>
</g>
<!-- Node8&#45;&gt;Node1 -->
<g id="edge11" class="edge"><title>Node8&#45;&gt;Node1</title>
<path fill="none" stroke="midnightblue" d="M675.548,-112.315C672.713,-98.2058 665.059,-70.4325 647,-56 620.598,-34.8994 526.561,-21.1854 473.37,-14.9298"/>
<polygon fill="midnightblue" stroke="midnightblue" points="473.641,-11.4382 463.308,-13.7782 472.845,-18.3928 473.641,-11.4382"/>
</g>
<!-- Node8&#45;&gt;Node4 -->
<g id="edge10" class="edge"><title>Node8&#45;&gt;Node4</title>
<path fill="none" stroke="midnightblue" d="M643.897,-117.314C629.224,-115.682 611.751,-113.742 596,-112 455.814,-96.4999 288.584,-78.1419 219.409,-70.5539"/>
<polygon fill="midnightblue" stroke="midnightblue" points="219.49,-67.0418 209.168,-69.4306 218.727,-74.0001 219.49,-67.0418"/>
</g>
<!-- Node8&#45;&gt;Node5 -->
<g id="edge9" class="edge"><title>Node8&#45;&gt;Node5</title>
<path fill="none" stroke="midnightblue" d="M643.798,-114.433C590.356,-103.862 486.039,-83.2275 434.423,-73.0178"/>
<polygon fill="midnightblue" stroke="midnightblue" points="435.029,-69.5698 424.539,-71.0628 433.67,-76.4367 435.029,-69.5698"/>
</g>
<!-- Node9 -->
<g id="node10" class="node"><title>Node9</title>
<g id="a_node10"><a xlink:href="../../d2/d0f/members_8hpp.html" target="_top" xlink:title=" ">
<polygon fill="white" stroke="black" points="562,-56.5 562,-75.5 638,-75.5 638,-56.5 562,-56.5"/>
<text text-anchor="middle" x="600" y="-63.5" font-family="Helvetica,sans-Serif" font-size="10.00">members.hpp</text>
</a>
</g>
</g>
<!-- Node8&#45;&gt;Node9 -->
<g id="edge12" class="edge"><title>Node8&#45;&gt;Node9</title>
<path fill="none" stroke="midnightblue" d="M664.629,-112.324C652.842,-104.058 634.868,-91.4527 620.864,-81.6322"/>
<polygon fill="midnightblue" stroke="midnightblue" points="622.538,-78.5307 612.341,-75.6545 618.518,-84.2619 622.538,-78.5307"/>
</g>
<!-- Node9&#45;&gt;Node1 -->
<g id="edge13" class="edge"><title>Node9&#45;&gt;Node1</title>
<path fill="none" stroke="midnightblue" d="M574.014,-56.4435C546.304,-47.3196 502.248,-32.8133 471.384,-22.6509"/>
<polygon fill="midnightblue" stroke="midnightblue" points="472.458,-19.3196 461.865,-19.5164 470.268,-25.9684 472.458,-19.3196"/>
</g>
<!-- Node10&#45;&gt;Node5 -->
<g id="edge17" class="edge"><title>Node10&#45;&gt;Node5</title>
<path fill="none" stroke="midnightblue" d="M726.415,-168.074C729.592,-154.128 733.238,-127.197 719,-112 699.695,-91.3952 510.322,-75.0007 434.831,-69.2331"/>
<polygon fill="midnightblue" stroke="midnightblue" points="434.788,-65.72 424.553,-68.46 434.263,-72.7003 434.788,-65.72"/>
</g>
<!-- Node10&#45;&gt;Node8 -->
<g id="edge15" class="edge"><title>Node10&#45;&gt;Node8</title>
<path fill="none" stroke="midnightblue" d="M716.239,-168.083C709.463,-160.298 699.457,-148.801 691.245,-139.367"/>
<polygon fill="midnightblue" stroke="midnightblue" points="693.822,-136.996 684.617,-131.751 688.542,-141.592 693.822,-136.996"/>
</g>
<!-- Node10&#45;&gt;Node9 -->
<g id="edge16" class="edge"><title>Node10&#45;&gt;Node9</title>
<path fill="none" stroke="midnightblue" d="M733.021,-168.338C745.584,-155.211 765.381,-129.917 752,-112 728.318,-80.2909 683.279,-70.0064 648.349,-67.0824"/>
<polygon fill="midnightblue" stroke="midnightblue" points="648.541,-63.5875 638.331,-66.4181 648.078,-70.5722 648.541,-63.5875"/>
</g>
<!-- Node11&#45;&gt;Node5 -->
<g id="edge20" class="edge"><title>Node11&#45;&gt;Node5</title>
<path fill="none" stroke="midnightblue" d="M599.898,-168.305C603.843,-154.677 609.025,-128.174 596,-112 576.044,-87.22 483.86,-74.7018 434.845,-69.7024"/>
<polygon fill="midnightblue" stroke="midnightblue" points="435.091,-66.2099 424.799,-68.7215 434.411,-73.1768 435.091,-66.2099"/>
</g>
<!-- Node11&#45;&gt;Node8 -->
<g id="edge19" class="edge"><title>Node11&#45;&gt;Node8</title>
<path fill="none" stroke="midnightblue" d="M609.853,-168.324C622.216,-159.979 641.13,-147.212 655.737,-137.352"/>
<polygon fill="midnightblue" stroke="midnightblue" points="657.848,-140.15 664.179,-131.655 653.932,-134.348 657.848,-140.15"/>
</g>
<!-- Node12&#45;&gt;Node4 -->
<g id="edge28" class="edge"><title>Node12&#45;&gt;Node4</title>
<path fill="none" stroke="midnightblue" d="M181.471,-168.368C182.439,-150.617 184.673,-109.666 185.986,-85.5974"/>
<polygon fill="midnightblue" stroke="midnightblue" points="189.481,-85.7672 186.531,-75.5914 182.492,-85.3859 189.481,-85.7672"/>
</g>
<!-- Node12&#45;&gt;Node5 -->
<g id="edge27" class="edge"><title>Node12&#45;&gt;Node5</title>
<path fill="none" stroke="midnightblue" d="M185.351,-168.361C192.879,-154.317 209.694,-126.636 232,-112 275.805,-83.2564 337.139,-72.8461 373.498,-69.094"/>
<polygon fill="midnightblue" stroke="midnightblue" points="373.86,-72.5755 383.494,-68.1663 373.213,-65.6055 373.86,-72.5755"/>
</g>
<!-- Node12&#45;&gt;Node13 -->
<g id="edge22" class="edge"><title>Node12&#45;&gt;Node13</title>
<path fill="none" stroke="midnightblue" d="M168.629,-168.324C156.842,-160.058 138.868,-147.453 124.864,-137.632"/>
<polygon fill="midnightblue" stroke="midnightblue" points="126.538,-134.531 116.341,-131.655 122.518,-140.262 126.538,-134.531"/>
</g>
<!-- Node13&#45;&gt;Node1 -->
<g id="edge23" class="edge"><title>Node13&#45;&gt;Node1</title>
<path fill="none" stroke="midnightblue" d="M108.329,-112.114C115.849,-97.7152 132.777,-69.5353 156,-56 196.579,-32.3491 332.198,-18.9563 398.654,-13.668"/>
<polygon fill="midnightblue" stroke="midnightblue" points="399.001,-17.1517 408.701,-12.8886 398.46,-10.1727 399.001,-17.1517"/>
</g>
<!-- Node13&#45;&gt;Node4 -->
<g id="edge24" class="edge"><title>Node13&#45;&gt;Node4</title>
<path fill="none" stroke="midnightblue" d="M117.335,-112.324C130.162,-103.979 149.785,-91.2122 164.94,-81.3524"/>
<polygon fill="midnightblue" stroke="midnightblue" points="167.224,-84.0417 173.698,-75.6545 163.407,-78.1742 167.224,-84.0417"/>
</g>
<!-- Node13&#45;&gt;Node5 -->
<g id="edge25" class="edge"><title>Node13&#45;&gt;Node5</title>
<path fill="none" stroke="midnightblue" d="M142.3,-114.106C202.549,-103.261 318.266,-82.4322 373.372,-72.5131"/>
<polygon fill="midnightblue" stroke="midnightblue" points="374.018,-75.953 383.24,-70.7368 372.778,-69.0637 374.018,-75.953"/>
</g>
<!-- Node14 -->
<g id="node15" class="node"><title>Node14</title>
<g id="a_node15"><a xlink:title=" ">
<polygon fill="white" stroke="#bfbfbf" points="67.5,-56.5 67.5,-75.5 108.5,-75.5 108.5,-56.5 67.5,-56.5"/>
<text text-anchor="middle" x="88" y="-63.5" font-family="Helvetica,sans-Serif" font-size="10.00">ctime</text>
</a>
</g>
</g>
<!-- Node13&#45;&gt;Node14 -->
<g id="edge26" class="edge"><title>Node13&#45;&gt;Node14</title>
<path fill="none" stroke="midnightblue" d="M101.358,-112.083C99.2144,-104.849 96.1211,-94.4087 93.4509,-85.3968"/>
<polygon fill="midnightblue" stroke="midnightblue" points="96.7897,-84.3447 90.5929,-75.7511 90.0781,-86.3334 96.7897,-84.3447"/>
</g>
<!-- Node15&#45;&gt;Node1 -->
<g id="edge31" class="edge"><title>Node15&#45;&gt;Node1</title>
<path fill="none" stroke="midnightblue" d="M348.164,-112.223C351.77,-98.9476 360.028,-73.4608 374,-56 384.097,-43.3816 398.577,-32.6039 411.004,-24.7622"/>
<polygon fill="midnightblue" stroke="midnightblue" points="412.837,-27.744 419.598,-19.5868 409.226,-21.7473 412.837,-27.744"/>
</g>
<!-- Node15&#45;&gt;Node5 -->
<g id="edge32" class="edge"><title>Node15&#45;&gt;Node5</title>
<path fill="none" stroke="midnightblue" d="M355.319,-112.324C363.893,-104.341 376.812,-92.3128 387.188,-82.6529"/>
<polygon fill="midnightblue" stroke="midnightblue" points="389.578,-85.2098 394.512,-75.8339 384.808,-80.0865 389.578,-85.2098"/>
</g>
<!-- Node15&#45;&gt;Node9 -->
<g id="edge33" class="edge"><title>Node15&#45;&gt;Node9</title>
<path fill="none" stroke="midnightblue" d="M380.256,-113.717C424.469,-104.318 501.655,-87.908 551.78,-77.2514"/>
<polygon fill="midnightblue" stroke="midnightblue" points="552.682,-80.6381 561.735,-75.135 551.226,-73.7911 552.682,-80.6381"/>
</g>
<!-- Node16&#45;&gt;Node1 -->
<g id="edge36" class="edge"><title>Node16&#45;&gt;Node1</title>
<path fill="none" stroke="midnightblue" d="M456.929,-168.356C473.719,-161.411 493.978,-149.825 504,-132 525.42,-93.9042 482.357,-49.0533 455.428,-26.1411"/>
<polygon fill="midnightblue" stroke="midnightblue" points="457.304,-23.152 447.355,-19.5093 452.861,-28.5612 457.304,-23.152"/>
</g>
<!-- Node16&#45;&gt;Node5 -->
<g id="edge38" class="edge"><title>Node16&#45;&gt;Node5</title>
<path fill="none" stroke="midnightblue" d="M427.96,-168.368C423.764,-150.617 414.085,-109.666 408.396,-85.5974"/>
<polygon fill="midnightblue" stroke="midnightblue" points="411.737,-84.5182 406.031,-75.5914 404.925,-86.1284 411.737,-84.5182"/>
</g>
<!-- Node16&#45;&gt;Node6 -->
<g id="edge39" class="edge"><title>Node16&#45;&gt;Node6</title>
<path fill="none" stroke="midnightblue" d="M452.183,-168.444C476.796,-158.95 516.515,-143.63 542.937,-133.439"/>
<polygon fill="midnightblue" stroke="midnightblue" points="544.283,-136.671 552.353,-129.807 541.764,-130.14 544.283,-136.671"/>
</g>
<!-- Node16&#45;&gt;Node8 -->
<g id="edge35" class="edge"><title>Node16&#45;&gt;Node8</title>
<path fill="none" stroke="midnightblue" d="M469.138,-168.444C514.127,-158.608 587.728,-142.517 634.203,-132.356"/>
<polygon fill="midnightblue" stroke="midnightblue" points="634.952,-135.775 643.974,-130.22 633.457,-128.937 634.952,-135.775"/>
</g>
<!-- Node17 -->
<g id="node18" class="node"><title>Node17</title>
<g id="a_node18"><a xlink:title=" ">
<polygon fill="white" stroke="#bfbfbf" points="436.5,-112.5 436.5,-131.5 495.5,-131.5 495.5,-112.5 436.5,-112.5"/>
<text text-anchor="middle" x="466" y="-119.5" font-family="Helvetica,sans-Serif" font-size="10.00">exception</text>
</a>
</g>
</g>
<!-- Node16&#45;&gt;Node17 -->
<g id="edge37" class="edge"><title>Node16&#45;&gt;Node17</title>
<path fill="none" stroke="midnightblue" d="M435.945,-168.083C440.977,-160.534 448.337,-149.495 454.513,-140.23"/>
<polygon fill="midnightblue" stroke="midnightblue" points="457.531,-142.013 460.166,-131.751 451.707,-138.13 457.531,-142.013"/>
</g>
<!-- Node18&#45;&gt;Node4 -->
<g id="edge41" class="edge"><title>Node18&#45;&gt;Node4</title>
<path fill="none" stroke="midnightblue" d="M370.843,-224.309C339.611,-197.584 244.704,-116.375 204.885,-82.3037"/>
<polygon fill="midnightblue" stroke="midnightblue" points="206.93,-79.4473 197.057,-75.6051 202.379,-84.766 206.93,-79.4473"/>
</g>
<!-- Node18&#45;&gt;Node8 -->
<g id="edge42" class="edge"><title>Node18&#45;&gt;Node8</title>
<path fill="none" stroke="midnightblue" d="M404.227,-224.368C456.641,-204.89 584.22,-157.479 644.47,-135.089"/>
<polygon fill="midnightblue" stroke="midnightblue" points="645.727,-138.356 653.881,-131.591 643.288,-131.794 645.727,-138.356"/>
</g>
<!-- Node18&#45;&gt;Node10 -->
<g id="edge47" class="edge"><title>Node18&#45;&gt;Node10</title>
<path fill="none" stroke="midnightblue" d="M418.033,-227.17C479.986,-217.416 604.678,-197.785 674.232,-186.835"/>
<polygon fill="midnightblue" stroke="midnightblue" points="675.157,-190.233 684.491,-185.22 674.069,-183.318 675.157,-190.233"/>
</g>
<!-- Node18&#45;&gt;Node11 -->
<g id="edge46" class="edge"><title>Node18&#45;&gt;Node11</title>
<path fill="none" stroke="midnightblue" d="M415.226,-224.444C453.608,-214.848 515.804,-199.299 556.556,-189.111"/>
<polygon fill="midnightblue" stroke="midnightblue" points="557.574,-192.464 566.427,-186.643 555.876,-185.673 557.574,-192.464"/>
</g>
<!-- Node18&#45;&gt;Node12 -->
<g id="edge43" class="edge"><title>Node18&#45;&gt;Node12</title>
<path fill="none" stroke="midnightblue" d="M349.309,-224.444C314.932,-215.162 259.923,-200.309 222.211,-190.127"/>
<polygon fill="midnightblue" stroke="midnightblue" points="223.109,-186.744 212.542,-187.516 221.284,-193.502 223.109,-186.744"/>
</g>
<!-- Node18&#45;&gt;Node13 -->
<g id="edge44" class="edge"><title>Node18&#45;&gt;Node13</title>
<path fill="none" stroke="midnightblue" d="M343.56,-230.292C283.016,-225.245 167.148,-212.61 135,-188 120.286,-176.736 112.218,-156.726 108.033,-141.874"/>
<polygon fill="midnightblue" stroke="midnightblue" points="111.331,-140.626 105.544,-131.751 104.533,-142.298 111.331,-140.626"/>
</g>
<!-- Node18&#45;&gt;Node15 -->
<g id="edge45" class="edge"><title>Node18&#45;&gt;Node15</title>
<path fill="none" stroke="midnightblue" d="M378.254,-224.368C372.58,-206.537 359.458,-165.295 351.814,-141.272"/>
<polygon fill="midnightblue" stroke="midnightblue" points="355.101,-140.059 348.734,-131.591 348.43,-142.182 355.101,-140.059"/>
</g>
<!-- Node18&#45;&gt;Node16 -->
<g id="edge48" class="edge"><title>Node18&#45;&gt;Node16</title>
<path fill="none" stroke="midnightblue" d="M389.091,-224.083C396.155,-216.298 406.588,-204.801 415.149,-195.367"/>
<polygon fill="midnightblue" stroke="midnightblue" points="417.931,-197.509 422.059,-187.751 412.747,-192.805 417.931,-197.509"/>
</g>
</g>
</svg>
