<?xml version="1.0" encoding="UTF-8" standalone="no"?>
<!DOCTYPE svg PUBLIC "-//W3C//DTD SVG 1.1//EN"
 "http://www.w3.org/Graphics/SVG/1.1/DTD/svg11.dtd">
<!-- Generated by graphviz version 2.38.0 (20140413.2041)
 -->
<!-- Title: include/members.hpp Pages: 1 -->
<!--zoomable 252 -->
<svg id="main" version="1.1" xmlns="http://www.w3.org/2000/svg" xmlns:xlink="http://www.w3.org/1999/xlink" xml:space="preserve" onload="init(evt)">
<style type="text/css"><![CDATA[
.edge:hover path { stroke: red; }
.edge:hover polygon { stroke: red; fill: red; }
]]></style>
<script type="text/javascript"><![CDATA[
var edges = document.getElementsByTagName('g');
if (edges && edges.length) {
  for (var i=0;i<edges.length;i++) {
    if (edges[i].id.substr(0,4)=='edge') {
      edges[i].setAttribute('class','edge');
    }
  }
}
]]></script>
        <defs>
                <circle id="rim" cx="0" cy="0" r="7"/>
                <circle id="rim2" cx="0" cy="0" r="3.5"/>
                <g id="zoomPlus">
                        <use xlink:href="#rim" fill="#404040">
                                <set attributeName="fill" to="#808080" begin="zoomplus.mouseover" end="zoomplus.mouseout"/>
                        </use>
                        <path d="M-4,0h8M0,-4v8" fill="none" stroke="white" stroke-width="1.5" pointer-events="none"/>
                </g>
                <g id="zoomMin">
                        <use xlink:href="#rim" fill="#404040">
                                <set attributeName="fill" to="#808080" begin="zoomminus.mouseover" end="zoomminus.mouseout"/>
                        </use>
                        <path d="M-4,0h8" fill="none" stroke="white" stroke-width="1.5" pointer-events="none"/>
                </g>
                <g id="dirArrow">
                        <path fill="none" stroke="white" stroke-width="1.5" d="M0,-3.0v7 M-2.5,-0.5L0,-3.0L2.5,-0.5"/>
                </g>
               <g id="resetDef">
                       <use xlink:href="#rim2" fill="#404040">
                               <set attributeName="fill" to="#808080" begin="reset.mouseover" end="reset.mouseout"/>
                       </use>
               </g>
        </defs>

<script type="text/javascript">
var viewWidth = 1058;
var viewHeight = 252;
var sectionId = 'dynsection-1';
</script>
<script xlink:href="../../svgpan.js"/>
<svg id="graph" class="graph">
<g id="viewport">
<title>include/members.hpp</title>
<polygon fill="white" stroke="none" points="-4,4 -4,-248 1054,-248 1054,4 -4,4"/>
<!-- Node2 -->
<g id="node1" class="node"><title>Node2</title>
<g id="a_node1"><a xlink:title=" ">
<polygon fill="#bfbfbf" stroke="black" points="292.5,-224.5 292.5,-243.5 402.5,-243.5 402.5,-224.5 292.5,-224.5"/>
<text text-anchor="middle" x="347.5" y="-231.5" font-family="Helvetica,sans-Serif" font-size="10.00">include/members.hpp</text>
</a>
</g>
</g>
<!-- Node3 -->
<g id="node2" class="node"><title>Node3</title>
<g id="a_node2"><a xlink:href="../../d6/d02/_agency_8hpp.html" target="_top" xlink:title=" ">
<polygon fill="white" stroke="black" points="116.5,-112.5 116.5,-131.5 218.5,-131.5 218.5,-112.5 116.5,-112.5"/>
<text text-anchor="middle" x="167.5" y="-119.5" font-family="Helvetica,sans-Serif" font-size="10.00">include/Agency.hpp</text>
</a>
</g>
</g>
<!-- Node2&#45;&gt;Node3 -->
<g id="edge1" class="edge"><title>Node2&#45;&gt;Node3</title>
<path fill="none" stroke="midnightblue" d="M324.605,-219.009C286.822,-195.919 212.517,-150.51 181.559,-131.591"/>
<polygon fill="midnightblue" stroke="midnightblue" points="323.018,-222.14 333.376,-224.368 326.668,-216.167 323.018,-222.14"/>
</g>
<!-- Node8 -->
<g id="node7" class="node"><title>Node8</title>
<g id="a_node7"><a xlink:href="../../db/dad/_person_8hpp.html" target="_top" xlink:title=" ">
<polygon fill="white" stroke="black" points="506.5,-168.5 506.5,-187.5 606.5,-187.5 606.5,-168.5 506.5,-168.5"/>
<text text-anchor="middle" x="556.5" y="-175.5" font-family="Helvetica,sans-Serif" font-size="10.00">include/Person.hpp</text>
</a>
</g>
</g>
<!-- Node2&#45;&gt;Node8 -->
<g id="edge7" class="edge"><title>Node2&#45;&gt;Node8</title>
<path fill="none" stroke="midnightblue" d="M390.484,-221.894C429.952,-211.697 487.6,-196.802 523.538,-187.516"/>
<polygon fill="midnightblue" stroke="midnightblue" points="389.423,-218.553 380.617,-224.444 391.174,-225.331 389.423,-218.553"/>
</g>
<!-- Node13 -->
<g id="node12" class="node"><title>Node13</title>
<g id="a_node12"><a xlink:href="../../d3/dba/_employee_8hpp.html" target="_top" xlink:title=" ">
<polygon fill="white" stroke="black" points="291,-112.5 291,-131.5 404,-131.5 404,-112.5 291,-112.5"/>
<text text-anchor="middle" x="347.5" y="-119.5" font-family="Helvetica,sans-Serif" font-size="10.00">include/Employee.hpp</text>
</a>
</g>
</g>
<!-- Node2&#45;&gt;Node13 -->
<g id="edge29" class="edge"><title>Node2&#45;&gt;Node13</title>
<path fill="none" stroke="midnightblue" d="M347.5,-214.348C347.5,-190.254 347.5,-149.308 347.5,-131.591"/>
<polygon fill="midnightblue" stroke="midnightblue" points="344,-214.368 347.5,-224.368 351,-214.369 344,-214.368"/>
</g>
<!-- Node4 -->
<g id="node3" class="node"><title>Node4</title>
<g id="a_node3"><a xlink:href="../../dc/da3/_agency_8cpp.html" target="_top" xlink:title=" ">
<polygon fill="white" stroke="black" points="0,-56.5 0,-75.5 85,-75.5 85,-56.5 0,-56.5"/>
<text text-anchor="middle" x="42.5" y="-63.5" font-family="Helvetica,sans-Serif" font-size="10.00">src/Agency.cpp</text>
</a>
</g>
</g>
<!-- Node3&#45;&gt;Node4 -->
<g id="edge2" class="edge"><title>Node3&#45;&gt;Node4</title>
<path fill="none" stroke="midnightblue" d="M138.259,-108.368C114.85,-98.2553 82.6587,-84.3486 62.214,-75.5164"/>
<polygon fill="midnightblue" stroke="midnightblue" points="137.125,-111.691 147.693,-112.444 139.901,-105.265 137.125,-111.691"/>
</g>
<!-- Node5 -->
<g id="node4" class="node"><title>Node5</title>
<g id="a_node4"><a xlink:href="../../d5/d12/_main_8cpp.html" target="_top" xlink:title=" ">
<polygon fill="white" stroke="black" points="449,-0.5 449,-19.5 522,-19.5 522,-0.5 449,-0.5"/>
<text text-anchor="middle" x="485.5" y="-7.5" font-family="Helvetica,sans-Serif" font-size="10.00">src/Main.cpp</text>
</a>
</g>
</g>
<!-- Node3&#45;&gt;Node5 -->
<g id="edge3" class="edge"><title>Node3&#45;&gt;Node5</title>
<path fill="none" stroke="midnightblue" d="M149.159,-105.431C134.852,-91.4343 119.421,-70.8519 132.5,-56 137.712,-50.0812 359.315,-24.9615 448.696,-15.0476"/>
<polygon fill="midnightblue" stroke="midnightblue" points="147.071,-108.266 156.804,-112.452 151.806,-103.11 147.071,-108.266"/>
</g>
<!-- Node6 -->
<g id="node5" class="node"><title>Node6</title>
<g id="a_node5"><a xlink:href="../../dc/dba/_interface_8hpp.html" target="_top" xlink:title=" ">
<polygon fill="white" stroke="black" points="294,-56.5 294,-75.5 401,-75.5 401,-56.5 294,-56.5"/>
<text text-anchor="middle" x="347.5" y="-63.5" font-family="Helvetica,sans-Serif" font-size="10.00">include/Interface.hpp</text>
</a>
</g>
</g>
<!-- Node3&#45;&gt;Node6 -->
<g id="edge4" class="edge"><title>Node3&#45;&gt;Node6</title>
<path fill="none" stroke="midnightblue" d="M205.608,-109.568C239.563,-99.381 288.489,-84.7034 319.112,-75.5164"/>
<polygon fill="midnightblue" stroke="midnightblue" points="204.594,-106.218 196.022,-112.444 206.606,-112.922 204.594,-106.218"/>
</g>
<!-- Node6&#45;&gt;Node5 -->
<g id="edge6" class="edge"><title>Node6&#45;&gt;Node5</title>
<path fill="none" stroke="midnightblue" d="M378.749,-52.772C404.671,-42.6287 440.862,-28.4669 463.736,-19.5164"/>
<polygon fill="midnightblue" stroke="midnightblue" points="377.404,-49.5401 369.367,-56.4435 379.954,-56.0588 377.404,-49.5401"/>
</g>
<!-- Node7 -->
<g id="node6" class="node"><title>Node7</title>
<g id="a_node6"><a xlink:href="../../d2/d35/_interface_8cpp.html" target="_top" xlink:title=" ">
<polygon fill="white" stroke="black" points="302.5,-0.5 302.5,-19.5 392.5,-19.5 392.5,-0.5 302.5,-0.5"/>
<text text-anchor="middle" x="347.5" y="-7.5" font-family="Helvetica,sans-Serif" font-size="10.00">src/Interface.cpp</text>
</a>
</g>
</g>
<!-- Node6&#45;&gt;Node7 -->
<g id="edge5" class="edge"><title>Node6&#45;&gt;Node7</title>
<path fill="none" stroke="midnightblue" d="M347.5,-45.8045C347.5,-36.9102 347.5,-26.7798 347.5,-19.7511"/>
<polygon fill="midnightblue" stroke="midnightblue" points="344,-46.083 347.5,-56.083 351,-46.083 344,-46.083"/>
</g>
<!-- Node8&#45;&gt;Node5 -->
<g id="edge9" class="edge"><title>Node8&#45;&gt;Node5</title>
<path fill="none" stroke="midnightblue" d="M580.017,-162.906C614.932,-140.206 673.409,-94.2264 644.5,-56 629.791,-36.5505 564.502,-23.0883 522.296,-16.2383"/>
<polygon fill="midnightblue" stroke="midnightblue" points="577.887,-160.112 571.301,-168.411 581.625,-166.03 577.887,-160.112"/>
</g>
<!-- Node8&#45;&gt;Node6 -->
<g id="edge28" class="edge"><title>Node8&#45;&gt;Node6</title>
<path fill="none" stroke="midnightblue" d="M528.062,-164.214C509.041,-155.495 483.552,-143.489 461.5,-132 424.929,-112.947 383.084,-88.3432 361.704,-75.5621"/>
<polygon fill="midnightblue" stroke="midnightblue" points="526.815,-167.492 537.366,-168.453 529.718,-161.122 526.815,-167.492"/>
</g>
<!-- Node9 -->
<g id="node8" class="node"><title>Node9</title>
<g id="a_node8"><a xlink:href="../../d7/d9e/_exceptions_8cpp.html" target="_top" xlink:title=" ">
<polygon fill="white" stroke="black" points="949,-56.5 949,-75.5 1050,-75.5 1050,-56.5 949,-56.5"/>
<text text-anchor="middle" x="999.5" y="-63.5" font-family="Helvetica,sans-Serif" font-size="10.00">src/Exceptions.cpp</text>
</a>
</g>
</g>
<!-- Node8&#45;&gt;Node9 -->
<g id="edge8" class="edge"><title>Node8&#45;&gt;Node9</title>
<path fill="none" stroke="midnightblue" d="M616.546,-169.808C670.276,-162.647 750.913,-150.099 819.5,-132 878.932,-116.317 946.468,-89.3557 979.358,-75.607"/>
<polygon fill="midnightblue" stroke="midnightblue" points="615.963,-166.355 606.503,-171.126 616.874,-173.295 615.963,-166.355"/>
</g>
<!-- Node10 -->
<g id="node9" class="node"><title>Node10</title>
<g id="a_node9"><a xlink:href="../../d5/d87/_person_8cpp.html" target="_top" xlink:title=" ">
<polygon fill="white" stroke="black" points="553,-56.5 553,-75.5 636,-75.5 636,-56.5 553,-56.5"/>
<text text-anchor="middle" x="594.5" y="-63.5" font-family="Helvetica,sans-Serif" font-size="10.00">src/Person.cpp</text>
</a>
</g>
</g>
<!-- Node8&#45;&gt;Node10 -->
<g id="edge10" class="edge"><title>Node8&#45;&gt;Node10</title>
<path fill="none" stroke="midnightblue" d="M564.03,-159.152C567.393,-150.941 571.308,-141.037 574.5,-132 581.499,-112.183 588.434,-88.4994 592.011,-75.9066"/>
<polygon fill="midnightblue" stroke="midnightblue" points="560.771,-157.875 560.162,-168.453 567.234,-160.563 560.771,-157.875"/>
</g>
<!-- Node11 -->
<g id="node10" class="node"><title>Node11</title>
<g id="a_node10"><a xlink:href="../../d9/dbb/_client_8hpp.html" target="_top" xlink:title=" ">
<polygon fill="white" stroke="black" points="471,-112.5 471,-131.5 566,-131.5 566,-112.5 471,-112.5"/>
<text text-anchor="middle" x="518.5" y="-119.5" font-family="Helvetica,sans-Serif" font-size="10.00">include/Client.hpp</text>
</a>
</g>
</g>
<!-- Node8&#45;&gt;Node11 -->
<g id="edge11" class="edge"><title>Node8&#45;&gt;Node11</title>
<path fill="none" stroke="midnightblue" d="M544.435,-159.855C537.855,-150.505 529.989,-139.327 524.658,-131.751"/>
<polygon fill="midnightblue" stroke="midnightblue" points="541.608,-161.919 550.225,-168.083 547.332,-157.891 541.608,-161.919"/>
</g>
<!-- Node8&#45;&gt;Node13 -->
<g id="edge16" class="edge"><title>Node8&#45;&gt;Node13</title>
<path fill="none" stroke="midnightblue" d="M513.516,-165.894C474.048,-155.697 416.4,-140.802 380.462,-131.516"/>
<polygon fill="midnightblue" stroke="midnightblue" points="512.826,-169.331 523.383,-168.444 514.577,-162.553 512.826,-169.331"/>
</g>
<!-- Node15 -->
<g id="node14" class="node"><title>Node15</title>
<g id="a_node14"><a xlink:href="../../de/d24/_exceptions_8hpp.html" target="_top" xlink:title=" ">
<polygon fill="white" stroke="black" points="692.5,-112.5 692.5,-131.5 810.5,-131.5 810.5,-112.5 692.5,-112.5"/>
<text text-anchor="middle" x="751.5" y="-119.5" font-family="Helvetica,sans-Serif" font-size="10.00">include/Exceptions.hpp</text>
</a>
</g>
</g>
<!-- Node8&#45;&gt;Node15 -->
<g id="edge21" class="edge"><title>Node8&#45;&gt;Node15</title>
<path fill="none" stroke="midnightblue" d="M597.31,-165.699C634.113,-155.507 687.429,-140.743 720.746,-131.516"/>
<polygon fill="midnightblue" stroke="midnightblue" points="596.102,-162.402 587.398,-168.444 597.97,-169.148 596.102,-162.402"/>
</g>
<!-- Node11&#45;&gt;Node5 -->
<g id="edge13" class="edge"><title>Node11&#45;&gt;Node5</title>
<path fill="none" stroke="midnightblue" d="M515.439,-102.329C513.055,-89.2052 509.339,-71.325 504.5,-56 500.415,-43.0611 494.014,-28.7177 489.788,-19.7797"/>
<polygon fill="midnightblue" stroke="midnightblue" points="512.036,-103.195 517.185,-112.454 518.934,-102.005 512.036,-103.195"/>
</g>
<!-- Node11&#45;&gt;Node6 -->
<g id="edge15" class="edge"><title>Node11&#45;&gt;Node6</title>
<path fill="none" stroke="midnightblue" d="M481.464,-109.304C449.243,-99.1294 403.311,-84.6246 374.469,-75.5164"/>
<polygon fill="midnightblue" stroke="midnightblue" points="480.815,-112.77 491.405,-112.444 482.923,-106.095 480.815,-112.77"/>
</g>
<!-- Node11&#45;&gt;Node10 -->
<g id="edge14" class="edge"><title>Node11&#45;&gt;Node10</title>
<path fill="none" stroke="midnightblue" d="M539.076,-106.38C552.812,-96.6204 570.425,-84.1057 582.067,-75.8339"/>
<polygon fill="midnightblue" stroke="midnightblue" points="536.835,-103.679 530.711,-112.324 540.89,-109.385 536.835,-103.679"/>
</g>
<!-- Node12 -->
<g id="node11" class="node"><title>Node12</title>
<g id="a_node11"><a xlink:href="../../d2/dcf/_client_8cpp.html" target="_top" xlink:title=" ">
<polygon fill="white" stroke="black" points="419,-56.5 419,-75.5 496,-75.5 496,-56.5 419,-56.5"/>
<text text-anchor="middle" x="457.5" y="-63.5" font-family="Helvetica,sans-Serif" font-size="10.00">src/Client.cpp</text>
</a>
</g>
</g>
<!-- Node11&#45;&gt;Node12 -->
<g id="edge12" class="edge"><title>Node11&#45;&gt;Node12</title>
<path fill="none" stroke="midnightblue" d="M501.033,-105.537C490.156,-95.9087 476.556,-83.8694 467.479,-75.8339"/>
<polygon fill="midnightblue" stroke="midnightblue" points="498.892,-108.316 508.699,-112.324 503.532,-103.075 498.892,-108.316"/>
</g>
<!-- Node13&#45;&gt;Node5 -->
<g id="edge18" class="edge"><title>Node13&#45;&gt;Node5</title>
<path fill="none" stroke="midnightblue" d="M319.271,-107.816C296.01,-95.1526 269.149,-75.1673 284.5,-56 294.755,-43.1955 393.582,-25.6266 448.735,-16.7024"/>
<polygon fill="midnightblue" stroke="midnightblue" points="317.746,-110.968 328.237,-112.453 320.962,-104.751 317.746,-110.968"/>
</g>
<!-- Node13&#45;&gt;Node6 -->
<g id="edge20" class="edge"><title>Node13&#45;&gt;Node6</title>
<path fill="none" stroke="midnightblue" d="M347.5,-101.805C347.5,-92.9102 347.5,-82.7798 347.5,-75.7511"/>
<polygon fill="midnightblue" stroke="midnightblue" points="344,-102.083 347.5,-112.083 351,-102.083 344,-102.083"/>
</g>
<!-- Node13&#45;&gt;Node10 -->
<g id="edge19" class="edge"><title>Node13&#45;&gt;Node10</title>
<path fill="none" stroke="midnightblue" d="M396.527,-110.281C443.204,-100.077 512.531,-84.9203 555.545,-75.5164"/>
<polygon fill="midnightblue" stroke="midnightblue" points="395.66,-106.888 386.638,-112.444 397.155,-113.727 395.66,-106.888"/>
</g>
<!-- Node14 -->
<g id="node13" class="node"><title>Node14</title>
<g id="a_node13"><a xlink:href="../../de/de6/_employee_8cpp.html" target="_top" xlink:title=" ">
<polygon fill="white" stroke="black" points="142,-56.5 142,-75.5 237,-75.5 237,-56.5 142,-56.5"/>
<text text-anchor="middle" x="189.5" y="-63.5" font-family="Helvetica,sans-Serif" font-size="10.00">src/Employee.cpp</text>
</a>
</g>
</g>
<!-- Node13&#45;&gt;Node14 -->
<g id="edge17" class="edge"><title>Node13&#45;&gt;Node14</title>
<path fill="none" stroke="midnightblue" d="M312.892,-109.172C283.141,-99.0039 240.953,-84.5852 214.418,-75.5164"/>
<polygon fill="midnightblue" stroke="midnightblue" points="311.87,-112.521 322.464,-112.444 314.134,-105.898 311.87,-112.521"/>
</g>
<!-- Node15&#45;&gt;Node5 -->
<g id="edge24" class="edge"><title>Node15&#45;&gt;Node5</title>
<path fill="none" stroke="midnightblue" d="M820.805,-113.122C872.233,-104.565 928.907,-87.6542 900.5,-56 875.421,-28.0543 618.956,-15.8634 522.188,-12.2338"/>
<polygon fill="midnightblue" stroke="midnightblue" points="819.951,-109.713 810.616,-114.724 821.038,-116.628 819.951,-109.713"/>
</g>
<!-- Node15&#45;&gt;Node6 -->
<g id="edge27" class="edge"><title>Node15&#45;&gt;Node6</title>
<path fill="none" stroke="midnightblue" d="M682.141,-112.149C613.022,-103.264 503.871,-89.0575 409.5,-76 406.806,-75.6273 404.048,-75.2416 401.262,-74.8489"/>
<polygon fill="midnightblue" stroke="midnightblue" points="682.097,-115.672 692.461,-113.474 682.989,-108.729 682.097,-115.672"/>
</g>
<!-- Node15&#45;&gt;Node9 -->
<g id="edge23" class="edge"><title>Node15&#45;&gt;Node9</title>
<path fill="none" stroke="midnightblue" d="M800.726,-110.281C847.591,-100.077 917.199,-84.9203 960.388,-75.5164"/>
<polygon fill="midnightblue" stroke="midnightblue" points="799.823,-106.896 790.796,-112.444 801.312,-113.736 799.823,-106.896"/>
</g>
<!-- Node15&#45;&gt;Node10 -->
<g id="edge25" class="edge"><title>Node15&#45;&gt;Node10</title>
<path fill="none" stroke="midnightblue" d="M717.111,-109.172C687.548,-99.0039 645.627,-84.5852 619.261,-75.5164"/>
<polygon fill="midnightblue" stroke="midnightblue" points="716.028,-112.501 726.623,-112.444 718.305,-105.881 716.028,-112.501"/>
</g>
<!-- Node16 -->
<g id="node15" class="node"><title>Node16</title>
<g id="a_node15"><a xlink:href="../../db/d4c/_alocation_8cpp.html" target="_top" xlink:title=" ">
<polygon fill="white" stroke="black" points="692.5,-56.5 692.5,-75.5 784.5,-75.5 784.5,-56.5 692.5,-56.5"/>
<text text-anchor="middle" x="738.5" y="-63.5" font-family="Helvetica,sans-Serif" font-size="10.00">src/Alocation.cpp</text>
</a>
</g>
</g>
<!-- Node15&#45;&gt;Node16 -->
<g id="edge22" class="edge"><title>Node15&#45;&gt;Node16</title>
<path fill="none" stroke="midnightblue" d="M746.95,-102.101C744.792,-93.1357 742.318,-82.8579 740.607,-75.7511"/>
<polygon fill="midnightblue" stroke="midnightblue" points="743.61,-103.18 749.353,-112.083 750.415,-101.542 743.61,-103.18"/>
</g>
<!-- Node17 -->
<g id="node16" class="node"><title>Node17</title>
<g id="a_node16"><a xlink:href="../../d2/d7e/_vehicles_8cpp.html" target="_top" xlink:title=" ">
<polygon fill="white" stroke="black" points="803,-56.5 803,-75.5 892,-75.5 892,-56.5 803,-56.5"/>
<text text-anchor="middle" x="847.5" y="-63.5" font-family="Helvetica,sans-Serif" font-size="10.00">src/Vehicles.cpp</text>
</a>
</g>
</g>
<!-- Node15&#45;&gt;Node17 -->
<g id="edge26" class="edge"><title>Node15&#45;&gt;Node17</title>
<path fill="none" stroke="midnightblue" d="M776.074,-107.177C793.739,-97.2407 817.013,-84.1492 832.114,-75.6545"/>
<polygon fill="midnightblue" stroke="midnightblue" points="773.924,-104.371 766.924,-112.324 777.356,-110.472 773.924,-104.371"/>
</g>
</g>
</svg>
        <g id="navigator" transform="translate(0 0)" fill="#404254">
                <rect fill="#f2f5e9" fill-opacity="0.5" stroke="#606060" stroke-width=".5" x="0" y="0" width="60" height="60"/>
                <use id="zoomplus" xlink:href="#zoomPlus" x="17" y="9" onmousedown="handleZoom(evt,'in')"/>
                <use id="zoomminus" xlink:href="#zoomMin" x="42" y="9" onmousedown="handleZoom(evt,'out')"/>
                <use id="reset" xlink:href="#resetDef" x="30" y="36" onmousedown="handleReset()"/>
                <g id="arrowUp" xlink:href="#dirArrow" transform="translate(30 24)" onmousedown="handlePan(0,-1)">
                  <use xlink:href="#rim" fill="#404040">
                        <set attributeName="fill" to="#808080" begin="arrowUp.mouseover" end="arrowUp.mouseout"/>
                  </use>
                  <path fill="none" stroke="white" stroke-width="1.5" d="M0,-3.0v7 M-2.5,-0.5L0,-3.0L2.5,-0.5"/>
                </g>
                <g id="arrowRight" xlink:href="#dirArrow" transform="rotate(90) translate(36 -43)" onmousedown="handlePan(1,0)">
                  <use xlink:href="#rim" fill="#404040">
                        <set attributeName="fill" to="#808080" begin="arrowRight.mouseover" end="arrowRight.mouseout"/>
                  </use>
                  <path fill="none" stroke="white" stroke-width="1.5" d="M0,-3.0v7 M-2.5,-0.5L0,-3.0L2.5,-0.5"/>
                </g>
                <g id="arrowDown" xlink:href="#dirArrow" transform="rotate(180) translate(-30 -48)" onmousedown="handlePan(0,1)">
                  <use xlink:href="#rim" fill="#404040">
                        <set attributeName="fill" to="#808080" begin="arrowDown.mouseover" end="arrowDown.mouseout"/>
                  </use>
                  <path fill="none" stroke="white" stroke-width="1.5" d="M0,-3.0v7 M-2.5,-0.5L0,-3.0L2.5,-0.5"/>
                </g>
                <g id="arrowLeft" xlink:href="#dirArrow" transform="rotate(270) translate(-36 17)" onmousedown="handlePan(-1,0)">
                  <use xlink:href="#rim" fill="#404040">
                        <set attributeName="fill" to="#808080" begin="arrowLeft.mouseover" end="arrowLeft.mouseout"/>
                  </use>
                  <path fill="none" stroke="white" stroke-width="1.5" d="M0,-3.0v7 M-2.5,-0.5L0,-3.0L2.5,-0.5"/>
                </g>
        </g>
        <svg viewBox="0 0 15 15" width="100%" height="30px" preserveAspectRatio="xMaxYMin meet">
         <g id="arrow_out" transform="scale(0.3 0.3)">
          <a xlink:href="members_8hpp__dep__incl_org.svg" target="_base">
           <rect id="button" ry="5" rx="5" y="6" x="6" height="38" width="38"
                fill="#f2f5e9" fill-opacity="0.5" stroke="#606060" stroke-width="1.0"/>
           <path id="arrow"
             d="M 11.500037,31.436501 C 11.940474,20.09759 22.043105,11.32322 32.158766,21.979434 L 37.068811,17.246167 C 37.068811,17.246167 37.088388,32 37.088388,32 L 22.160133,31.978069 C 22.160133,31.978069 26.997745,27.140456 26.997745,27.140456 C 18.528582,18.264221 13.291696,25.230495 11.500037,31.436501 z"
             style="fill:#404040;"/>
          </a>
         </g>
        </svg>
</svg>
