<?xml version="1.0" encoding="UTF-8" standalone="no"?>
<!DOCTYPE svg PUBLIC "-//W3C//DTD SVG 1.1//EN"
 "http://www.w3.org/Graphics/SVG/1.1/DTD/svg11.dtd">
<!-- Generated by graphviz version 2.38.0 (20140413.2041)
 -->
<!-- Title: include/Agency.hpp Pages: 1 -->
<svg width="174pt" height="140pt"
 viewBox="0.00 0.00 174.00 140.00" xmlns="http://www.w3.org/2000/svg" xmlns:xlink="http://www.w3.org/1999/xlink">
<g id="graph0" class="graph" transform="scale(1 1) rotate(0) translate(4 136)">
<title>include/Agency.hpp</title>
<polygon fill="white" stroke="none" points="-4,4 -4,-136 170,-136 170,4 -4,4"/>
<!-- Node0 -->
<g id="node1" class="node"><title>Node0</title>
<g id="a_node1"><a xlink:title=" ">
<polygon fill="#bfbfbf" stroke="black" points="-7.10543e-15,-112.5 -7.10543e-15,-131.5 102,-131.5 102,-112.5 -7.10543e-15,-112.5"/>
<text text-anchor="middle" x="51" y="-119.5" font-family="Helvetica,sans-Serif" font-size="10.00">include/Agency.hpp</text>
</a>
</g>
</g>
<!-- Node1 -->
<g id="node2" class="node"><title>Node1</title>
<g id="a_node2"><a xlink:title=" ">
<polygon fill="white" stroke="#bfbfbf" points="38,-0.5 38,-19.5 92,-19.5 92,-0.5 38,-0.5"/>
<text text-anchor="middle" x="65" y="-7.5" font-family="Helvetica,sans-Serif" font-size="10.00">iostream</text>
</a>
</g>
</g>
<!-- Node0&#45;&gt;Node1 -->
<g id="edge1" class="edge"><title>Node0&#45;&gt;Node1</title>
<path fill="none" stroke="midnightblue" d="M42.0162,-112.28C30.4148,-99.9087 12.6488,-76.4862 21,-56 25.8,-44.2251 35.3286,-33.8564 44.2948,-26.0486"/>
<polygon fill="midnightblue" stroke="midnightblue" points="46.6504,-28.6448 52.2191,-19.6314 42.245,-23.2048 46.6504,-28.6448"/>
</g>
<!-- Node2 -->
<g id="node3" class="node"><title>Node2</title>
<g id="a_node3"><a xlink:title=" ">
<polygon fill="white" stroke="#bfbfbf" points="30.5,-56.5 30.5,-75.5 71.5,-75.5 71.5,-56.5 30.5,-56.5"/>
<text text-anchor="middle" x="51" y="-63.5" font-family="Helvetica,sans-Serif" font-size="10.00">string</text>
</a>
</g>
</g>
<!-- Node0&#45;&gt;Node2 -->
<g id="edge2" class="edge"><title>Node0&#45;&gt;Node2</title>
<path fill="none" stroke="midnightblue" d="M51,-112.083C51,-105.006 51,-94.8611 51,-85.9865"/>
<polygon fill="midnightblue" stroke="midnightblue" points="54.5001,-85.751 51,-75.7511 47.5001,-85.7511 54.5001,-85.751"/>
</g>
<!-- Node3 -->
<g id="node4" class="node"><title>Node3</title>
<g id="a_node4"><a xlink:href="../../d2/d0f/members_8hpp.html" target="_top" xlink:title=" ">
<polygon fill="white" stroke="black" points="90,-56.5 90,-75.5 166,-75.5 166,-56.5 90,-56.5"/>
<text text-anchor="middle" x="128" y="-63.5" font-family="Helvetica,sans-Serif" font-size="10.00">members.hpp</text>
</a>
</g>
</g>
<!-- Node0&#45;&gt;Node3 -->
<g id="edge3" class="edge"><title>Node0&#45;&gt;Node3</title>
<path fill="none" stroke="midnightblue" d="M63.3714,-112.324C75.1585,-104.058 93.1323,-91.4527 107.136,-81.6322"/>
<polygon fill="midnightblue" stroke="midnightblue" points="109.482,-84.2619 115.659,-75.6545 105.462,-78.5307 109.482,-84.2619"/>
</g>
<!-- Node3&#45;&gt;Node1 -->
<g id="edge4" class="edge"><title>Node3&#45;&gt;Node1</title>
<path fill="none" stroke="midnightblue" d="M117.878,-56.324C108.474,-48.2631 94.2559,-36.0765 82.931,-26.3695"/>
<polygon fill="midnightblue" stroke="midnightblue" points="85.1766,-23.6844 75.3062,-19.8339 80.621,-28.9993 85.1766,-23.6844"/>
</g>
</g>
</svg>
