<?xml version="1.0" encoding="UTF-8" standalone="no"?>
<!DOCTYPE svg PUBLIC "-//W3C//DTD SVG 1.1//EN"
 "http://www.w3.org/Graphics/SVG/1.1/DTD/svg11.dtd">
<!-- Generated by graphviz version 2.38.0 (20140413.2041)
 -->
<!-- Title: Graphical Class Hierarchy Pages: 1 -->
<svg width="247pt" height="85pt"
 viewBox="0.00 0.00 247.00 85.00" xmlns="http://www.w3.org/2000/svg" xmlns:xlink="http://www.w3.org/1999/xlink">
<g id="graph0" class="graph" transform="scale(1 1) rotate(0) translate(4 81)">
<title>Graphical Class Hierarchy</title>
<polygon fill="white" stroke="none" points="-4,4 -4,-81 243,-81 243,4 -4,4"/>
<!-- Node0 -->
<g id="node1" class="node"><title>Node0</title>
<g id="a_node1"><a xlink:href="df/dfc/class_members.html" target="_top" xlink:title=" ">
<polygon fill="white" stroke="black" points="0,-38.5 0,-57.5 57,-57.5 57,-38.5 0,-38.5"/>
<text text-anchor="middle" x="28.5" y="-45.5" font-family="Helvetica,sans-Serif" font-size="10.00">Members</text>
</a>
</g>
</g>
<!-- Node1 -->
<g id="node2" class="node"><title>Node1</title>
<g id="a_node2"><a xlink:href="dc/d71/class_agency.html" target="_top" xlink:title=" ">
<polygon fill="white" stroke="black" points="93,-57.5 93,-76.5 143,-76.5 143,-57.5 93,-57.5"/>
<text text-anchor="middle" x="118" y="-64.5" font-family="Helvetica,sans-Serif" font-size="10.00">Agency</text>
</a>
</g>
</g>
<!-- Node0&#45;&gt;Node1 -->
<g id="edge1" class="edge"><title>Node0&#45;&gt;Node1</title>
<path fill="none" stroke="midnightblue" d="M67.1355,-56.1723C75.811,-58.0561 84.8136,-60.011 92.7426,-61.7327"/>
<polygon fill="midnightblue" stroke="midnightblue" points="67.7005,-52.7135 57.1855,-54.0117 66.2151,-59.5541 67.7005,-52.7135"/>
</g>
<!-- Node2 -->
<g id="node3" class="node"><title>Node2</title>
<g id="a_node3"><a xlink:href="d5/d4a/class_person.html" target="_top" xlink:title=" ">
<polygon fill="white" stroke="black" points="94.5,-19.5 94.5,-38.5 141.5,-38.5 141.5,-19.5 94.5,-19.5"/>
<text text-anchor="middle" x="118" y="-26.5" font-family="Helvetica,sans-Serif" font-size="10.00">Person</text>
</a>
</g>
</g>
<!-- Node0&#45;&gt;Node2 -->
<g id="edge2" class="edge"><title>Node0&#45;&gt;Node2</title>
<path fill="none" stroke="midnightblue" d="M67.076,-39.8406C76.4049,-37.8149 86.1161,-35.7062 94.4666,-33.893"/>
<polygon fill="midnightblue" stroke="midnightblue" points="66.2151,-36.4459 57.1855,-41.9883 67.7005,-43.2865 66.2151,-36.4459"/>
</g>
<!-- Node3 -->
<g id="node4" class="node"><title>Node3</title>
<g id="a_node4"><a xlink:href="d3/d7a/class_client.html" target="_top" xlink:title=" ">
<polygon fill="white" stroke="black" points="188,-38.5 188,-57.5 230,-57.5 230,-38.5 188,-38.5"/>
<text text-anchor="middle" x="209" y="-45.5" font-family="Helvetica,sans-Serif" font-size="10.00">Client</text>
</a>
</g>
</g>
<!-- Node2&#45;&gt;Node3 -->
<g id="edge3" class="edge"><title>Node2&#45;&gt;Node3</title>
<path fill="none" stroke="midnightblue" d="M151.718,-35.9847C163.838,-38.5721 177.214,-41.4277 187.884,-43.7057"/>
<polygon fill="midnightblue" stroke="midnightblue" points="152.43,-32.558 141.92,-33.893 150.969,-39.4037 152.43,-32.558"/>
</g>
<!-- Node4 -->
<g id="node5" class="node"><title>Node4</title>
<g id="a_node5"><a xlink:href="dc/d5c/class_employee.html" target="_top" xlink:title=" ">
<polygon fill="white" stroke="black" points="179,-0.5 179,-19.5 239,-19.5 239,-0.5 179,-0.5"/>
<text text-anchor="middle" x="209" y="-7.5" font-family="Helvetica,sans-Serif" font-size="10.00">Employee</text>
</a>
</g>
</g>
<!-- Node2&#45;&gt;Node4 -->
<g id="edge4" class="edge"><title>Node2&#45;&gt;Node4</title>
<path fill="none" stroke="midnightblue" d="M151.876,-21.9815C160.691,-20.0997 170.16,-18.0781 178.764,-16.2415"/>
<polygon fill="midnightblue" stroke="midnightblue" points="150.969,-18.5963 141.92,-24.107 152.43,-25.442 150.969,-18.5963"/>
</g>
</g>
</svg>
