<?xml version="1.0" encoding="UTF-8" standalone="no"?>
<!DOCTYPE svg PUBLIC "-//W3C//DTD SVG 1.1//EN"
 "http://www.w3.org/Graphics/SVG/1.1/DTD/svg11.dtd">
<!-- Generated by graphviz version 2.38.0 (20140413.2041)
 -->
<!-- Title: include/Vehicles.hpp Pages: 1 -->
<svg width="176pt" height="140pt"
 viewBox="0.00 0.00 175.50 140.00" xmlns="http://www.w3.org/2000/svg" xmlns:xlink="http://www.w3.org/1999/xlink">
<g id="graph0" class="graph" transform="scale(1 1) rotate(0) translate(4 136)">
<title>include/Vehicles.hpp</title>
<polygon fill="white" stroke="none" points="-4,4 -4,-136 171.5,-136 171.5,4 -4,4"/>
<!-- Node0 -->
<g id="node1" class="node"><title>Node0</title>
<g id="a_node1"><a xlink:title=" ">
<polygon fill="#bfbfbf" stroke="black" points="60.5,-112.5 60.5,-131.5 167.5,-131.5 167.5,-112.5 60.5,-112.5"/>
<text text-anchor="middle" x="114" y="-119.5" font-family="Helvetica,sans-Serif" font-size="10.00">include/Vehicles.hpp</text>
</a>
</g>
</g>
<!-- Node1 -->
<g id="node2" class="node"><title>Node1</title>
<g id="a_node2"><a xlink:href="../../dc/de3/_alocation_8hpp.html" target="_top" xlink:title=" ">
<polygon fill="white" stroke="black" points="43,-56.5 43,-75.5 119,-75.5 119,-56.5 43,-56.5"/>
<text text-anchor="middle" x="81" y="-63.5" font-family="Helvetica,sans-Serif" font-size="10.00">Alocation.hpp</text>
</a>
</g>
</g>
<!-- Node0&#45;&gt;Node1 -->
<g id="edge1" class="edge"><title>Node0&#45;&gt;Node1</title>
<path fill="none" stroke="midnightblue" d="M108.551,-112.083C103.986,-104.613 97.3316,-93.7244 91.7066,-84.5199"/>
<polygon fill="midnightblue" stroke="midnightblue" points="94.5489,-82.4588 86.3479,-75.7511 88.5759,-86.109 94.5489,-82.4588"/>
</g>
<!-- Node3 -->
<g id="node4" class="node"><title>Node3</title>
<g id="a_node4"><a xlink:title=" ">
<polygon fill="white" stroke="#bfbfbf" points="123.5,-0.5 123.5,-19.5 164.5,-19.5 164.5,-0.5 123.5,-0.5"/>
<text text-anchor="middle" x="144" y="-7.5" font-family="Helvetica,sans-Serif" font-size="10.00">string</text>
</a>
</g>
</g>
<!-- Node0&#45;&gt;Node3 -->
<g id="edge5" class="edge"><title>Node0&#45;&gt;Node3</title>
<path fill="none" stroke="midnightblue" d="M116.839,-112.419C119.783,-103.398 124.446,-88.7691 128,-76 132.291,-60.5864 136.594,-42.9525 139.655,-29.9442"/>
<polygon fill="midnightblue" stroke="midnightblue" points="143.14,-30.408 141.994,-19.8754 136.322,-28.824 143.14,-30.408"/>
</g>
<!-- Node2 -->
<g id="node3" class="node"><title>Node2</title>
<g id="a_node3"><a xlink:title=" ">
<polygon fill="white" stroke="#bfbfbf" points="0,-0.5 0,-19.5 44,-19.5 44,-0.5 0,-0.5"/>
<text text-anchor="middle" x="22" y="-7.5" font-family="Helvetica,sans-Serif" font-size="10.00">vector</text>
</a>
</g>
</g>
<!-- Node1&#45;&gt;Node2 -->
<g id="edge2" class="edge"><title>Node1&#45;&gt;Node2</title>
<path fill="none" stroke="midnightblue" d="M71.5206,-56.324C62.7989,-48.3414 49.6565,-36.3128 39.1022,-26.6529"/>
<polygon fill="midnightblue" stroke="midnightblue" points="41.3917,-24.0036 31.6519,-19.8339 36.6655,-29.1674 41.3917,-24.0036"/>
</g>
<!-- Node1&#45;&gt;Node3 -->
<g id="edge3" class="edge"><title>Node1&#45;&gt;Node3</title>
<path fill="none" stroke="midnightblue" d="M91.122,-56.324C100.526,-48.2631 114.744,-36.0765 126.069,-26.3695"/>
<polygon fill="midnightblue" stroke="midnightblue" points="128.379,-28.9993 133.694,-19.8339 123.823,-23.6844 128.379,-28.9993"/>
</g>
<!-- Node4 -->
<g id="node5" class="node"><title>Node4</title>
<g id="a_node5"><a xlink:title=" ">
<polygon fill="white" stroke="#bfbfbf" points="62.5,-0.5 62.5,-19.5 103.5,-19.5 103.5,-0.5 62.5,-0.5"/>
<text text-anchor="middle" x="83" y="-7.5" font-family="Helvetica,sans-Serif" font-size="10.00">ctime</text>
</a>
</g>
</g>
<!-- Node1&#45;&gt;Node4 -->
<g id="edge4" class="edge"><title>Node1&#45;&gt;Node4</title>
<path fill="none" stroke="midnightblue" d="M81.3303,-56.083C81.5924,-49.0059 81.9681,-38.8611 82.2968,-29.9865"/>
<polygon fill="midnightblue" stroke="midnightblue" points="85.8033,-29.8738 82.6759,-19.7511 78.8081,-29.6147 85.8033,-29.8738"/>
</g>
</g>
</svg>
