<?xml version="1.0" encoding="UTF-8" standalone="no"?>
<!DOCTYPE svg PUBLIC "-//W3C//DTD SVG 1.1//EN"
 "http://www.w3.org/Graphics/SVG/1.1/DTD/svg11.dtd">
<!-- Generated by graphviz version 2.38.0 (20140413.2041)
 -->
<!-- Title: include/Exceptions.hpp Pages: 1 -->
<svg width="592pt" height="140pt"
 viewBox="0.00 0.00 591.50 140.00" xmlns="http://www.w3.org/2000/svg" xmlns:xlink="http://www.w3.org/1999/xlink">
<g id="graph0" class="graph" transform="scale(1 1) rotate(0) translate(4 136)">
<title>include/Exceptions.hpp</title>
<polygon fill="white" stroke="none" points="-4,4 -4,-136 587.5,-136 587.5,4 -4,4"/>
<!-- Node8 -->
<g id="node1" class="node"><title>Node8</title>
<g id="a_node1"><a xlink:title=" ">
<polygon fill="#bfbfbf" stroke="black" points="216,-112.5 216,-131.5 334,-131.5 334,-112.5 216,-112.5"/>
<text text-anchor="middle" x="275" y="-119.5" font-family="Helvetica,sans-Serif" font-size="10.00">include/Exceptions.hpp</text>
</a>
</g>
</g>
<!-- Node9 -->
<g id="node2" class="node"><title>Node9</title>
<g id="a_node2"><a xlink:href="../../db/d4c/_alocation_8cpp.html" target="_top" xlink:title=" ">
<polygon fill="white" stroke="black" points="0,-56.5 0,-75.5 92,-75.5 92,-56.5 0,-56.5"/>
<text text-anchor="middle" x="46" y="-63.5" font-family="Helvetica,sans-Serif" font-size="10.00">src/Alocation.cpp</text>
</a>
</g>
</g>
<!-- Node8&#45;&gt;Node9 -->
<g id="edge1" class="edge"><title>Node8&#45;&gt;Node9</title>
<path fill="none" stroke="midnightblue" d="M228.727,-110.088C185.463,-99.8865 121.745,-84.8612 82.116,-75.5164"/>
<polygon fill="midnightblue" stroke="midnightblue" points="228.178,-113.555 238.714,-112.444 229.785,-106.742 228.178,-113.555"/>
</g>
<!-- Node10 -->
<g id="node3" class="node"><title>Node10</title>
<g id="a_node3"><a xlink:href="../../d7/d9e/_exceptions_8cpp.html" target="_top" xlink:title=" ">
<polygon fill="white" stroke="black" points="110.5,-56.5 110.5,-75.5 211.5,-75.5 211.5,-56.5 110.5,-56.5"/>
<text text-anchor="middle" x="161" y="-63.5" font-family="Helvetica,sans-Serif" font-size="10.00">src/Exceptions.cpp</text>
</a>
</g>
</g>
<!-- Node8&#45;&gt;Node10 -->
<g id="edge2" class="edge"><title>Node8&#45;&gt;Node10</title>
<path fill="none" stroke="midnightblue" d="M247.758,-108.096C226.46,-98.0073 197.458,-84.2697 178.979,-75.5164"/>
<polygon fill="midnightblue" stroke="midnightblue" points="246.401,-111.326 256.936,-112.444 249.397,-105 246.401,-111.326"/>
</g>
<!-- Node11 -->
<g id="node4" class="node"><title>Node11</title>
<g id="a_node4"><a xlink:href="../../d5/d12/_main_8cpp.html" target="_top" xlink:title=" ">
<polygon fill="white" stroke="black" points="298.5,-0.5 298.5,-19.5 371.5,-19.5 371.5,-0.5 298.5,-0.5"/>
<text text-anchor="middle" x="335" y="-7.5" font-family="Helvetica,sans-Serif" font-size="10.00">src/Main.cpp</text>
</a>
</g>
</g>
<!-- Node8&#45;&gt;Node11 -->
<g id="edge3" class="edge"><title>Node8&#45;&gt;Node11</title>
<path fill="none" stroke="midnightblue" d="M264.52,-103.587C257.757,-89.9049 251.643,-70.7596 260,-56 270.175,-38.0293 290.706,-26.4522 307.718,-19.5474"/>
<polygon fill="midnightblue" stroke="midnightblue" points="261.494,-105.348 269.361,-112.444 267.636,-101.991 261.494,-105.348"/>
</g>
<!-- Node12 -->
<g id="node5" class="node"><title>Node12</title>
<g id="a_node5"><a xlink:href="../../d5/d87/_person_8cpp.html" target="_top" xlink:title=" ">
<polygon fill="white" stroke="black" points="268.5,-56.5 268.5,-75.5 351.5,-75.5 351.5,-56.5 268.5,-56.5"/>
<text text-anchor="middle" x="310" y="-63.5" font-family="Helvetica,sans-Serif" font-size="10.00">src/Person.cpp</text>
</a>
</g>
</g>
<!-- Node8&#45;&gt;Node12 -->
<g id="edge4" class="edge"><title>Node8&#45;&gt;Node12</title>
<path fill="none" stroke="midnightblue" d="M286.3,-103.566C292.322,-94.2747 299.469,-83.2484 304.328,-75.7511"/>
<polygon fill="midnightblue" stroke="midnightblue" points="283.281,-101.788 280.78,-112.083 289.156,-105.595 283.281,-101.788"/>
</g>
<!-- Node13 -->
<g id="node6" class="node"><title>Node13</title>
<g id="a_node6"><a xlink:href="../../d2/d7e/_vehicles_8cpp.html" target="_top" xlink:title=" ">
<polygon fill="white" stroke="black" points="369.5,-56.5 369.5,-75.5 458.5,-75.5 458.5,-56.5 369.5,-56.5"/>
<text text-anchor="middle" x="414" y="-63.5" font-family="Helvetica,sans-Serif" font-size="10.00">src/Vehicles.cpp</text>
</a>
</g>
</g>
<!-- Node8&#45;&gt;Node13 -->
<g id="edge5" class="edge"><title>Node8&#45;&gt;Node13</title>
<path fill="none" stroke="midnightblue" d="M306.476,-108.772C332.585,-98.6287 369.039,-84.4669 392.078,-75.5164"/>
<polygon fill="midnightblue" stroke="midnightblue" points="305.079,-105.56 297.025,-112.444 307.614,-112.085 305.079,-105.56"/>
</g>
<!-- Node14 -->
<g id="node7" class="node"><title>Node14</title>
<g id="a_node7"><a xlink:href="../../dc/dba/_interface_8hpp.html" target="_top" xlink:title=" ">
<polygon fill="white" stroke="black" points="476.5,-56.5 476.5,-75.5 583.5,-75.5 583.5,-56.5 476.5,-56.5"/>
<text text-anchor="middle" x="530" y="-63.5" font-family="Helvetica,sans-Serif" font-size="10.00">include/Interface.hpp</text>
</a>
</g>
</g>
<!-- Node8&#45;&gt;Node14 -->
<g id="edge6" class="edge"><title>Node8&#45;&gt;Node14</title>
<path fill="none" stroke="midnightblue" d="M325.312,-110.346C373.503,-100.141 445.283,-84.94 489.784,-75.5164"/>
<polygon fill="midnightblue" stroke="midnightblue" points="324.463,-106.948 315.406,-112.444 325.914,-113.796 324.463,-106.948"/>
</g>
<!-- Node14&#45;&gt;Node11 -->
<g id="edge8" class="edge"><title>Node14&#45;&gt;Node11</title>
<path fill="none" stroke="midnightblue" d="M489.19,-53.6986C452.387,-43.507 399.071,-28.7429 365.754,-19.5164"/>
<polygon fill="midnightblue" stroke="midnightblue" points="488.53,-57.1477 499.102,-56.4435 490.398,-50.4016 488.53,-57.1477"/>
</g>
<!-- Node15 -->
<g id="node8" class="node"><title>Node15</title>
<g id="a_node8"><a xlink:href="../../d2/d35/_interface_8cpp.html" target="_top" xlink:title=" ">
<polygon fill="white" stroke="black" points="485,-0.5 485,-19.5 575,-19.5 575,-0.5 485,-0.5"/>
<text text-anchor="middle" x="530" y="-7.5" font-family="Helvetica,sans-Serif" font-size="10.00">src/Interface.cpp</text>
</a>
</g>
</g>
<!-- Node14&#45;&gt;Node15 -->
<g id="edge7" class="edge"><title>Node14&#45;&gt;Node15</title>
<path fill="none" stroke="midnightblue" d="M530,-45.8045C530,-36.9102 530,-26.7798 530,-19.7511"/>
<polygon fill="midnightblue" stroke="midnightblue" points="526.5,-46.083 530,-56.083 533.5,-46.083 526.5,-46.083"/>
</g>
</g>
</svg>
