<?xml version="1.0" encoding="UTF-8" standalone="no"?>
<!DOCTYPE svg PUBLIC "-//W3C//DTD SVG 1.1//EN"
 "http://www.w3.org/Graphics/SVG/1.1/DTD/svg11.dtd">
<!-- Generated by graphviz version 2.38.0 (20140413.2041)
 -->
<!-- Title: include/Exceptions.hpp Pages: 1 -->
<svg width="412pt" height="196pt"
 viewBox="0.00 0.00 412.00 196.00" xmlns="http://www.w3.org/2000/svg" xmlns:xlink="http://www.w3.org/1999/xlink">
<g id="graph0" class="graph" transform="scale(1 1) rotate(0) translate(4 192)">
<title>include/Exceptions.hpp</title>
<polygon fill="white" stroke="none" points="-4,4 -4,-192 408,-192 408,4 -4,4"/>
<!-- Node0 -->
<g id="node1" class="node"><title>Node0</title>
<g id="a_node1"><a xlink:title=" ">
<polygon fill="#bfbfbf" stroke="black" points="204.5,-168.5 204.5,-187.5 322.5,-187.5 322.5,-168.5 204.5,-168.5"/>
<text text-anchor="middle" x="263.5" y="-175.5" font-family="Helvetica,sans-Serif" font-size="10.00">include/Exceptions.hpp</text>
</a>
</g>
</g>
<!-- Node1 -->
<g id="node2" class="node"><title>Node1</title>
<g id="a_node2"><a xlink:href="../../db/dad/_person_8hpp.html" target="_top" xlink:title=" ">
<polygon fill="white" stroke="black" points="98.5,-112.5 98.5,-131.5 164.5,-131.5 164.5,-112.5 98.5,-112.5"/>
<text text-anchor="middle" x="131.5" y="-119.5" font-family="Helvetica,sans-Serif" font-size="10.00">Person.hpp</text>
</a>
</g>
</g>
<!-- Node0&#45;&gt;Node1 -->
<g id="edge1" class="edge"><title>Node0&#45;&gt;Node1</title>
<path fill="none" stroke="midnightblue" d="M242.584,-168.444C220.764,-159.517 186.35,-145.439 161.608,-135.317"/>
<polygon fill="midnightblue" stroke="midnightblue" points="162.899,-132.063 152.318,-131.516 160.248,-138.542 162.899,-132.063"/>
</g>
<!-- Node2 -->
<g id="node3" class="node"><title>Node2</title>
<g id="a_node3"><a xlink:title=" ">
<polygon fill="white" stroke="#bfbfbf" points="0,-56.5 0,-75.5 41,-75.5 41,-56.5 0,-56.5"/>
<text text-anchor="middle" x="20.5" y="-63.5" font-family="Helvetica,sans-Serif" font-size="10.00">string</text>
</a>
</g>
</g>
<!-- Node0&#45;&gt;Node2 -->
<g id="edge9" class="edge"><title>Node0&#45;&gt;Node2</title>
<path fill="none" stroke="midnightblue" d="M204.348,-169.272C169.328,-162.898 125.013,-151.6 89.5,-132 67.097,-119.635 46.4542,-98.3126 33.6976,-83.4746"/>
<polygon fill="midnightblue" stroke="midnightblue" points="36.2328,-81.0495 27.1443,-75.6042 30.8535,-85.5286 36.2328,-81.0495"/>
</g>
<!-- Node4 -->
<g id="node5" class="node"><title>Node4</title>
<g id="a_node5"><a xlink:title=" ">
<polygon fill="white" stroke="#bfbfbf" points="170.5,-0.5 170.5,-19.5 224.5,-19.5 224.5,-0.5 170.5,-0.5"/>
<text text-anchor="middle" x="197.5" y="-7.5" font-family="Helvetica,sans-Serif" font-size="10.00">iostream</text>
</a>
</g>
</g>
<!-- Node0&#45;&gt;Node4 -->
<g id="edge7" class="edge"><title>Node0&#45;&gt;Node4</title>
<path fill="none" stroke="midnightblue" d="M263.975,-168.202C264.721,-147.398 264.39,-94.0713 244.5,-56 238.35,-44.2289 227.937,-33.779 218.473,-25.9192"/>
<polygon fill="midnightblue" stroke="midnightblue" points="220.565,-23.1124 210.531,-19.7108 216.254,-28.6272 220.565,-23.1124"/>
</g>
<!-- Node6 -->
<g id="node7" class="node"><title>Node6</title>
<g id="a_node7"><a xlink:title=" ">
<polygon fill="white" stroke="#bfbfbf" points="292,-112.5 292,-131.5 351,-131.5 351,-112.5 292,-112.5"/>
<text text-anchor="middle" x="321.5" y="-119.5" font-family="Helvetica,sans-Serif" font-size="10.00">exception</text>
</a>
</g>
</g>
<!-- Node0&#45;&gt;Node6 -->
<g id="edge8" class="edge"><title>Node0&#45;&gt;Node6</title>
<path fill="none" stroke="midnightblue" d="M272.819,-168.324C281.393,-160.341 294.312,-148.313 304.688,-138.653"/>
<polygon fill="midnightblue" stroke="midnightblue" points="307.078,-141.21 312.012,-131.834 302.308,-136.086 307.078,-141.21"/>
</g>
<!-- Node7 -->
<g id="node8" class="node"><title>Node7</title>
<g id="a_node8"><a xlink:title=" ">
<polygon fill="white" stroke="#bfbfbf" points="369,-112.5 369,-131.5 404,-131.5 404,-112.5 369,-112.5"/>
<text text-anchor="middle" x="386.5" y="-119.5" font-family="Helvetica,sans-Serif" font-size="10.00">map</text>
</a>
</g>
</g>
<!-- Node0&#45;&gt;Node7 -->
<g id="edge10" class="edge"><title>Node0&#45;&gt;Node7</title>
<path fill="none" stroke="midnightblue" d="M282.99,-168.444C303.616,-159.388 336.32,-145.03 359.44,-134.88"/>
<polygon fill="midnightblue" stroke="midnightblue" points="360.949,-138.04 368.699,-130.815 358.136,-131.63 360.949,-138.04"/>
</g>
<!-- Node1&#45;&gt;Node2 -->
<g id="edge2" class="edge"><title>Node1&#45;&gt;Node2</title>
<path fill="none" stroke="midnightblue" d="M113.666,-112.324C95.7841,-103.625 68.0249,-90.1202 47.4544,-80.113"/>
<polygon fill="midnightblue" stroke="midnightblue" points="48.8133,-76.8819 38.2898,-75.6545 45.751,-83.1765 48.8133,-76.8819"/>
</g>
<!-- Node3 -->
<g id="node4" class="node"><title>Node3</title>
<g id="a_node4"><a xlink:title=" ">
<polygon fill="white" stroke="#bfbfbf" points="59.5,-56.5 59.5,-75.5 103.5,-75.5 103.5,-56.5 59.5,-56.5"/>
<text text-anchor="middle" x="81.5" y="-63.5" font-family="Helvetica,sans-Serif" font-size="10.00">vector</text>
</a>
</g>
</g>
<!-- Node1&#45;&gt;Node3 -->
<g id="edge3" class="edge"><title>Node1&#45;&gt;Node3</title>
<path fill="none" stroke="midnightblue" d="M123.244,-112.083C116.035,-104.298 105.39,-92.8015 96.6542,-83.3665"/>
<polygon fill="midnightblue" stroke="midnightblue" points="98.9651,-80.7108 89.6028,-75.7511 93.8288,-85.4666 98.9651,-80.7108"/>
</g>
<!-- Node1&#45;&gt;Node4 -->
<g id="edge4" class="edge"><title>Node1&#45;&gt;Node4</title>
<path fill="none" stroke="midnightblue" d="M132.561,-112.431C134.476,-99.4266 139.393,-74.2893 150.5,-56 157.484,-44.4992 168.144,-33.9589 177.547,-25.975"/>
<polygon fill="midnightblue" stroke="midnightblue" points="179.786,-28.6655 185.362,-19.657 175.385,-23.2217 179.786,-28.6655"/>
</g>
<!-- Node5 -->
<g id="node6" class="node"><title>Node5</title>
<g id="a_node6"><a xlink:href="../../d2/d0f/members_8hpp.html" target="_top" xlink:title=" ">
<polygon fill="white" stroke="black" points="159.5,-56.5 159.5,-75.5 235.5,-75.5 235.5,-56.5 159.5,-56.5"/>
<text text-anchor="middle" x="197.5" y="-63.5" font-family="Helvetica,sans-Serif" font-size="10.00">members.hpp</text>
</a>
</g>
</g>
<!-- Node1&#45;&gt;Node5 -->
<g id="edge5" class="edge"><title>Node1&#45;&gt;Node5</title>
<path fill="none" stroke="midnightblue" d="M142.104,-112.324C151.956,-104.263 166.851,-92.0765 178.715,-82.3695"/>
<polygon fill="midnightblue" stroke="midnightblue" points="181.18,-84.8752 186.703,-75.8339 176.747,-79.4575 181.18,-84.8752"/>
</g>
<!-- Node5&#45;&gt;Node4 -->
<g id="edge6" class="edge"><title>Node5&#45;&gt;Node4</title>
<path fill="none" stroke="midnightblue" d="M197.5,-56.083C197.5,-49.0059 197.5,-38.8611 197.5,-29.9865"/>
<polygon fill="midnightblue" stroke="midnightblue" points="201,-29.751 197.5,-19.7511 194,-29.7511 201,-29.751"/>
</g>
</g>
</svg>
