<?xml version="1.0" encoding="UTF-8" standalone="no"?>
<!DOCTYPE svg PUBLIC "-//W3C//DTD SVG 1.1//EN"
 "http://www.w3.org/Graphics/SVG/1.1/DTD/svg11.dtd">
<!-- Generated by graphviz version 2.38.0 (20140413.2041)
 -->
<!-- Title: include/Client.hpp Pages: 1 -->
<svg width="350pt" height="140pt"
 viewBox="0.00 0.00 350.00 140.00" xmlns="http://www.w3.org/2000/svg" xmlns:xlink="http://www.w3.org/1999/xlink">
<g id="graph0" class="graph" transform="scale(1 1) rotate(0) translate(4 136)">
<title>include/Client.hpp</title>
<polygon fill="white" stroke="none" points="-4,4 -4,-136 346,-136 346,4 -4,4"/>
<!-- Node6 -->
<g id="node1" class="node"><title>Node6</title>
<g id="a_node1"><a xlink:title=" ">
<polygon fill="#bfbfbf" stroke="black" points="93,-112.5 93,-131.5 188,-131.5 188,-112.5 93,-112.5"/>
<text text-anchor="middle" x="140.5" y="-119.5" font-family="Helvetica,sans-Serif" font-size="10.00">include/Client.hpp</text>
</a>
</g>
</g>
<!-- Node7 -->
<g id="node2" class="node"><title>Node7</title>
<g id="a_node2"><a xlink:href="../../d2/dcf/_client_8cpp.html" target="_top" xlink:title=" ">
<polygon fill="white" stroke="black" points="0,-56.5 0,-75.5 77,-75.5 77,-56.5 0,-56.5"/>
<text text-anchor="middle" x="38.5" y="-63.5" font-family="Helvetica,sans-Serif" font-size="10.00">src/Client.cpp</text>
</a>
</g>
</g>
<!-- Node6&#45;&gt;Node7 -->
<g id="edge1" class="edge"><title>Node6&#45;&gt;Node7</title>
<path fill="none" stroke="midnightblue" d="M115.169,-107.59C96.3098,-97.6052 71.1158,-84.2672 54.8474,-75.6545"/>
<polygon fill="midnightblue" stroke="midnightblue" points="113.636,-110.738 124.112,-112.324 116.912,-104.552 113.636,-110.738"/>
</g>
<!-- Node8 -->
<g id="node3" class="node"><title>Node8</title>
<g id="a_node3"><a xlink:href="../../d5/d12/_main_8cpp.html" target="_top" xlink:title=" ">
<polygon fill="white" stroke="black" points="110,-0.5 110,-19.5 183,-19.5 183,-0.5 110,-0.5"/>
<text text-anchor="middle" x="146.5" y="-7.5" font-family="Helvetica,sans-Serif" font-size="10.00">src/Main.cpp</text>
</a>
</g>
</g>
<!-- Node6&#45;&gt;Node8 -->
<g id="edge2" class="edge"><title>Node6&#45;&gt;Node8</title>
<path fill="none" stroke="midnightblue" d="M131.415,-102.947C125.995,-89.9214 120.821,-71.9028 124.5,-56 127.636,-42.4442 135.446,-28.255 140.862,-19.5194"/>
<polygon fill="midnightblue" stroke="midnightblue" points="128.302,-104.555 135.65,-112.187 134.665,-101.638 128.302,-104.555"/>
</g>
<!-- Node9 -->
<g id="node4" class="node"><title>Node9</title>
<g id="a_node4"><a xlink:href="../../d5/d87/_person_8cpp.html" target="_top" xlink:title=" ">
<polygon fill="white" stroke="black" points="134,-56.5 134,-75.5 217,-75.5 217,-56.5 134,-56.5"/>
<text text-anchor="middle" x="175.5" y="-63.5" font-family="Helvetica,sans-Serif" font-size="10.00">src/Person.cpp</text>
</a>
</g>
</g>
<!-- Node6&#45;&gt;Node9 -->
<g id="edge3" class="edge"><title>Node6&#45;&gt;Node9</title>
<path fill="none" stroke="midnightblue" d="M151.8,-103.566C157.822,-94.2747 164.969,-83.2484 169.828,-75.7511"/>
<polygon fill="midnightblue" stroke="midnightblue" points="148.781,-101.788 146.28,-112.083 154.656,-105.595 148.781,-101.788"/>
</g>
<!-- Node10 -->
<g id="node5" class="node"><title>Node10</title>
<g id="a_node5"><a xlink:href="../../dc/dba/_interface_8hpp.html" target="_top" xlink:title=" ">
<polygon fill="white" stroke="black" points="235,-56.5 235,-75.5 342,-75.5 342,-56.5 235,-56.5"/>
<text text-anchor="middle" x="288.5" y="-63.5" font-family="Helvetica,sans-Serif" font-size="10.00">include/Interface.hpp</text>
</a>
</g>
</g>
<!-- Node6&#45;&gt;Node10 -->
<g id="edge4" class="edge"><title>Node6&#45;&gt;Node10</title>
<path fill="none" stroke="midnightblue" d="M173.647,-108.906C201.472,-98.7536 240.52,-84.5063 265.159,-75.5164"/>
<polygon fill="midnightblue" stroke="midnightblue" points="172.146,-105.728 163.951,-112.444 174.545,-112.304 172.146,-105.728"/>
</g>
<!-- Node10&#45;&gt;Node8 -->
<g id="edge6" class="edge"><title>Node10&#45;&gt;Node8</title>
<path fill="none" stroke="midnightblue" d="M256.345,-52.772C229.672,-42.6287 192.431,-28.4669 168.895,-19.5164"/>
<polygon fill="midnightblue" stroke="midnightblue" points="255.409,-56.1604 266,-56.4435 257.897,-49.6176 255.409,-56.1604"/>
</g>
<!-- Node11 -->
<g id="node6" class="node"><title>Node11</title>
<g id="a_node6"><a xlink:href="../../d2/d35/_interface_8cpp.html" target="_top" xlink:title=" ">
<polygon fill="white" stroke="black" points="243.5,-0.5 243.5,-19.5 333.5,-19.5 333.5,-0.5 243.5,-0.5"/>
<text text-anchor="middle" x="288.5" y="-7.5" font-family="Helvetica,sans-Serif" font-size="10.00">src/Interface.cpp</text>
</a>
</g>
</g>
<!-- Node10&#45;&gt;Node11 -->
<g id="edge5" class="edge"><title>Node10&#45;&gt;Node11</title>
<path fill="none" stroke="midnightblue" d="M288.5,-45.8045C288.5,-36.9102 288.5,-26.7798 288.5,-19.7511"/>
<polygon fill="midnightblue" stroke="midnightblue" points="285,-46.083 288.5,-56.083 292,-46.083 285,-46.083"/>
</g>
</g>
</svg>
