<?xml version="1.0" encoding="UTF-8" standalone="no"?>
<!DOCTYPE svg PUBLIC "-//W3C//DTD SVG 1.1//EN"
 "http://www.w3.org/Graphics/SVG/1.1/DTD/svg11.dtd">
<!-- Generated by graphviz version 2.38.0 (20140413.2041)
 -->
<!-- Title: src/Client.cpp Pages: 1 -->
<svg width="222pt" height="196pt"
 viewBox="0.00 0.00 222.00 196.00" xmlns="http://www.w3.org/2000/svg" xmlns:xlink="http://www.w3.org/1999/xlink">
<g id="graph0" class="graph" transform="scale(1 1) rotate(0) translate(4 192)">
<title>src/Client.cpp</title>
<polygon fill="white" stroke="none" points="-4,4 -4,-192 218,-192 218,4 -4,4"/>
<!-- Node0 -->
<g id="node1" class="node"><title>Node0</title>
<g id="a_node1"><a xlink:title=" ">
<polygon fill="#bfbfbf" stroke="black" points="43.5,-168.5 43.5,-187.5 120.5,-187.5 120.5,-168.5 43.5,-168.5"/>
<text text-anchor="middle" x="82" y="-175.5" font-family="Helvetica,sans-Serif" font-size="10.00">src/Client.cpp</text>
</a>
</g>
</g>
<!-- Node1 -->
<g id="node2" class="node"><title>Node1</title>
<g id="a_node2"><a xlink:title=" ">
<polygon fill="white" stroke="#bfbfbf" points="0,-112.5 0,-131.5 54,-131.5 54,-112.5 0,-112.5"/>
<text text-anchor="middle" x="27" y="-119.5" font-family="Helvetica,sans-Serif" font-size="10.00">iostream</text>
</a>
</g>
</g>
<!-- Node0&#45;&gt;Node1 -->
<g id="edge1" class="edge"><title>Node0&#45;&gt;Node1</title>
<path fill="none" stroke="midnightblue" d="M72.9179,-168.083C64.8287,-160.141 52.8046,-148.335 43.0898,-138.797"/>
<polygon fill="midnightblue" stroke="midnightblue" points="45.5009,-136.26 35.9131,-131.751 40.5967,-141.254 45.5009,-136.26"/>
</g>
<!-- Node2 -->
<g id="node3" class="node"><title>Node2</title>
<g id="a_node3"><a xlink:title=" ">
<polygon fill="white" stroke="#bfbfbf" points="99.5,-0.5 99.5,-19.5 140.5,-19.5 140.5,-0.5 99.5,-0.5"/>
<text text-anchor="middle" x="120" y="-7.5" font-family="Helvetica,sans-Serif" font-size="10.00">string</text>
</a>
</g>
</g>
<!-- Node0&#45;&gt;Node2 -->
<g id="edge2" class="edge"><title>Node0&#45;&gt;Node2</title>
<path fill="none" stroke="midnightblue" d="M84.043,-168.075C90.0246,-141.945 107.59,-65.2106 115.747,-29.577"/>
<polygon fill="midnightblue" stroke="midnightblue" points="119.219,-30.097 118.039,-19.5681 112.395,-28.5349 119.219,-30.097"/>
</g>
<!-- Node3 -->
<g id="node4" class="node"><title>Node3</title>
<g id="a_node4"><a xlink:href="../../d9/dbb/_client_8hpp.html" target="_top" xlink:title=" ">
<polygon fill="white" stroke="black" points="110.5,-112.5 110.5,-131.5 171.5,-131.5 171.5,-112.5 110.5,-112.5"/>
<text text-anchor="middle" x="141" y="-119.5" font-family="Helvetica,sans-Serif" font-size="10.00">Client.hpp</text>
</a>
</g>
</g>
<!-- Node0&#45;&gt;Node3 -->
<g id="edge3" class="edge"><title>Node0&#45;&gt;Node3</title>
<path fill="none" stroke="midnightblue" d="M91.4794,-168.324C100.201,-160.341 113.343,-148.313 123.898,-138.653"/>
<polygon fill="midnightblue" stroke="midnightblue" points="126.334,-141.167 131.348,-131.834 121.608,-136.004 126.334,-141.167"/>
</g>
<!-- Node3&#45;&gt;Node2 -->
<g id="edge6" class="edge"><title>Node3&#45;&gt;Node2</title>
<path fill="none" stroke="midnightblue" d="M139.352,-112.368C135.963,-94.617 128.145,-53.6664 123.55,-29.5974"/>
<polygon fill="midnightblue" stroke="midnightblue" points="126.953,-28.7577 121.64,-19.5914 120.078,-30.0704 126.953,-28.7577"/>
</g>
<!-- Node4 -->
<g id="node5" class="node"><title>Node4</title>
<g id="a_node5"><a xlink:href="../../db/dad/_person_8hpp.html" target="_top" xlink:title=" ">
<polygon fill="white" stroke="black" points="148,-56.5 148,-75.5 214,-75.5 214,-56.5 148,-56.5"/>
<text text-anchor="middle" x="181" y="-63.5" font-family="Helvetica,sans-Serif" font-size="10.00">Person.hpp</text>
</a>
</g>
</g>
<!-- Node3&#45;&gt;Node4 -->
<g id="edge4" class="edge"><title>Node3&#45;&gt;Node4</title>
<path fill="none" stroke="midnightblue" d="M147.605,-112.083C153.255,-104.455 161.545,-93.2645 168.451,-83.9408"/>
<polygon fill="midnightblue" stroke="midnightblue" points="171.378,-85.87 174.518,-75.7511 165.753,-81.7034 171.378,-85.87"/>
</g>
<!-- Node4&#45;&gt;Node2 -->
<g id="edge5" class="edge"><title>Node4&#45;&gt;Node2</title>
<path fill="none" stroke="midnightblue" d="M171.199,-56.324C162.182,-48.3414 148.594,-36.3128 137.682,-26.6529"/>
<polygon fill="midnightblue" stroke="midnightblue" points="139.787,-23.8416 129.979,-19.8339 135.147,-29.083 139.787,-23.8416"/>
</g>
</g>
</svg>
