<?xml version="1.0" encoding="UTF-8" standalone="no"?>
<!DOCTYPE svg PUBLIC "-//W3C//DTD SVG 1.1//EN"
 "http://www.w3.org/Graphics/SVG/1.1/DTD/svg11.dtd">
<!-- Generated by graphviz version 2.38.0 (20140413.2041)
 -->
<!-- Title: include/Alocation.hpp Pages: 1 -->
<svg width="272pt" height="140pt"
 viewBox="0.00 0.00 271.50 140.00" xmlns="http://www.w3.org/2000/svg" xmlns:xlink="http://www.w3.org/1999/xlink">
<g id="graph0" class="graph" transform="scale(1 1) rotate(0) translate(4 136)">
<title>include/Alocation.hpp</title>
<polygon fill="white" stroke="none" points="-4,4 -4,-136 267.5,-136 267.5,4 -4,4"/>
<!-- Node4 -->
<g id="node1" class="node"><title>Node4</title>
<g id="a_node1"><a xlink:title=" ">
<polygon fill="#bfbfbf" stroke="black" points="65,-112.5 65,-131.5 175,-131.5 175,-112.5 65,-112.5"/>
<text text-anchor="middle" x="120" y="-119.5" font-family="Helvetica,sans-Serif" font-size="10.00">include/Alocation.hpp</text>
</a>
</g>
</g>
<!-- Node5 -->
<g id="node2" class="node"><title>Node5</title>
<g id="a_node2"><a xlink:href="../../db/d4c/_alocation_8cpp.html" target="_top" xlink:title=" ">
<polygon fill="white" stroke="black" points="0,-56.5 0,-75.5 92,-75.5 92,-56.5 0,-56.5"/>
<text text-anchor="middle" x="46" y="-63.5" font-family="Helvetica,sans-Serif" font-size="10.00">src/Alocation.cpp</text>
</a>
</g>
</g>
<!-- Node4&#45;&gt;Node5 -->
<g id="edge1" class="edge"><title>Node4&#45;&gt;Node5</title>
<path fill="none" stroke="midnightblue" d="M99.9657,-106.38C86.5909,-96.6204 69.4412,-84.1057 58.1057,-75.8339"/>
<polygon fill="midnightblue" stroke="midnightblue" points="97.9695,-109.257 108.111,-112.324 102.096,-103.602 97.9695,-109.257"/>
</g>
<!-- Node6 -->
<g id="node3" class="node"><title>Node6</title>
<g id="a_node3"><a xlink:href="../../d5/d12/_main_8cpp.html" target="_top" xlink:title=" ">
<polygon fill="white" stroke="black" points="83.5,-0.5 83.5,-19.5 156.5,-19.5 156.5,-0.5 83.5,-0.5"/>
<text text-anchor="middle" x="120" y="-7.5" font-family="Helvetica,sans-Serif" font-size="10.00">src/Main.cpp</text>
</a>
</g>
</g>
<!-- Node4&#45;&gt;Node6 -->
<g id="edge2" class="edge"><title>Node4&#45;&gt;Node6</title>
<path fill="none" stroke="midnightblue" d="M120,-102.348C120,-78.2538 120,-37.3079 120,-19.5914"/>
<polygon fill="midnightblue" stroke="midnightblue" points="116.5,-102.368 120,-112.368 123.5,-102.369 116.5,-102.368"/>
</g>
<!-- Node7 -->
<g id="node4" class="node"><title>Node7</title>
<g id="a_node4"><a xlink:href="../../d4/d2b/_vehicles_8hpp.html" target="_top" xlink:title=" ">
<polygon fill="white" stroke="black" points="148.5,-56.5 148.5,-75.5 255.5,-75.5 255.5,-56.5 148.5,-56.5"/>
<text text-anchor="middle" x="202" y="-63.5" font-family="Helvetica,sans-Serif" font-size="10.00">include/Vehicles.hpp</text>
</a>
</g>
</g>
<!-- Node4&#45;&gt;Node7 -->
<g id="edge3" class="edge"><title>Node4&#45;&gt;Node7</title>
<path fill="none" stroke="midnightblue" d="M141.833,-106.622C156.813,-96.7574 176.197,-83.9919 188.858,-75.6545"/>
<polygon fill="midnightblue" stroke="midnightblue" points="139.601,-103.901 133.175,-112.324 143.451,-109.747 139.601,-103.901"/>
</g>
<!-- Node7&#45;&gt;Node6 -->
<g id="edge4" class="edge"><title>Node7&#45;&gt;Node6</title>
<path fill="none" stroke="midnightblue" d="M180.167,-50.6221C165.187,-40.7574 145.803,-27.9919 133.142,-19.6545"/>
<polygon fill="midnightblue" stroke="midnightblue" points="178.549,-53.7471 188.825,-56.324 182.399,-47.9009 178.549,-53.7471"/>
</g>
<!-- Node8 -->
<g id="node5" class="node"><title>Node8</title>
<g id="a_node5"><a xlink:href="../../d2/d7e/_vehicles_8cpp.html" target="_top" xlink:title=" ">
<polygon fill="white" stroke="black" points="174.5,-0.5 174.5,-19.5 263.5,-19.5 263.5,-0.5 174.5,-0.5"/>
<text text-anchor="middle" x="219" y="-7.5" font-family="Helvetica,sans-Serif" font-size="10.00">src/Vehicles.cpp</text>
</a>
</g>
</g>
<!-- Node7&#45;&gt;Node8 -->
<g id="edge5" class="edge"><title>Node7&#45;&gt;Node8</title>
<path fill="none" stroke="midnightblue" d="M207.857,-46.3956C210.701,-37.362 213.983,-26.936 216.245,-19.7511"/>
<polygon fill="midnightblue" stroke="midnightblue" points="204.472,-45.4935 204.807,-56.083 211.149,-47.5955 204.472,-45.4935"/>
</g>
</g>
</svg>
