<?xml version="1.0" encoding="UTF-8" standalone="no"?>
<!DOCTYPE svg PUBLIC "-//W3C//DTD SVG 1.1//EN"
 "http://www.w3.org/Graphics/SVG/1.1/DTD/svg11.dtd">
<!-- Generated by graphviz version 2.38.0 (20140413.2041)
 -->
<!-- Title: include/Alocation.hpp Pages: 1 -->
<svg width="390pt" height="196pt"
 viewBox="0.00 0.00 390.17 196.00" xmlns="http://www.w3.org/2000/svg" xmlns:xlink="http://www.w3.org/1999/xlink">
<g id="graph0" class="graph" transform="scale(1 1) rotate(0) translate(4 192)">
<title>include/Alocation.hpp</title>
<polygon fill="white" stroke="none" points="-4,4 -4,-192 386.167,-192 386.167,4 -4,4"/>
<!-- Node5 -->
<g id="node1" class="node"><title>Node5</title>
<g id="a_node1"><a xlink:title=" ">
<polygon fill="#bfbfbf" stroke="black" points="76.1668,-168.5 76.1668,-187.5 186.167,-187.5 186.167,-168.5 76.1668,-168.5"/>
<text text-anchor="middle" x="131.167" y="-175.5" font-family="Helvetica,sans-Serif" font-size="10.00">include/Alocation.hpp</text>
</a>
</g>
</g>
<!-- Node6 -->
<g id="node2" class="node"><title>Node6</title>
<g id="a_node2"><a xlink:href="../../db/d4c/_alocation_8cpp.html" target="_top" xlink:title=" ">
<polygon fill="white" stroke="black" points="18.1668,-56.5 18.1668,-75.5 110.167,-75.5 110.167,-56.5 18.1668,-56.5"/>
<text text-anchor="middle" x="64.1668" y="-63.5" font-family="Helvetica,sans-Serif" font-size="10.00">src/Alocation.cpp</text>
</a>
</g>
</g>
<!-- Node5&#45;&gt;Node6 -->
<g id="edge1" class="edge"><title>Node5&#45;&gt;Node6</title>
<path fill="none" stroke="midnightblue" d="M120.593,-159.64C106.038,-135.744 80.386,-93.6286 69.3997,-75.5914"/>
<polygon fill="midnightblue" stroke="midnightblue" points="117.718,-161.649 125.909,-168.368 123.697,-158.007 117.718,-161.649"/>
</g>
<!-- Node7 -->
<g id="node3" class="node"><title>Node7</title>
<g id="a_node3"><a xlink:href="../../d5/d12/_main_8cpp.html" target="_top" xlink:title=" ">
<polygon fill="white" stroke="black" points="200.667,-0.5 200.667,-19.5 273.667,-19.5 273.667,-0.5 200.667,-0.5"/>
<text text-anchor="middle" x="237.167" y="-7.5" font-family="Helvetica,sans-Serif" font-size="10.00">src/Main.cpp</text>
</a>
</g>
</g>
<!-- Node5&#45;&gt;Node7 -->
<g id="edge2" class="edge"><title>Node5&#45;&gt;Node7</title>
<path fill="none" stroke="midnightblue" d="M100.726,-164.348C54.1168,-143.214 -26.0245,-98.8158 9.16678,-56 32.9284,-27.0902 141.968,-16.4494 200.222,-12.7811"/>
<polygon fill="midnightblue" stroke="midnightblue" points="99.5479,-167.654 110.109,-168.496 102.378,-161.252 99.5479,-167.654"/>
</g>
<!-- Node8 -->
<g id="node4" class="node"><title>Node8</title>
<g id="a_node4"><a xlink:href="../../d4/d2b/_vehicles_8hpp.html" target="_top" xlink:title=" ">
<polygon fill="white" stroke="black" points="119.667,-112.5 119.667,-131.5 226.667,-131.5 226.667,-112.5 119.667,-112.5"/>
<text text-anchor="middle" x="173.167" y="-119.5" font-family="Helvetica,sans-Serif" font-size="10.00">include/Vehicles.hpp</text>
</a>
</g>
</g>
<!-- Node5&#45;&gt;Node8 -->
<g id="edge3" class="edge"><title>Node5&#45;&gt;Node8</title>
<path fill="none" stroke="midnightblue" d="M144.277,-160.144C151.595,-150.736 160.408,-139.405 166.36,-131.751"/>
<polygon fill="midnightblue" stroke="midnightblue" points="141.479,-158.041 138.102,-168.083 147.004,-162.338 141.479,-158.041"/>
</g>
<!-- Node10 -->
<g id="node6" class="node"><title>Node10</title>
<g id="a_node6"><a xlink:href="../../dc/dba/_interface_8hpp.html" target="_top" xlink:title=" ">
<polygon fill="white" stroke="black" points="274.667,-56.5 274.667,-75.5 381.667,-75.5 381.667,-56.5 274.667,-56.5"/>
<text text-anchor="middle" x="328.167" y="-63.5" font-family="Helvetica,sans-Serif" font-size="10.00">include/Interface.hpp</text>
</a>
</g>
</g>
<!-- Node5&#45;&gt;Node10 -->
<g id="edge10" class="edge"><title>Node5&#45;&gt;Node10</title>
<path fill="none" stroke="midnightblue" d="M163.92,-164.801C184.811,-156.544 212.182,-144.832 235.167,-132 266.642,-114.428 300.641,-88.7632 317.471,-75.5553"/>
<polygon fill="midnightblue" stroke="midnightblue" points="162.576,-161.568 154.525,-168.455 165.113,-168.092 162.576,-161.568"/>
</g>
<!-- Node8&#45;&gt;Node6 -->
<g id="edge4" class="edge"><title>Node8&#45;&gt;Node6</title>
<path fill="none" stroke="midnightblue" d="M146.648,-107.862C126.436,-97.8492 99.1797,-84.3458 81.6361,-75.6545"/>
<polygon fill="midnightblue" stroke="midnightblue" points="145.14,-111.021 155.654,-112.324 148.247,-104.748 145.14,-111.021"/>
</g>
<!-- Node8&#45;&gt;Node7 -->
<g id="edge5" class="edge"><title>Node8&#45;&gt;Node7</title>
<path fill="none" stroke="midnightblue" d="M196.847,-106.501C207.475,-98.7631 219.172,-88.2949 226.167,-76 236.467,-57.8947 237.681,-32.6798 237.523,-19.6152"/>
<polygon fill="midnightblue" stroke="midnightblue" points="194.582,-103.809 188.297,-112.338 198.529,-109.59 194.582,-103.809"/>
</g>
<!-- Node9 -->
<g id="node5" class="node"><title>Node9</title>
<g id="a_node5"><a xlink:href="../../d2/d7e/_vehicles_8cpp.html" target="_top" xlink:title=" ">
<polygon fill="white" stroke="black" points="128.667,-56.5 128.667,-75.5 217.667,-75.5 217.667,-56.5 128.667,-56.5"/>
<text text-anchor="middle" x="173.167" y="-63.5" font-family="Helvetica,sans-Serif" font-size="10.00">src/Vehicles.cpp</text>
</a>
</g>
</g>
<!-- Node8&#45;&gt;Node9 -->
<g id="edge6" class="edge"><title>Node8&#45;&gt;Node9</title>
<path fill="none" stroke="midnightblue" d="M173.167,-101.805C173.167,-92.9102 173.167,-82.7798 173.167,-75.7511"/>
<polygon fill="midnightblue" stroke="midnightblue" points="169.667,-102.083 173.167,-112.083 176.667,-102.083 169.667,-102.083"/>
</g>
<!-- Node8&#45;&gt;Node10 -->
<g id="edge7" class="edge"><title>Node8&#45;&gt;Node10</title>
<path fill="none" stroke="midnightblue" d="M207.499,-109.039C236.663,-98.8786 277.804,-84.5457 303.721,-75.5164"/>
<polygon fill="midnightblue" stroke="midnightblue" points="206.019,-105.848 197.727,-112.444 208.322,-112.459 206.019,-105.848"/>
</g>
<!-- Node10&#45;&gt;Node7 -->
<g id="edge9" class="edge"><title>Node10&#45;&gt;Node7</title>
<path fill="none" stroke="midnightblue" d="M304.873,-51.1774C288.128,-41.2407 266.066,-28.1492 251.751,-19.6545"/>
<polygon fill="midnightblue" stroke="midnightblue" points="303.16,-54.2307 313.546,-56.324 306.732,-48.2108 303.16,-54.2307"/>
</g>
<!-- Node11 -->
<g id="node7" class="node"><title>Node11</title>
<g id="a_node7"><a xlink:href="../../d2/d35/_interface_8cpp.html" target="_top" xlink:title=" ">
<polygon fill="white" stroke="black" points="292.167,-0.5 292.167,-19.5 382.167,-19.5 382.167,-0.5 292.167,-0.5"/>
<text text-anchor="middle" x="337.167" y="-7.5" font-family="Helvetica,sans-Serif" font-size="10.00">src/Interface.cpp</text>
</a>
</g>
</g>
<!-- Node10&#45;&gt;Node11 -->
<g id="edge8" class="edge"><title>Node10&#45;&gt;Node11</title>
<path fill="none" stroke="midnightblue" d="M331.317,-46.1005C332.811,-37.1357 334.524,-26.8579 335.708,-19.7511"/>
<polygon fill="midnightblue" stroke="midnightblue" points="327.845,-45.6436 329.653,-56.083 334.749,-46.7945 327.845,-45.6436"/>
</g>
</g>
</svg>
