<?xml version="1.0" encoding="UTF-8" standalone="no"?>
<!DOCTYPE svg PUBLIC "-//W3C//DTD SVG 1.1//EN"
 "http://www.w3.org/Graphics/SVG/1.1/DTD/svg11.dtd">
<!-- Generated by graphviz version 2.38.0 (20140413.2041)
 -->
<!-- Title: include/Person.hpp Pages: 1 -->
<svg width="374pt" height="140pt"
 viewBox="0.00 0.00 374.00 140.00" xmlns="http://www.w3.org/2000/svg" xmlns:xlink="http://www.w3.org/1999/xlink">
<g id="graph0" class="graph" transform="scale(1 1) rotate(0) translate(4 136)">
<title>include/Person.hpp</title>
<polygon fill="white" stroke="none" points="-4,4 -4,-136 370,-136 370,4 -4,4"/>
<!-- Node2 -->
<g id="node1" class="node"><title>Node2</title>
<g id="a_node1"><a xlink:title=" ">
<polygon fill="#bfbfbf" stroke="black" points="139.5,-112.5 139.5,-131.5 239.5,-131.5 239.5,-112.5 139.5,-112.5"/>
<text text-anchor="middle" x="189.5" y="-119.5" font-family="Helvetica,sans-Serif" font-size="10.00">include/Person.hpp</text>
</a>
</g>
</g>
<!-- Node3 -->
<g id="node2" class="node"><title>Node3</title>
<g id="a_node2"><a xlink:href="../../d5/d12/_main_8cpp.html" target="_top" xlink:title=" ">
<polygon fill="white" stroke="black" points="179,-0.5 179,-19.5 252,-19.5 252,-0.5 179,-0.5"/>
<text text-anchor="middle" x="215.5" y="-7.5" font-family="Helvetica,sans-Serif" font-size="10.00">src/Main.cpp</text>
</a>
</g>
</g>
<!-- Node2&#45;&gt;Node3 -->
<g id="edge1" class="edge"><title>Node2&#45;&gt;Node3</title>
<path fill="none" stroke="midnightblue" d="M196.229,-102.936C199.079,-94.7918 202.253,-84.9997 204.5,-76 209.491,-56.0124 212.902,-31.9973 214.487,-19.5"/>
<polygon fill="midnightblue" stroke="midnightblue" points="192.884,-101.895 192.775,-112.489 199.467,-104.276 192.884,-101.895"/>
</g>
<!-- Node4 -->
<g id="node3" class="node"><title>Node4</title>
<g id="a_node3"><a xlink:href="../../d5/d87/_person_8cpp.html" target="_top" xlink:title=" ">
<polygon fill="white" stroke="black" points="113,-56.5 113,-75.5 196,-75.5 196,-56.5 113,-56.5"/>
<text text-anchor="middle" x="154.5" y="-63.5" font-family="Helvetica,sans-Serif" font-size="10.00">src/Person.cpp</text>
</a>
</g>
</g>
<!-- Node2&#45;&gt;Node4 -->
<g id="edge2" class="edge"><title>Node2&#45;&gt;Node4</title>
<path fill="none" stroke="midnightblue" d="M178.2,-103.566C172.178,-94.2747 165.031,-83.2484 160.172,-75.7511"/>
<polygon fill="midnightblue" stroke="midnightblue" points="175.344,-105.595 183.72,-112.083 181.219,-101.788 175.344,-105.595"/>
</g>
<!-- Node5 -->
<g id="node4" class="node"><title>Node5</title>
<g id="a_node4"><a xlink:href="../../d9/dbb/_client_8hpp.html" target="_top" xlink:title=" ">
<polygon fill="white" stroke="black" points="0,-56.5 0,-75.5 95,-75.5 95,-56.5 0,-56.5"/>
<text text-anchor="middle" x="47.5" y="-63.5" font-family="Helvetica,sans-Serif" font-size="10.00">include/Client.hpp</text>
</a>
</g>
</g>
<!-- Node2&#45;&gt;Node5 -->
<g id="edge3" class="edge"><title>Node2&#45;&gt;Node5</title>
<path fill="none" stroke="midnightblue" d="M157.345,-108.772C130.672,-98.6287 93.4314,-84.4669 69.8951,-75.5164"/>
<polygon fill="midnightblue" stroke="midnightblue" points="156.409,-112.16 167,-112.444 158.897,-105.618 156.409,-112.16"/>
</g>
<!-- Node7 -->
<g id="node6" class="node"><title>Node7</title>
<g id="a_node6"><a xlink:href="../../d3/dba/_employee_8hpp.html" target="_top" xlink:title=" ">
<polygon fill="white" stroke="black" points="253,-56.5 253,-75.5 366,-75.5 366,-56.5 253,-56.5"/>
<text text-anchor="middle" x="309.5" y="-63.5" font-family="Helvetica,sans-Serif" font-size="10.00">include/Employee.hpp</text>
</a>
</g>
</g>
<!-- Node2&#45;&gt;Node7 -->
<g id="edge6" class="edge"><title>Node2&#45;&gt;Node7</title>
<path fill="none" stroke="midnightblue" d="M217.873,-108.232C240.32,-98.1312 271.035,-84.3091 290.575,-75.5164"/>
<polygon fill="midnightblue" stroke="midnightblue" points="216.197,-105.148 208.514,-112.444 219.07,-111.532 216.197,-105.148"/>
</g>
<!-- Node5&#45;&gt;Node3 -->
<g id="edge5" class="edge"><title>Node5&#45;&gt;Node3</title>
<path fill="none" stroke="midnightblue" d="M83.8862,-53.3044C115.542,-43.1294 160.668,-28.6246 189.004,-19.5164"/>
<polygon fill="midnightblue" stroke="midnightblue" points="82.5693,-50.0513 74.1201,-56.4435 84.7114,-56.7155 82.5693,-50.0513"/>
</g>
<!-- Node6 -->
<g id="node5" class="node"><title>Node6</title>
<g id="a_node5"><a xlink:href="../../d2/dcf/_client_8cpp.html" target="_top" xlink:title=" ">
<polygon fill="white" stroke="black" points="9,-0.5 9,-19.5 86,-19.5 86,-0.5 9,-0.5"/>
<text text-anchor="middle" x="47.5" y="-7.5" font-family="Helvetica,sans-Serif" font-size="10.00">src/Client.cpp</text>
</a>
</g>
</g>
<!-- Node5&#45;&gt;Node6 -->
<g id="edge4" class="edge"><title>Node5&#45;&gt;Node6</title>
<path fill="none" stroke="midnightblue" d="M47.5,-45.8045C47.5,-36.9102 47.5,-26.7798 47.5,-19.7511"/>
<polygon fill="midnightblue" stroke="midnightblue" points="44.0001,-46.083 47.5,-56.083 51.0001,-46.083 44.0001,-46.083"/>
</g>
<!-- Node7&#45;&gt;Node3 -->
<g id="edge8" class="edge"><title>Node7&#45;&gt;Node3</title>
<path fill="none" stroke="midnightblue" d="M285.438,-51.1774C268.141,-41.2407 245.352,-28.1492 230.565,-19.6545"/>
<polygon fill="midnightblue" stroke="midnightblue" points="283.983,-54.3775 294.397,-56.324 287.47,-48.3078 283.983,-54.3775"/>
</g>
<!-- Node8 -->
<g id="node7" class="node"><title>Node8</title>
<g id="a_node7"><a xlink:href="../../de/de6/_employee_8cpp.html" target="_top" xlink:title=" ">
<polygon fill="white" stroke="black" points="270,-0.5 270,-19.5 365,-19.5 365,-0.5 270,-0.5"/>
<text text-anchor="middle" x="317.5" y="-7.5" font-family="Helvetica,sans-Serif" font-size="10.00">src/Employee.cpp</text>
</a>
</g>
</g>
<!-- Node7&#45;&gt;Node8 -->
<g id="edge7" class="edge"><title>Node7&#45;&gt;Node8</title>
<path fill="none" stroke="midnightblue" d="M312.3,-46.1005C313.628,-37.1357 315.151,-26.8579 316.204,-19.7511"/>
<polygon fill="midnightblue" stroke="midnightblue" points="308.824,-45.678 310.821,-56.083 315.749,-46.7039 308.824,-45.678"/>
</g>
</g>
</svg>
