<?xml version="1.0" encoding="UTF-8" standalone="no"?>
<!DOCTYPE svg PUBLIC "-//W3C//DTD SVG 1.1//EN"
 "http://www.w3.org/Graphics/SVG/1.1/DTD/svg11.dtd">
<!-- Generated by graphviz version 2.38.0 (20140413.2041)
 -->
<!-- Title: include/Person.hpp Pages: 1 -->
<svg width="903pt" height="196pt"
 viewBox="0.00 0.00 903.48 196.00" xmlns="http://www.w3.org/2000/svg" xmlns:xlink="http://www.w3.org/1999/xlink">
<g id="graph0" class="graph" transform="scale(1 1) rotate(0) translate(4 192)">
<title>include/Person.hpp</title>
<polygon fill="white" stroke="none" points="-4,4 -4,-192 899.48,-192 899.48,4 -4,4"/>
<!-- Node5 -->
<g id="node1" class="node"><title>Node5</title>
<g id="a_node1"><a xlink:title=" ">
<polygon fill="#bfbfbf" stroke="black" points="315.98,-168.5 315.98,-187.5 415.98,-187.5 415.98,-168.5 315.98,-168.5"/>
<text text-anchor="middle" x="365.98" y="-175.5" font-family="Helvetica,sans-Serif" font-size="10.00">include/Person.hpp</text>
</a>
</g>
</g>
<!-- Node6 -->
<g id="node2" class="node"><title>Node6</title>
<g id="a_node2"><a xlink:href="../../d7/d9e/_exceptions_8cpp.html" target="_top" xlink:title=" ">
<polygon fill="white" stroke="black" points="538.48,-56.5 538.48,-75.5 639.48,-75.5 639.48,-56.5 538.48,-56.5"/>
<text text-anchor="middle" x="588.98" y="-63.5" font-family="Helvetica,sans-Serif" font-size="10.00">src/Exceptions.cpp</text>
</a>
</g>
</g>
<!-- Node5&#45;&gt;Node6 -->
<g id="edge1" class="edge"><title>Node5&#45;&gt;Node6</title>
<path fill="none" stroke="midnightblue" d="M392.582,-163.878C438.805,-141.078 532.722,-94.7509 571.563,-75.5914"/>
<polygon fill="midnightblue" stroke="midnightblue" points="390.899,-160.806 383.479,-168.368 393.996,-167.084 390.899,-160.806"/>
</g>
<!-- Node7 -->
<g id="node3" class="node"><title>Node7</title>
<g id="a_node3"><a xlink:href="../../d5/d12/_main_8cpp.html" target="_top" xlink:title=" ">
<polygon fill="white" stroke="black" points="339.48,-0.5 339.48,-19.5 412.48,-19.5 412.48,-0.5 339.48,-0.5"/>
<text text-anchor="middle" x="375.98" y="-7.5" font-family="Helvetica,sans-Serif" font-size="10.00">src/Main.cpp</text>
</a>
</g>
</g>
<!-- Node5&#45;&gt;Node7 -->
<g id="edge2" class="edge"><title>Node5&#45;&gt;Node7</title>
<path fill="none" stroke="midnightblue" d="M305.607,-175.776C185.141,-171.317 -66.6144,-150.728 16.9805,-56 38.0994,-32.0686 251.979,-17.7719 339.224,-12.8962"/>
<polygon fill="midnightblue" stroke="midnightblue" points="305.68,-179.28 315.795,-176.126 305.921,-172.285 305.68,-179.28"/>
</g>
<!-- Node8 -->
<g id="node4" class="node"><title>Node8</title>
<g id="a_node4"><a xlink:href="../../d5/d87/_person_8cpp.html" target="_top" xlink:title=" ">
<polygon fill="white" stroke="black" points="160.48,-56.5 160.48,-75.5 243.48,-75.5 243.48,-56.5 160.48,-56.5"/>
<text text-anchor="middle" x="201.98" y="-63.5" font-family="Helvetica,sans-Serif" font-size="10.00">src/Person.cpp</text>
</a>
</g>
</g>
<!-- Node5&#45;&gt;Node8 -->
<g id="edge3" class="edge"><title>Node5&#45;&gt;Node8</title>
<path fill="none" stroke="midnightblue" d="M344.681,-162.714C310.123,-139.535 242.877,-94.4303 214.79,-75.5914"/>
<polygon fill="midnightblue" stroke="midnightblue" points="342.857,-165.705 353.112,-168.368 346.756,-159.891 342.857,-165.705"/>
</g>
<!-- Node9 -->
<g id="node5" class="node"><title>Node9</title>
<g id="a_node5"><a xlink:href="../../d9/dbb/_client_8hpp.html" target="_top" xlink:title=" ">
<polygon fill="white" stroke="black" points="154.48,-112.5 154.48,-131.5 249.48,-131.5 249.48,-112.5 154.48,-112.5"/>
<text text-anchor="middle" x="201.98" y="-119.5" font-family="Helvetica,sans-Serif" font-size="10.00">include/Client.hpp</text>
</a>
</g>
</g>
<!-- Node5&#45;&gt;Node9 -->
<g id="edge4" class="edge"><title>Node5&#45;&gt;Node9</title>
<path fill="none" stroke="midnightblue" d="M330.461,-165.304C299.559,-155.129 255.507,-140.625 227.845,-131.516"/>
<polygon fill="midnightblue" stroke="midnightblue" points="329.401,-168.64 339.994,-168.444 331.59,-161.992 329.401,-168.64"/>
</g>
<!-- Node11 -->
<g id="node7" class="node"><title>Node11</title>
<g id="a_node7"><a xlink:href="../../dc/dba/_interface_8hpp.html" target="_top" xlink:title=" ">
<polygon fill="white" stroke="black" points="413.48,-56.5 413.48,-75.5 520.48,-75.5 520.48,-56.5 413.48,-56.5"/>
<text text-anchor="middle" x="466.98" y="-63.5" font-family="Helvetica,sans-Serif" font-size="10.00">include/Interface.hpp</text>
</a>
</g>
</g>
<!-- Node5&#45;&gt;Node11 -->
<g id="edge23" class="edge"><title>Node5&#45;&gt;Node11</title>
<path fill="none" stroke="midnightblue" d="M391.43,-163.185C404.378,-155.273 419.716,-144.448 430.98,-132 446.733,-114.592 458.283,-89.0827 463.644,-75.7899"/>
<polygon fill="midnightblue" stroke="midnightblue" points="389.372,-160.335 382.516,-168.413 392.913,-166.373 389.372,-160.335"/>
</g>
<!-- Node13 -->
<g id="node9" class="node"><title>Node13</title>
<g id="a_node9"><a xlink:href="../../d3/dba/_employee_8hpp.html" target="_top" xlink:title=" ">
<polygon fill="white" stroke="black" points="309.48,-112.5 309.48,-131.5 422.48,-131.5 422.48,-112.5 309.48,-112.5"/>
<text text-anchor="middle" x="365.98" y="-119.5" font-family="Helvetica,sans-Serif" font-size="10.00">include/Employee.hpp</text>
</a>
</g>
</g>
<!-- Node5&#45;&gt;Node13 -->
<g id="edge11" class="edge"><title>Node5&#45;&gt;Node13</title>
<path fill="none" stroke="midnightblue" d="M365.98,-157.805C365.98,-148.91 365.98,-138.78 365.98,-131.751"/>
<polygon fill="midnightblue" stroke="midnightblue" points="362.481,-158.083 365.98,-168.083 369.481,-158.083 362.481,-158.083"/>
</g>
<!-- Node15 -->
<g id="node11" class="node"><title>Node15</title>
<g id="a_node11"><a xlink:href="../../de/d24/_exceptions_8hpp.html" target="_top" xlink:title=" ">
<polygon fill="white" stroke="black" points="529.98,-112.5 529.98,-131.5 647.98,-131.5 647.98,-112.5 529.98,-112.5"/>
<text text-anchor="middle" x="588.98" y="-119.5" font-family="Helvetica,sans-Serif" font-size="10.00">include/Exceptions.hpp</text>
</a>
</g>
</g>
<!-- Node5&#45;&gt;Node15 -->
<g id="edge16" class="edge"><title>Node5&#45;&gt;Node15</title>
<path fill="none" stroke="midnightblue" d="M411.042,-166.088C453.171,-155.887 515.221,-140.861 553.811,-131.516"/>
<polygon fill="midnightblue" stroke="midnightblue" points="410.211,-162.688 401.315,-168.444 411.858,-169.492 410.211,-162.688"/>
</g>
<!-- Node9&#45;&gt;Node7 -->
<g id="edge6" class="edge"><title>Node9&#45;&gt;Node7</title>
<path fill="none" stroke="midnightblue" d="M178.255,-106.939C158.862,-93.6805 136.786,-73.3148 150.98,-56 174.342,-27.5036 281.441,-16.693 339.051,-12.8884"/>
<polygon fill="midnightblue" stroke="midnightblue" points="176.54,-109.998 186.837,-112.494 180.344,-104.122 176.54,-109.998"/>
</g>
<!-- Node9&#45;&gt;Node8 -->
<g id="edge7" class="edge"><title>Node9&#45;&gt;Node8</title>
<path fill="none" stroke="midnightblue" d="M201.98,-101.805C201.98,-92.9102 201.98,-82.7798 201.98,-75.7511"/>
<polygon fill="midnightblue" stroke="midnightblue" points="198.481,-102.083 201.98,-112.083 205.481,-102.083 198.481,-102.083"/>
</g>
<!-- Node10 -->
<g id="node6" class="node"><title>Node10</title>
<g id="a_node6"><a xlink:href="../../d2/dcf/_client_8cpp.html" target="_top" xlink:title=" ">
<polygon fill="white" stroke="black" points="26.4805,-56.5 26.4805,-75.5 103.48,-75.5 103.48,-56.5 26.4805,-56.5"/>
<text text-anchor="middle" x="64.9805" y="-63.5" font-family="Helvetica,sans-Serif" font-size="10.00">src/Client.cpp</text>
</a>
</g>
</g>
<!-- Node9&#45;&gt;Node10 -->
<g id="edge5" class="edge"><title>Node9&#45;&gt;Node10</title>
<path fill="none" stroke="midnightblue" d="M170.958,-108.772C145.224,-98.6287 109.295,-84.4669 86.587,-75.5164"/>
<polygon fill="midnightblue" stroke="midnightblue" points="169.686,-112.033 180.272,-112.444 172.253,-105.52 169.686,-112.033"/>
</g>
<!-- Node9&#45;&gt;Node11 -->
<g id="edge8" class="edge"><title>Node9&#45;&gt;Node11</title>
<path fill="none" stroke="midnightblue" d="M253.952,-110.41C304.034,-100.204 378.845,-84.9597 425.187,-75.5164"/>
<polygon fill="midnightblue" stroke="midnightblue" points="253.07,-107.017 243.971,-112.444 254.468,-113.876 253.07,-107.017"/>
</g>
<!-- Node11&#45;&gt;Node7 -->
<g id="edge10" class="edge"><title>Node11&#45;&gt;Node7</title>
<path fill="none" stroke="midnightblue" d="M443.687,-51.1774C426.942,-41.2407 404.88,-28.1492 390.565,-19.6545"/>
<polygon fill="midnightblue" stroke="midnightblue" points="441.974,-54.2307 452.36,-56.324 445.546,-48.2108 441.974,-54.2307"/>
</g>
<!-- Node12 -->
<g id="node8" class="node"><title>Node12</title>
<g id="a_node8"><a xlink:href="../../d2/d35/_interface_8cpp.html" target="_top" xlink:title=" ">
<polygon fill="white" stroke="black" points="430.98,-0.5 430.98,-19.5 520.98,-19.5 520.98,-0.5 430.98,-0.5"/>
<text text-anchor="middle" x="475.98" y="-7.5" font-family="Helvetica,sans-Serif" font-size="10.00">src/Interface.cpp</text>
</a>
</g>
</g>
<!-- Node11&#45;&gt;Node12 -->
<g id="edge9" class="edge"><title>Node11&#45;&gt;Node12</title>
<path fill="none" stroke="midnightblue" d="M470.13,-46.1005C471.625,-37.1357 473.337,-26.8579 474.522,-19.7511"/>
<polygon fill="midnightblue" stroke="midnightblue" points="466.658,-45.6436 468.467,-56.083 473.563,-46.7945 466.658,-45.6436"/>
</g>
<!-- Node13&#45;&gt;Node7 -->
<g id="edge13" class="edge"><title>Node13&#45;&gt;Node7</title>
<path fill="none" stroke="midnightblue" d="M367.676,-102.348C369.867,-78.2538 373.589,-37.3079 375.199,-19.5914"/>
<polygon fill="midnightblue" stroke="midnightblue" points="364.185,-102.093 366.765,-112.368 371.156,-102.726 364.185,-102.093"/>
</g>
<!-- Node13&#45;&gt;Node8 -->
<g id="edge14" class="edge"><title>Node13&#45;&gt;Node8</title>
<path fill="none" stroke="midnightblue" d="M330.461,-109.304C299.559,-99.1294 255.507,-84.6246 227.845,-75.5164"/>
<polygon fill="midnightblue" stroke="midnightblue" points="329.401,-112.64 339.994,-112.444 331.59,-105.992 329.401,-112.64"/>
</g>
<!-- Node13&#45;&gt;Node11 -->
<g id="edge15" class="edge"><title>Node13&#45;&gt;Node11</title>
<path fill="none" stroke="midnightblue" d="M391.063,-107.59C409.737,-97.6052 434.684,-84.2672 450.793,-75.6545"/>
<polygon fill="midnightblue" stroke="midnightblue" points="389.376,-104.522 382.208,-112.324 392.677,-110.696 389.376,-104.522"/>
</g>
<!-- Node14 -->
<g id="node10" class="node"><title>Node14</title>
<g id="a_node10"><a xlink:href="../../de/de6/_employee_8cpp.html" target="_top" xlink:title=" ">
<polygon fill="white" stroke="black" points="261.48,-56.5 261.48,-75.5 356.48,-75.5 356.48,-56.5 261.48,-56.5"/>
<text text-anchor="middle" x="308.98" y="-63.5" font-family="Helvetica,sans-Serif" font-size="10.00">src/Employee.cpp</text>
</a>
</g>
</g>
<!-- Node13&#45;&gt;Node14 -->
<g id="edge12" class="edge"><title>Node13&#45;&gt;Node14</title>
<path fill="none" stroke="midnightblue" d="M349.359,-105.253C339.246,-95.6731 326.704,-83.7906 318.305,-75.8339"/>
<polygon fill="midnightblue" stroke="midnightblue" points="347.156,-107.987 356.822,-112.324 351.97,-102.906 347.156,-107.987"/>
</g>
<!-- Node15&#45;&gt;Node6 -->
<g id="edge18" class="edge"><title>Node15&#45;&gt;Node6</title>
<path fill="none" stroke="midnightblue" d="M588.98,-101.805C588.98,-92.9102 588.98,-82.7798 588.98,-75.7511"/>
<polygon fill="midnightblue" stroke="midnightblue" points="585.481,-102.083 588.98,-112.083 592.481,-102.083 585.481,-102.083"/>
</g>
<!-- Node15&#45;&gt;Node7 -->
<g id="edge19" class="edge"><title>Node15&#45;&gt;Node7</title>
<path fill="none" stroke="midnightblue" d="M616.223,-107.445C638.707,-94.4857 664.582,-74.2711 648.98,-56 615.814,-17.159 472.273,-28.9049 421.98,-20 418.936,-19.4609 415.781,-18.8835 412.617,-18.2911"/>
<polygon fill="midnightblue" stroke="midnightblue" points="614.33,-104.491 607.24,-112.364 617.692,-110.631 614.33,-104.491"/>
</g>
<!-- Node15&#45;&gt;Node8 -->
<g id="edge20" class="edge"><title>Node15&#45;&gt;Node8</title>
<path fill="none" stroke="midnightblue" d="M519.62,-112.671C451.394,-104.259 344.334,-90.4702 251.98,-76 249.279,-75.5768 246.499,-75.124 243.699,-74.6552"/>
<polygon fill="midnightblue" stroke="midnightblue" points="519.461,-116.178 529.813,-113.924 520.314,-109.23 519.461,-116.178"/>
</g>
<!-- Node15&#45;&gt;Node11 -->
<g id="edge22" class="edge"><title>Node15&#45;&gt;Node11</title>
<path fill="none" stroke="midnightblue" d="M560.441,-108.368C537.594,-98.2553 506.175,-84.3486 486.221,-75.5164"/>
<polygon fill="midnightblue" stroke="midnightblue" points="559.088,-111.597 569.649,-112.444 561.922,-105.196 559.088,-111.597"/>
</g>
<!-- Node16 -->
<g id="node12" class="node"><title>Node16</title>
<g id="a_node12"><a xlink:href="../../db/d4c/_alocation_8cpp.html" target="_top" xlink:title=" ">
<polygon fill="white" stroke="black" points="695.98,-56.5 695.98,-75.5 787.98,-75.5 787.98,-56.5 695.98,-56.5"/>
<text text-anchor="middle" x="741.98" y="-63.5" font-family="Helvetica,sans-Serif" font-size="10.00">src/Alocation.cpp</text>
</a>
</g>
</g>
<!-- Node15&#45;&gt;Node16 -->
<g id="edge17" class="edge"><title>Node15&#45;&gt;Node16</title>
<path fill="none" stroke="midnightblue" d="M622.869,-109.039C651.658,-98.8786 692.268,-84.5457 717.851,-75.5164"/>
<polygon fill="midnightblue" stroke="midnightblue" points="621.489,-105.815 613.224,-112.444 623.819,-112.416 621.489,-105.815"/>
</g>
<!-- Node17 -->
<g id="node13" class="node"><title>Node17</title>
<g id="a_node13"><a xlink:href="../../d2/d7e/_vehicles_8cpp.html" target="_top" xlink:title=" ">
<polygon fill="white" stroke="black" points="806.48,-56.5 806.48,-75.5 895.48,-75.5 895.48,-56.5 806.48,-56.5"/>
<text text-anchor="middle" x="850.98" y="-63.5" font-family="Helvetica,sans-Serif" font-size="10.00">src/Vehicles.cpp</text>
</a>
</g>
</g>
<!-- Node15&#45;&gt;Node17 -->
<g id="edge21" class="edge"><title>Node15&#45;&gt;Node17</title>
<path fill="none" stroke="midnightblue" d="M640.364,-110.41C689.879,-100.204 763.843,-84.9597 809.66,-75.5164"/>
<polygon fill="midnightblue" stroke="midnightblue" points="639.583,-106.997 630.495,-112.444 640.996,-113.853 639.583,-106.997"/>
</g>
</g>
</svg>
