<?xml version="1.0" encoding="UTF-8" standalone="no"?>
<!DOCTYPE svg PUBLIC "-//W3C//DTD SVG 1.1//EN"
 "http://www.w3.org/Graphics/SVG/1.1/DTD/svg11.dtd">
<!-- Generated by graphviz version 2.38.0 (20140413.2041)
 -->
<!-- Title: include/Employee.hpp Pages: 1 -->
<svg width="244pt" height="196pt"
 viewBox="0.00 0.00 243.50 196.00" xmlns="http://www.w3.org/2000/svg" xmlns:xlink="http://www.w3.org/1999/xlink">
<g id="graph0" class="graph" transform="scale(1 1) rotate(0) translate(4 192)">
<title>include/Employee.hpp</title>
<polygon fill="white" stroke="none" points="-4,4 -4,-192 239.5,-192 239.5,4 -4,4"/>
<!-- Node0 -->
<g id="node1" class="node"><title>Node0</title>
<g id="a_node1"><a xlink:title=" ">
<polygon fill="#bfbfbf" stroke="black" points="46,-168.5 46,-187.5 159,-187.5 159,-168.5 46,-168.5"/>
<text text-anchor="middle" x="102.5" y="-175.5" font-family="Helvetica,sans-Serif" font-size="10.00">include/Employee.hpp</text>
</a>
</g>
</g>
<!-- Node1 -->
<g id="node2" class="node"><title>Node1</title>
<g id="a_node2"><a xlink:href="../../db/dad/_person_8hpp.html" target="_top" xlink:title=" ">
<polygon fill="white" stroke="black" points="69.5,-112.5 69.5,-131.5 135.5,-131.5 135.5,-112.5 69.5,-112.5"/>
<text text-anchor="middle" x="102.5" y="-119.5" font-family="Helvetica,sans-Serif" font-size="10.00">Person.hpp</text>
</a>
</g>
</g>
<!-- Node0&#45;&gt;Node1 -->
<g id="edge1" class="edge"><title>Node0&#45;&gt;Node1</title>
<path fill="none" stroke="midnightblue" d="M102.5,-168.083C102.5,-161.006 102.5,-150.861 102.5,-141.986"/>
<polygon fill="midnightblue" stroke="midnightblue" points="106,-141.751 102.5,-131.751 99.0001,-141.751 106,-141.751"/>
</g>
<!-- Node2 -->
<g id="node3" class="node"><title>Node2</title>
<g id="a_node3"><a xlink:title=" ">
<polygon fill="white" stroke="#bfbfbf" points="0,-56.5 0,-75.5 41,-75.5 41,-56.5 0,-56.5"/>
<text text-anchor="middle" x="20.5" y="-63.5" font-family="Helvetica,sans-Serif" font-size="10.00">string</text>
</a>
</g>
</g>
<!-- Node0&#45;&gt;Node2 -->
<g id="edge8" class="edge"><title>Node0&#45;&gt;Node2</title>
<path fill="none" stroke="midnightblue" d="M93.5838,-168.499C84.6803,-159.777 70.8654,-145.599 60.5,-132 48.9784,-116.885 37.8104,-98.3015 30.2168,-84.882"/>
<polygon fill="midnightblue" stroke="midnightblue" points="33.0727,-82.8152 25.1601,-75.7695 26.9519,-86.2117 33.0727,-82.8152"/>
</g>
<!-- Node5 -->
<g id="node6" class="node"><title>Node5</title>
<g id="a_node6"><a xlink:href="../../d2/d0f/members_8hpp.html" target="_top" xlink:title=" ">
<polygon fill="white" stroke="black" points="159.5,-56.5 159.5,-75.5 235.5,-75.5 235.5,-56.5 159.5,-56.5"/>
<text text-anchor="middle" x="197.5" y="-63.5" font-family="Helvetica,sans-Serif" font-size="10.00">members.hpp</text>
</a>
</g>
</g>
<!-- Node0&#45;&gt;Node5 -->
<g id="edge7" class="edge"><title>Node0&#45;&gt;Node5</title>
<path fill="none" stroke="midnightblue" d="M111.046,-168.197C119.662,-159.24 133.258,-144.883 144.5,-132 158.501,-115.955 173.803,-97.0287 184.349,-83.7497"/>
<polygon fill="midnightblue" stroke="midnightblue" points="187.364,-85.58 190.816,-75.5635 181.871,-81.2405 187.364,-85.58"/>
</g>
<!-- Node1&#45;&gt;Node2 -->
<g id="edge2" class="edge"><title>Node1&#45;&gt;Node2</title>
<path fill="none" stroke="midnightblue" d="M89.3253,-112.324C76.6532,-103.979 57.2666,-91.2122 42.2944,-81.3524"/>
<polygon fill="midnightblue" stroke="midnightblue" points="43.9187,-78.2313 33.642,-75.6545 40.0688,-84.0776 43.9187,-78.2313"/>
</g>
<!-- Node3 -->
<g id="node4" class="node"><title>Node3</title>
<g id="a_node4"><a xlink:title=" ">
<polygon fill="white" stroke="#bfbfbf" points="59.5,-56.5 59.5,-75.5 103.5,-75.5 103.5,-56.5 59.5,-56.5"/>
<text text-anchor="middle" x="81.5" y="-63.5" font-family="Helvetica,sans-Serif" font-size="10.00">vector</text>
</a>
</g>
</g>
<!-- Node1&#45;&gt;Node3 -->
<g id="edge3" class="edge"><title>Node1&#45;&gt;Node3</title>
<path fill="none" stroke="midnightblue" d="M99.0323,-112.083C96.1883,-104.77 92.0705,-94.1814 88.5402,-85.1034"/>
<polygon fill="midnightblue" stroke="midnightblue" points="91.7897,-83.8025 84.9032,-75.7511 85.2657,-86.3397 91.7897,-83.8025"/>
</g>
<!-- Node4 -->
<g id="node5" class="node"><title>Node4</title>
<g id="a_node5"><a xlink:title=" ">
<polygon fill="white" stroke="#bfbfbf" points="137.5,-0.5 137.5,-19.5 191.5,-19.5 191.5,-0.5 137.5,-0.5"/>
<text text-anchor="middle" x="164.5" y="-7.5" font-family="Helvetica,sans-Serif" font-size="10.00">iostream</text>
</a>
</g>
</g>
<!-- Node1&#45;&gt;Node4 -->
<g id="edge4" class="edge"><title>Node1&#45;&gt;Node4</title>
<path fill="none" stroke="midnightblue" d="M107.365,-112.368C117.552,-94.2957 141.291,-52.1764 154.745,-28.3074"/>
<polygon fill="midnightblue" stroke="midnightblue" points="157.796,-30.0215 159.658,-19.5914 151.698,-26.5844 157.796,-30.0215"/>
</g>
<!-- Node1&#45;&gt;Node5 -->
<g id="edge5" class="edge"><title>Node1&#45;&gt;Node5</title>
<path fill="none" stroke="midnightblue" d="M117.763,-112.324C132.721,-103.822 155.755,-90.7288 173.227,-80.7975"/>
<polygon fill="midnightblue" stroke="midnightblue" points="175.31,-83.639 182.274,-75.6545 171.851,-77.5534 175.31,-83.639"/>
</g>
<!-- Node5&#45;&gt;Node4 -->
<g id="edge6" class="edge"><title>Node5&#45;&gt;Node4</title>
<path fill="none" stroke="midnightblue" d="M192.051,-56.083C187.486,-48.6127 180.832,-37.7244 175.207,-28.5199"/>
<polygon fill="midnightblue" stroke="midnightblue" points="178.049,-26.4588 169.848,-19.7511 172.076,-30.109 178.049,-26.4588"/>
</g>
</g>
</svg>
