<?xml version="1.0" encoding="UTF-8" standalone="no"?>
<!DOCTYPE svg PUBLIC "-//W3C//DTD SVG 1.1//EN"
 "http://www.w3.org/Graphics/SVG/1.1/DTD/svg11.dtd">
<!-- Generated by graphviz version 2.38.0 (20140413.2041)
 -->
<!-- Title: include/Employee.hpp Pages: 1 -->
<svg width="128pt" height="140pt"
 viewBox="0.00 0.00 127.50 140.00" xmlns="http://www.w3.org/2000/svg" xmlns:xlink="http://www.w3.org/1999/xlink">
<g id="graph0" class="graph" transform="scale(1 1) rotate(0) translate(4 136)">
<title>include/Employee.hpp</title>
<polygon fill="white" stroke="none" points="-4,4 -4,-136 123.5,-136 123.5,4 -4,4"/>
<!-- Node0 -->
<g id="node1" class="node"><title>Node0</title>
<g id="a_node1"><a xlink:title=" ">
<polygon fill="#bfbfbf" stroke="black" points="6.5,-112.5 6.5,-131.5 119.5,-131.5 119.5,-112.5 6.5,-112.5"/>
<text text-anchor="middle" x="63" y="-119.5" font-family="Helvetica,sans-Serif" font-size="10.00">include/Employee.hpp</text>
</a>
</g>
</g>
<!-- Node1 -->
<g id="node2" class="node"><title>Node1</title>
<g id="a_node2"><a xlink:href="../../db/dad/_person_8hpp.html" target="_top" xlink:title=" ">
<polygon fill="white" stroke="black" points="0,-56.5 0,-75.5 66,-75.5 66,-56.5 0,-56.5"/>
<text text-anchor="middle" x="33" y="-63.5" font-family="Helvetica,sans-Serif" font-size="10.00">Person.hpp</text>
</a>
</g>
</g>
<!-- Node0&#45;&gt;Node1 -->
<g id="edge1" class="edge"><title>Node0&#45;&gt;Node1</title>
<path fill="none" stroke="midnightblue" d="M58.0461,-112.083C53.8959,-104.613 47.8469,-93.7244 42.7333,-84.5199"/>
<polygon fill="midnightblue" stroke="midnightblue" points="45.7777,-82.7929 37.8617,-75.7511 39.6586,-86.1924 45.7777,-82.7929"/>
</g>
<!-- Node2 -->
<g id="node3" class="node"><title>Node2</title>
<g id="a_node3"><a xlink:title=" ">
<polygon fill="white" stroke="#bfbfbf" points="42.5,-0.5 42.5,-19.5 83.5,-19.5 83.5,-0.5 42.5,-0.5"/>
<text text-anchor="middle" x="63" y="-7.5" font-family="Helvetica,sans-Serif" font-size="10.00">string</text>
</a>
</g>
</g>
<!-- Node0&#45;&gt;Node2 -->
<g id="edge3" class="edge"><title>Node0&#45;&gt;Node2</title>
<path fill="none" stroke="midnightblue" d="M66.0877,-112.173C69.0518,-103.198 73.3191,-88.8271 75,-76 77.0735,-60.1773 73.3533,-42.3646 69.522,-29.3928"/>
<polygon fill="midnightblue" stroke="midnightblue" points="72.8196,-28.2153 66.4023,-19.7851 66.1618,-30.3772 72.8196,-28.2153"/>
</g>
<!-- Node1&#45;&gt;Node2 -->
<g id="edge2" class="edge"><title>Node1&#45;&gt;Node2</title>
<path fill="none" stroke="midnightblue" d="M37.9539,-56.083C42.1041,-48.6127 48.1531,-37.7244 53.2667,-28.5199"/>
<polygon fill="midnightblue" stroke="midnightblue" points="56.3414,-30.1924 58.1383,-19.7511 50.2223,-26.7929 56.3414,-30.1924"/>
</g>
</g>
</svg>
