<?xml version="1.0" encoding="UTF-8" standalone="no"?>
<!DOCTYPE svg PUBLIC "-//W3C//DTD SVG 1.1//EN"
 "http://www.w3.org/Graphics/SVG/1.1/DTD/svg11.dtd">
<!-- Generated by graphviz version 2.38.0 (20140413.2041)
 -->
<!-- Title: Employee Pages: 1 -->
<svg width="68pt" height="140pt"
 viewBox="0.00 0.00 68.00 140.00" xmlns="http://www.w3.org/2000/svg" xmlns:xlink="http://www.w3.org/1999/xlink">
<g id="graph0" class="graph" transform="scale(1 1) rotate(0) translate(4 136)">
<title>Employee</title>
<polygon fill="white" stroke="none" points="-4,4 -4,-136 64,-136 64,4 -4,4"/>
<!-- Node3 -->
<g id="node1" class="node"><title>Node3</title>
<g id="a_node1"><a xlink:title=" ">
<polygon fill="#bfbfbf" stroke="black" points="-3.55271e-15,-0.5 -3.55271e-15,-19.5 60,-19.5 60,-0.5 -3.55271e-15,-0.5"/>
<text text-anchor="middle" x="30" y="-7.5" font-family="Helvetica,sans-Serif" font-size="10.00">Employee</text>
</a>
</g>
</g>
<!-- Node4 -->
<g id="node2" class="node"><title>Node4</title>
<g id="a_node2"><a xlink:href="../../d5/d4a/class_person.html" target="_top" xlink:title=" ">
<polygon fill="white" stroke="black" points="6.5,-56.5 6.5,-75.5 53.5,-75.5 53.5,-56.5 6.5,-56.5"/>
<text text-anchor="middle" x="30" y="-63.5" font-family="Helvetica,sans-Serif" font-size="10.00">Person</text>
</a>
</g>
</g>
<!-- Node4&#45;&gt;Node3 -->
<g id="edge1" class="edge"><title>Node4&#45;&gt;Node3</title>
<path fill="none" stroke="midnightblue" d="M30,-45.8045C30,-36.9102 30,-26.7798 30,-19.7511"/>
<polygon fill="midnightblue" stroke="midnightblue" points="26.5001,-46.083 30,-56.083 33.5001,-46.083 26.5001,-46.083"/>
</g>
<!-- Node5 -->
<g id="node3" class="node"><title>Node5</title>
<g id="a_node3"><a xlink:href="../../df/dfc/class_members.html" target="_top" xlink:title=" ">
<polygon fill="white" stroke="black" points="1.5,-112.5 1.5,-131.5 58.5,-131.5 58.5,-112.5 1.5,-112.5"/>
<text text-anchor="middle" x="30" y="-119.5" font-family="Helvetica,sans-Serif" font-size="10.00">Members</text>
</a>
</g>
</g>
<!-- Node5&#45;&gt;Node4 -->
<g id="edge2" class="edge"><title>Node5&#45;&gt;Node4</title>
<path fill="none" stroke="midnightblue" d="M30,-101.805C30,-92.9102 30,-82.7798 30,-75.7511"/>
<polygon fill="midnightblue" stroke="midnightblue" points="26.5001,-102.083 30,-112.083 33.5001,-102.083 26.5001,-102.083"/>
</g>
</g>
</svg>
