<?xml version="1.0" encoding="UTF-8" standalone="no"?>
<!DOCTYPE svg PUBLIC "-//W3C//DTD SVG 1.1//EN"
 "http://www.w3.org/Graphics/SVG/1.1/DTD/svg11.dtd">
<!-- Generated by graphviz version 2.38.0 (20140413.2041)
 -->
<!-- Title: src/Alocation.cpp Pages: 1 -->
<svg width="449pt" height="252pt"
 viewBox="0.00 0.00 448.62 252.00" xmlns="http://www.w3.org/2000/svg" xmlns:xlink="http://www.w3.org/1999/xlink">
<g id="graph0" class="graph" transform="scale(1 1) rotate(0) translate(4 248)">
<title>src/Alocation.cpp</title>
<polygon fill="white" stroke="none" points="-4,4 -4,-248 444.619,-248 444.619,4 -4,4"/>
<!-- Node0 -->
<g id="node1" class="node"><title>Node0</title>
<g id="a_node1"><a xlink:title=" ">
<polygon fill="#bfbfbf" stroke="black" points="69.5,-224.5 69.5,-243.5 161.5,-243.5 161.5,-224.5 69.5,-224.5"/>
<text text-anchor="middle" x="115.5" y="-231.5" font-family="Helvetica,sans-Serif" font-size="10.00">src/Alocation.cpp</text>
</a>
</g>
</g>
<!-- Node1 -->
<g id="node2" class="node"><title>Node1</title>
<g id="a_node2"><a xlink:href="../../dc/de3/_alocation_8hpp.html" target="_top" xlink:title=" ">
<polygon fill="white" stroke="black" points="11.5,-112.5 11.5,-131.5 87.5,-131.5 87.5,-112.5 11.5,-112.5"/>
<text text-anchor="middle" x="49.5" y="-119.5" font-family="Helvetica,sans-Serif" font-size="10.00">Alocation.hpp</text>
</a>
</g>
</g>
<!-- Node0&#45;&gt;Node1 -->
<g id="edge1" class="edge"><title>Node0&#45;&gt;Node1</title>
<path fill="none" stroke="midnightblue" d="M103.676,-224.258C93.2826,-215.991 78.4552,-202.691 69.5,-188 60.7618,-173.666 55.5605,-155.202 52.6629,-141.619"/>
<polygon fill="midnightblue" stroke="midnightblue" points="56.0549,-140.722 50.7436,-131.554 49.1788,-142.033 56.0549,-140.722"/>
</g>
<!-- Node6 -->
<g id="node7" class="node"><title>Node6</title>
<g id="a_node7"><a xlink:href="../../d4/d2b/_vehicles_8hpp.html" target="_top" xlink:title=" ">
<polygon fill="white" stroke="black" points="79,-168.5 79,-187.5 152,-187.5 152,-168.5 79,-168.5"/>
<text text-anchor="middle" x="115.5" y="-175.5" font-family="Helvetica,sans-Serif" font-size="10.00">Vehicles.hpp</text>
</a>
</g>
</g>
<!-- Node0&#45;&gt;Node6 -->
<g id="edge6" class="edge"><title>Node0&#45;&gt;Node6</title>
<path fill="none" stroke="midnightblue" d="M115.5,-224.083C115.5,-217.006 115.5,-206.861 115.5,-197.986"/>
<polygon fill="midnightblue" stroke="midnightblue" points="119,-197.751 115.5,-187.751 112,-197.751 119,-197.751"/>
</g>
<!-- Node7 -->
<g id="node8" class="node"><title>Node7</title>
<g id="a_node8"><a xlink:href="../../de/d24/_exceptions_8hpp.html" target="_top" xlink:title=" ">
<polygon fill="white" stroke="black" points="239.5,-168.5 239.5,-187.5 323.5,-187.5 323.5,-168.5 239.5,-168.5"/>
<text text-anchor="middle" x="281.5" y="-175.5" font-family="Helvetica,sans-Serif" font-size="10.00">Exceptions.hpp</text>
</a>
</g>
</g>
<!-- Node0&#45;&gt;Node7 -->
<g id="edge10" class="edge"><title>Node0&#45;&gt;Node7</title>
<path fill="none" stroke="midnightblue" d="M141.803,-224.444C169.851,-215.32 214.444,-200.813 245.684,-190.651"/>
<polygon fill="midnightblue" stroke="midnightblue" points="246.893,-193.938 255.32,-187.516 244.728,-187.282 246.893,-193.938"/>
</g>
<!-- Node2 -->
<g id="node3" class="node"><title>Node2</title>
<g id="a_node3"><a xlink:title=" ">
<polygon fill="white" stroke="#bfbfbf" points="320.5,-0.5 320.5,-19.5 374.5,-19.5 374.5,-0.5 320.5,-0.5"/>
<text text-anchor="middle" x="347.5" y="-7.5" font-family="Helvetica,sans-Serif" font-size="10.00">iostream</text>
</a>
</g>
</g>
<!-- Node1&#45;&gt;Node2 -->
<g id="edge2" class="edge"><title>Node1&#45;&gt;Node2</title>
<path fill="none" stroke="midnightblue" d="M52.1254,-112.184C56.8731,-97.8848 68.3142,-69.8455 88.5,-56 123.9,-31.7188 247.129,-18.8238 309.992,-13.6924"/>
<polygon fill="midnightblue" stroke="midnightblue" points="310.574,-17.1573 320.267,-12.8791 310.022,-10.1791 310.574,-17.1573"/>
</g>
<!-- Node3 -->
<g id="node4" class="node"><title>Node3</title>
<g id="a_node4"><a xlink:title=" ">
<polygon fill="white" stroke="#bfbfbf" points="97.5,-56.5 97.5,-75.5 141.5,-75.5 141.5,-56.5 97.5,-56.5"/>
<text text-anchor="middle" x="119.5" y="-63.5" font-family="Helvetica,sans-Serif" font-size="10.00">vector</text>
</a>
</g>
</g>
<!-- Node1&#45;&gt;Node3 -->
<g id="edge3" class="edge"><title>Node1&#45;&gt;Node3</title>
<path fill="none" stroke="midnightblue" d="M60.7467,-112.324C71.2974,-104.185 87.3007,-91.8395 99.9422,-82.0874"/>
<polygon fill="midnightblue" stroke="midnightblue" points="102.269,-84.7132 108.049,-75.8339 97.993,-79.1707 102.269,-84.7132"/>
</g>
<!-- Node4 -->
<g id="node5" class="node"><title>Node4</title>
<g id="a_node5"><a xlink:title=" ">
<polygon fill="white" stroke="#bfbfbf" points="167,-56.5 167,-75.5 208,-75.5 208,-56.5 167,-56.5"/>
<text text-anchor="middle" x="187.5" y="-63.5" font-family="Helvetica,sans-Serif" font-size="10.00">string</text>
</a>
</g>
</g>
<!-- Node1&#45;&gt;Node4 -->
<g id="edge4" class="edge"><title>Node1&#45;&gt;Node4</title>
<path fill="none" stroke="midnightblue" d="M71.3665,-112.444C94.549,-103.372 131.329,-88.98 157.276,-78.8268"/>
<polygon fill="midnightblue" stroke="midnightblue" points="158.602,-82.0664 166.639,-75.1629 156.051,-75.5477 158.602,-82.0664"/>
</g>
<!-- Node5 -->
<g id="node6" class="node"><title>Node5</title>
<g id="a_node6"><a xlink:title=" ">
<polygon fill="white" stroke="#bfbfbf" points="0,-56.5 0,-75.5 41,-75.5 41,-56.5 0,-56.5"/>
<text text-anchor="middle" x="20.5" y="-63.5" font-family="Helvetica,sans-Serif" font-size="10.00">ctime</text>
</a>
</g>
</g>
<!-- Node1&#45;&gt;Node5 -->
<g id="edge5" class="edge"><title>Node1&#45;&gt;Node5</title>
<path fill="none" stroke="midnightblue" d="M44.7112,-112.083C40.7416,-104.691 34.9749,-93.9533 30.0652,-84.8111"/>
<polygon fill="midnightblue" stroke="midnightblue" points="33.0145,-82.9051 25.1997,-75.7511 26.8475,-86.217 33.0145,-82.9051"/>
</g>
<!-- Node6&#45;&gt;Node1 -->
<g id="edge7" class="edge"><title>Node6&#45;&gt;Node1</title>
<path fill="none" stroke="midnightblue" d="M104.896,-168.324C95.0438,-160.263 80.1491,-148.077 68.2849,-138.369"/>
<polygon fill="midnightblue" stroke="midnightblue" points="70.2529,-135.457 60.297,-131.834 65.8202,-140.875 70.2529,-135.457"/>
</g>
<!-- Node6&#45;&gt;Node3 -->
<g id="edge9" class="edge"><title>Node6&#45;&gt;Node3</title>
<path fill="none" stroke="midnightblue" d="M115.814,-168.368C116.459,-150.617 117.948,-109.666 118.824,-85.5974"/>
<polygon fill="midnightblue" stroke="midnightblue" points="122.322,-85.712 119.188,-75.5914 115.326,-85.4576 122.322,-85.712"/>
</g>
<!-- Node6&#45;&gt;Node4 -->
<g id="edge8" class="edge"><title>Node6&#45;&gt;Node4</title>
<path fill="none" stroke="midnightblue" d="M121.15,-168.368C133.032,-150.215 160.794,-107.802 176.379,-83.9902"/>
<polygon fill="midnightblue" stroke="midnightblue" points="179.328,-85.8753 181.877,-75.5914 173.471,-82.0416 179.328,-85.8753"/>
</g>
<!-- Node7&#45;&gt;Node2 -->
<g id="edge17" class="edge"><title>Node7&#45;&gt;Node2</title>
<path fill="none" stroke="midnightblue" d="M323.533,-176.248C356.928,-173.18 401.826,-163.026 425.5,-132 445.997,-105.138 444.558,-85.1674 427.5,-56 418.018,-39.7867 400.308,-28.9639 383.958,-22.0047"/>
<polygon fill="midnightblue" stroke="midnightblue" points="385.148,-18.7125 374.56,-18.3422 382.606,-25.2347 385.148,-18.7125"/>
</g>
<!-- Node7&#45;&gt;Node4 -->
<g id="edge19" class="edge"><title>Node7&#45;&gt;Node4</title>
<path fill="none" stroke="midnightblue" d="M260.795,-168.443C245.007,-160.955 223.781,-148.661 210.5,-132 199.785,-118.558 193.853,-99.742 190.711,-85.8117"/>
<polygon fill="midnightblue" stroke="midnightblue" points="194.121,-85.0158 188.75,-75.8833 187.254,-86.372 194.121,-85.0158"/>
</g>
<!-- Node8 -->
<g id="node9" class="node"><title>Node8</title>
<g id="a_node9"><a xlink:href="../../db/dad/_person_8hpp.html" target="_top" xlink:title=" ">
<polygon fill="white" stroke="black" points="350.5,-112.5 350.5,-131.5 416.5,-131.5 416.5,-112.5 350.5,-112.5"/>
<text text-anchor="middle" x="383.5" y="-119.5" font-family="Helvetica,sans-Serif" font-size="10.00">Person.hpp</text>
</a>
</g>
</g>
<!-- Node7&#45;&gt;Node8 -->
<g id="edge11" class="edge"><title>Node7&#45;&gt;Node8</title>
<path fill="none" stroke="midnightblue" d="M297.888,-168.324C314.171,-159.703 339.367,-146.364 358.216,-136.386"/>
<polygon fill="midnightblue" stroke="midnightblue" points="359.952,-139.427 367.153,-131.655 356.677,-133.24 359.952,-139.427"/>
</g>
<!-- Node10 -->
<g id="node11" class="node"><title>Node10</title>
<g id="a_node11"><a xlink:title=" ">
<polygon fill="white" stroke="#bfbfbf" points="220,-112.5 220,-131.5 279,-131.5 279,-112.5 220,-112.5"/>
<text text-anchor="middle" x="249.5" y="-119.5" font-family="Helvetica,sans-Serif" font-size="10.00">exception</text>
</a>
</g>
</g>
<!-- Node7&#45;&gt;Node10 -->
<g id="edge18" class="edge"><title>Node7&#45;&gt;Node10</title>
<path fill="none" stroke="midnightblue" d="M276.216,-168.083C271.789,-160.613 265.337,-149.724 259.882,-140.52"/>
<polygon fill="midnightblue" stroke="midnightblue" points="262.795,-138.57 254.686,-131.751 256.773,-142.138 262.795,-138.57"/>
</g>
<!-- Node11 -->
<g id="node12" class="node"><title>Node11</title>
<g id="a_node12"><a xlink:title=" ">
<polygon fill="white" stroke="#bfbfbf" points="297,-112.5 297,-131.5 332,-131.5 332,-112.5 297,-112.5"/>
<text text-anchor="middle" x="314.5" y="-119.5" font-family="Helvetica,sans-Serif" font-size="10.00">map</text>
</a>
</g>
</g>
<!-- Node7&#45;&gt;Node11 -->
<g id="edge20" class="edge"><title>Node7&#45;&gt;Node11</title>
<path fill="none" stroke="midnightblue" d="M286.949,-168.083C291.514,-160.613 298.168,-149.724 303.793,-140.52"/>
<polygon fill="midnightblue" stroke="midnightblue" points="306.924,-142.109 309.152,-131.751 300.951,-138.459 306.924,-142.109"/>
</g>
<!-- Node8&#45;&gt;Node2 -->
<g id="edge14" class="edge"><title>Node8&#45;&gt;Node2</title>
<path fill="none" stroke="midnightblue" d="M368.548,-112.474C356.568,-104.702 340.627,-92.0025 333.5,-76 326.764,-60.8745 331.971,-42.2927 337.853,-28.8762"/>
<polygon fill="midnightblue" stroke="midnightblue" points="341.058,-30.2885 342.296,-19.7662 334.767,-27.2202 341.058,-30.2885"/>
</g>
<!-- Node8&#45;&gt;Node3 -->
<g id="edge13" class="edge"><title>Node8&#45;&gt;Node3</title>
<path fill="none" stroke="midnightblue" d="M350.174,-113.983C346.906,-113.308 343.639,-112.637 340.5,-112 259.265,-95.5089 238.512,-93.5552 157.5,-76 155.562,-75.58 153.571,-75.1385 151.564,-74.6859"/>
<polygon fill="midnightblue" stroke="midnightblue" points="152.102,-71.2181 141.571,-72.3783 150.527,-78.0386 152.102,-71.2181"/>
</g>
<!-- Node8&#45;&gt;Node4 -->
<g id="edge12" class="edge"><title>Node8&#45;&gt;Node4</title>
<path fill="none" stroke="midnightblue" d="M352.443,-112.444C315.7,-102.32 254.906,-85.5711 218.283,-75.481"/>
<polygon fill="midnightblue" stroke="midnightblue" points="218.761,-71.9823 208.19,-72.7003 216.901,-78.7308 218.761,-71.9823"/>
</g>
<!-- Node9 -->
<g id="node10" class="node"><title>Node9</title>
<g id="a_node10"><a xlink:href="../../d2/d0f/members_8hpp.html" target="_top" xlink:title=" ">
<polygon fill="white" stroke="black" points="342.5,-56.5 342.5,-75.5 418.5,-75.5 418.5,-56.5 342.5,-56.5"/>
<text text-anchor="middle" x="380.5" y="-63.5" font-family="Helvetica,sans-Serif" font-size="10.00">members.hpp</text>
</a>
</g>
</g>
<!-- Node8&#45;&gt;Node9 -->
<g id="edge15" class="edge"><title>Node8&#45;&gt;Node9</title>
<path fill="none" stroke="midnightblue" d="M383.005,-112.083C382.611,-105.006 382.048,-94.8611 381.555,-85.9865"/>
<polygon fill="midnightblue" stroke="midnightblue" points="385.036,-85.5415 380.986,-75.7511 378.046,-85.9299 385.036,-85.5415"/>
</g>
<!-- Node9&#45;&gt;Node2 -->
<g id="edge16" class="edge"><title>Node9&#45;&gt;Node2</title>
<path fill="none" stroke="midnightblue" d="M375.051,-56.083C370.486,-48.6127 363.832,-37.7244 358.207,-28.5199"/>
<polygon fill="midnightblue" stroke="midnightblue" points="361.049,-26.4588 352.848,-19.7511 355.076,-30.109 361.049,-26.4588"/>
</g>
</g>
</svg>
