<?xml version="1.0" encoding="UTF-8" standalone="no"?>
<!DOCTYPE svg PUBLIC "-//W3C//DTD SVG 1.1//EN"
 "http://www.w3.org/Graphics/SVG/1.1/DTD/svg11.dtd">
<!-- Generated by graphviz version 2.38.0 (20140413.2041)
 -->
<!-- Title: src/Client.cpp Pages: 1 -->
<svg width="273pt" height="252pt"
 viewBox="0.00 0.00 272.50 252.00" xmlns="http://www.w3.org/2000/svg" xmlns:xlink="http://www.w3.org/1999/xlink">
<g id="graph0" class="graph" transform="scale(1 1) rotate(0) translate(4 248)">
<title>src/Client.cpp</title>
<polygon fill="white" stroke="none" points="-4,4 -4,-248 268.5,-248 268.5,4 -4,4"/>
<!-- Node0 -->
<g id="node1" class="node"><title>Node0</title>
<g id="a_node1"><a xlink:title=" ">
<polygon fill="#bfbfbf" stroke="black" points="0,-224.5 0,-243.5 77,-243.5 77,-224.5 0,-224.5"/>
<text text-anchor="middle" x="38.5" y="-231.5" font-family="Helvetica,sans-Serif" font-size="10.00">src/Client.cpp</text>
</a>
</g>
</g>
<!-- Node1 -->
<g id="node2" class="node"><title>Node1</title>
<g id="a_node2"><a xlink:title=" ">
<polygon fill="white" stroke="#bfbfbf" points="71.5,-0.5 71.5,-19.5 125.5,-19.5 125.5,-0.5 71.5,-0.5"/>
<text text-anchor="middle" x="98.5" y="-7.5" font-family="Helvetica,sans-Serif" font-size="10.00">iostream</text>
</a>
</g>
</g>
<!-- Node0&#45;&gt;Node1 -->
<g id="edge1" class="edge"><title>Node0&#45;&gt;Node1</title>
<path fill="none" stroke="midnightblue" d="M34.0912,-224.131C21.2121,-196.857 -13.4249,-112.647 19.5,-56 28.696,-40.1785 45.7656,-29.4579 61.6911,-22.4631"/>
<polygon fill="midnightblue" stroke="midnightblue" points="63.4005,-25.5486 71.3785,-18.577 60.7943,-19.0518 63.4005,-25.5486"/>
</g>
<!-- Node2 -->
<g id="node3" class="node"><title>Node2</title>
<g id="a_node3"><a xlink:title=" ">
<polygon fill="white" stroke="#bfbfbf" points="29,-56.5 29,-75.5 70,-75.5 70,-56.5 29,-56.5"/>
<text text-anchor="middle" x="49.5" y="-63.5" font-family="Helvetica,sans-Serif" font-size="10.00">string</text>
</a>
</g>
</g>
<!-- Node0&#45;&gt;Node2 -->
<g id="edge2" class="edge"><title>Node0&#45;&gt;Node2</title>
<path fill="none" stroke="midnightblue" d="M39.0914,-224.075C40.8229,-197.945 45.9077,-121.211 48.269,-85.577"/>
<polygon fill="midnightblue" stroke="midnightblue" points="51.7633,-85.7777 48.9322,-75.5681 44.7786,-85.3148 51.7633,-85.7777"/>
</g>
<!-- Node3 -->
<g id="node4" class="node"><title>Node3</title>
<g id="a_node4"><a xlink:href="../../d9/dbb/_client_8hpp.html" target="_top" xlink:title=" ">
<polygon fill="white" stroke="black" points="67,-168.5 67,-187.5 128,-187.5 128,-168.5 67,-168.5"/>
<text text-anchor="middle" x="97.5" y="-175.5" font-family="Helvetica,sans-Serif" font-size="10.00">Client.hpp</text>
</a>
</g>
</g>
<!-- Node0&#45;&gt;Node3 -->
<g id="edge3" class="edge"><title>Node0&#45;&gt;Node3</title>
<path fill="none" stroke="midnightblue" d="M47.9794,-224.324C56.7011,-216.341 69.8435,-204.313 80.3978,-194.653"/>
<polygon fill="midnightblue" stroke="midnightblue" points="82.8345,-197.167 87.8481,-187.834 78.1083,-192.004 82.8345,-197.167"/>
</g>
<!-- Node3&#45;&gt;Node2 -->
<g id="edge10" class="edge"><title>Node3&#45;&gt;Node2</title>
<path fill="none" stroke="midnightblue" d="M93.7335,-168.368C85.9173,-150.456 67.7938,-108.923 57.3319,-84.9482"/>
<polygon fill="midnightblue" stroke="midnightblue" points="60.4564,-83.357 53.249,-75.5914 54.0406,-86.1566 60.4564,-83.357"/>
</g>
<!-- Node4 -->
<g id="node5" class="node"><title>Node4</title>
<g id="a_node5"><a xlink:href="../../db/dad/_person_8hpp.html" target="_top" xlink:title=" ">
<polygon fill="white" stroke="black" points="104.5,-112.5 104.5,-131.5 170.5,-131.5 170.5,-112.5 104.5,-112.5"/>
<text text-anchor="middle" x="137.5" y="-119.5" font-family="Helvetica,sans-Serif" font-size="10.00">Person.hpp</text>
</a>
</g>
</g>
<!-- Node3&#45;&gt;Node4 -->
<g id="edge4" class="edge"><title>Node3&#45;&gt;Node4</title>
<path fill="none" stroke="midnightblue" d="M104.105,-168.083C109.755,-160.455 118.045,-149.264 124.951,-139.941"/>
<polygon fill="midnightblue" stroke="midnightblue" points="127.878,-141.87 131.018,-131.751 122.253,-137.703 127.878,-141.87"/>
</g>
<!-- Node4&#45;&gt;Node1 -->
<g id="edge7" class="edge"><title>Node4&#45;&gt;Node1</title>
<path fill="none" stroke="midnightblue" d="M133.158,-112.18C128.843,-103.211 122.207,-88.8435 117.5,-76 111.811,-60.4766 106.638,-42.394 103.132,-29.2481"/>
<polygon fill="midnightblue" stroke="midnightblue" points="106.509,-28.3275 100.604,-19.5311 99.7348,-30.0902 106.509,-28.3275"/>
</g>
<!-- Node4&#45;&gt;Node2 -->
<g id="edge5" class="edge"><title>Node4&#45;&gt;Node2</title>
<path fill="none" stroke="midnightblue" d="M123.361,-112.324C109.634,-103.9 88.5637,-90.9709 72.4357,-81.0741"/>
<polygon fill="midnightblue" stroke="midnightblue" points="73.9574,-77.9016 63.6036,-75.6545 70.2963,-83.8678 73.9574,-77.9016"/>
</g>
<!-- Node5 -->
<g id="node6" class="node"><title>Node5</title>
<g id="a_node6"><a xlink:title=" ">
<polygon fill="white" stroke="#bfbfbf" points="126.5,-56.5 126.5,-75.5 170.5,-75.5 170.5,-56.5 126.5,-56.5"/>
<text text-anchor="middle" x="148.5" y="-63.5" font-family="Helvetica,sans-Serif" font-size="10.00">vector</text>
</a>
</g>
</g>
<!-- Node4&#45;&gt;Node5 -->
<g id="edge6" class="edge"><title>Node4&#45;&gt;Node5</title>
<path fill="none" stroke="midnightblue" d="M139.316,-112.083C140.774,-104.927 142.871,-94.6353 144.693,-85.6911"/>
<polygon fill="midnightblue" stroke="midnightblue" points="148.151,-86.2485 146.717,-75.7511 141.292,-84.8512 148.151,-86.2485"/>
</g>
<!-- Node6 -->
<g id="node7" class="node"><title>Node6</title>
<g id="a_node7"><a xlink:href="../../d2/d0f/members_8hpp.html" target="_top" xlink:title=" ">
<polygon fill="white" stroke="black" points="188.5,-56.5 188.5,-75.5 264.5,-75.5 264.5,-56.5 188.5,-56.5"/>
<text text-anchor="middle" x="226.5" y="-63.5" font-family="Helvetica,sans-Serif" font-size="10.00">members.hpp</text>
</a>
</g>
</g>
<!-- Node4&#45;&gt;Node6 -->
<g id="edge8" class="edge"><title>Node4&#45;&gt;Node6</title>
<path fill="none" stroke="midnightblue" d="M151.799,-112.324C165.683,-103.9 186.992,-90.9709 203.304,-81.0741"/>
<polygon fill="midnightblue" stroke="midnightblue" points="205.502,-83.8341 212.236,-75.6545 201.871,-77.8495 205.502,-83.8341"/>
</g>
<!-- Node6&#45;&gt;Node1 -->
<g id="edge9" class="edge"><title>Node6&#45;&gt;Node1</title>
<path fill="none" stroke="midnightblue" d="M206.218,-56.4435C185.153,-47.5566 151.983,-33.5632 128.014,-23.4514"/>
<polygon fill="midnightblue" stroke="midnightblue" points="129.261,-20.1787 118.687,-19.5164 126.54,-26.6283 129.261,-20.1787"/>
</g>
</g>
</svg>
