<?xml version="1.0" encoding="UTF-8" standalone="no"?>
<!DOCTYPE svg PUBLIC "-//W3C//DTD SVG 1.1//EN"
 "http://www.w3.org/Graphics/SVG/1.1/DTD/svg11.dtd">
<!-- Generated by graphviz version 2.38.0 (20140413.2041)
 -->
<!-- Title: include/Vehicles.hpp Pages: 1 -->
<svg width="243pt" height="140pt"
 viewBox="0.00 0.00 242.50 140.00" xmlns="http://www.w3.org/2000/svg" xmlns:xlink="http://www.w3.org/1999/xlink">
<g id="graph0" class="graph" transform="scale(1 1) rotate(0) translate(4 136)">
<title>include/Vehicles.hpp</title>
<polygon fill="white" stroke="none" points="-4,4 -4,-136 238.5,-136 238.5,4 -4,4"/>
<!-- Node0 -->
<g id="node1" class="node"><title>Node0</title>
<g id="a_node1"><a xlink:title=" ">
<polygon fill="#bfbfbf" stroke="black" points="50.5,-112.5 50.5,-131.5 157.5,-131.5 157.5,-112.5 50.5,-112.5"/>
<text text-anchor="middle" x="104" y="-119.5" font-family="Helvetica,sans-Serif" font-size="10.00">include/Vehicles.hpp</text>
</a>
</g>
</g>
<!-- Node1 -->
<g id="node2" class="node"><title>Node1</title>
<g id="a_node2"><a xlink:href="../../dc/de3/_alocation_8hpp.html" target="_top" xlink:title=" ">
<polygon fill="white" stroke="black" points="66,-56.5 66,-75.5 142,-75.5 142,-56.5 66,-56.5"/>
<text text-anchor="middle" x="104" y="-63.5" font-family="Helvetica,sans-Serif" font-size="10.00">Alocation.hpp</text>
</a>
</g>
</g>
<!-- Node0&#45;&gt;Node1 -->
<g id="edge1" class="edge"><title>Node0&#45;&gt;Node1</title>
<path fill="none" stroke="midnightblue" d="M104,-112.083C104,-105.006 104,-94.8611 104,-85.9865"/>
<polygon fill="midnightblue" stroke="midnightblue" points="107.5,-85.751 104,-75.7511 100.5,-85.7511 107.5,-85.751"/>
</g>
<!-- Node3 -->
<g id="node4" class="node"><title>Node3</title>
<g id="a_node4"><a xlink:title=" ">
<polygon fill="white" stroke="#bfbfbf" points="0,-0.5 0,-19.5 44,-19.5 44,-0.5 0,-0.5"/>
<text text-anchor="middle" x="22" y="-7.5" font-family="Helvetica,sans-Serif" font-size="10.00">vector</text>
</a>
</g>
</g>
<!-- Node0&#45;&gt;Node3 -->
<g id="edge7" class="edge"><title>Node0&#45;&gt;Node3</title>
<path fill="none" stroke="midnightblue" d="M92.9735,-112.185C82.7909,-103.666 67.6727,-90.0236 57,-76 45.7427,-61.2083 36.0072,-42.3144 29.6822,-28.7138"/>
<polygon fill="midnightblue" stroke="midnightblue" points="32.8334,-27.1871 25.5416,-19.5007 26.4486,-30.0567 32.8334,-27.1871"/>
</g>
<!-- Node4 -->
<g id="node5" class="node"><title>Node4</title>
<g id="a_node5"><a xlink:title=" ">
<polygon fill="white" stroke="#bfbfbf" points="193.5,-0.5 193.5,-19.5 234.5,-19.5 234.5,-0.5 193.5,-0.5"/>
<text text-anchor="middle" x="214" y="-7.5" font-family="Helvetica,sans-Serif" font-size="10.00">string</text>
</a>
</g>
</g>
<!-- Node0&#45;&gt;Node4 -->
<g id="edge6" class="edge"><title>Node0&#45;&gt;Node4</title>
<path fill="none" stroke="midnightblue" d="M113.107,-112.472C122.647,-103.494 138.02,-88.901 151,-76 167.615,-59.4862 186.241,-40.1656 198.903,-26.9059"/>
<polygon fill="midnightblue" stroke="midnightblue" points="201.582,-29.1674 205.944,-19.5123 196.513,-24.3398 201.582,-29.1674"/>
</g>
<!-- Node2 -->
<g id="node3" class="node"><title>Node2</title>
<g id="a_node3"><a xlink:title=" ">
<polygon fill="white" stroke="#bfbfbf" points="62,-0.5 62,-19.5 116,-19.5 116,-0.5 62,-0.5"/>
<text text-anchor="middle" x="89" y="-7.5" font-family="Helvetica,sans-Serif" font-size="10.00">iostream</text>
</a>
</g>
</g>
<!-- Node1&#45;&gt;Node2 -->
<g id="edge2" class="edge"><title>Node1&#45;&gt;Node2</title>
<path fill="none" stroke="midnightblue" d="M101.523,-56.083C99.5135,-48.8486 96.6135,-38.4087 94.1102,-29.3968"/>
<polygon fill="midnightblue" stroke="midnightblue" points="97.4797,-28.4495 91.4309,-19.7511 90.7351,-30.323 97.4797,-28.4495"/>
</g>
<!-- Node1&#45;&gt;Node3 -->
<g id="edge3" class="edge"><title>Node1&#45;&gt;Node3</title>
<path fill="none" stroke="midnightblue" d="M90.8253,-56.324C78.1532,-47.979 58.7666,-35.2122 43.7944,-25.3524"/>
<polygon fill="midnightblue" stroke="midnightblue" points="45.4187,-22.2313 35.142,-19.6545 41.5688,-28.0776 45.4187,-22.2313"/>
</g>
<!-- Node1&#45;&gt;Node4 -->
<g id="edge4" class="edge"><title>Node1&#45;&gt;Node4</title>
<path fill="none" stroke="midnightblue" d="M121.673,-56.324C139.394,-47.6247 166.903,-34.1202 187.288,-24.113"/>
<polygon fill="midnightblue" stroke="midnightblue" points="188.936,-27.2031 196.37,-19.6545 185.851,-20.9195 188.936,-27.2031"/>
</g>
<!-- Node5 -->
<g id="node6" class="node"><title>Node5</title>
<g id="a_node6"><a xlink:title=" ">
<polygon fill="white" stroke="#bfbfbf" points="134.5,-0.5 134.5,-19.5 175.5,-19.5 175.5,-0.5 134.5,-0.5"/>
<text text-anchor="middle" x="155" y="-7.5" font-family="Helvetica,sans-Serif" font-size="10.00">ctime</text>
</a>
</g>
</g>
<!-- Node1&#45;&gt;Node5 -->
<g id="edge5" class="edge"><title>Node1&#45;&gt;Node5</title>
<path fill="none" stroke="midnightblue" d="M112.422,-56.083C119.848,-48.2195 130.852,-36.5688 139.812,-27.0813"/>
<polygon fill="midnightblue" stroke="midnightblue" points="142.413,-29.4244 146.735,-19.7511 137.324,-24.618 142.413,-29.4244"/>
</g>
</g>
</svg>
