<?xml version="1.0" encoding="UTF-8" standalone="no"?>
<!DOCTYPE svg PUBLIC "-//W3C//DTD SVG 1.1//EN"
 "http://www.w3.org/Graphics/SVG/1.1/DTD/svg11.dtd">
<!-- Generated by graphviz version 2.38.0 (20140413.2041)
 -->
<!-- Title: include/Agency.hpp Pages: 1 -->
<svg width="267pt" height="140pt"
 viewBox="0.00 0.00 266.50 140.00" xmlns="http://www.w3.org/2000/svg" xmlns:xlink="http://www.w3.org/1999/xlink">
<g id="graph0" class="graph" transform="scale(1 1) rotate(0) translate(4 136)">
<title>include/Agency.hpp</title>
<polygon fill="white" stroke="none" points="-4,4 -4,-136 262.5,-136 262.5,4 -4,4"/>
<!-- Node4 -->
<g id="node1" class="node"><title>Node4</title>
<g id="a_node1"><a xlink:title=" ">
<polygon fill="#bfbfbf" stroke="black" points="62.5,-112.5 62.5,-131.5 164.5,-131.5 164.5,-112.5 62.5,-112.5"/>
<text text-anchor="middle" x="113.5" y="-119.5" font-family="Helvetica,sans-Serif" font-size="10.00">include/Agency.hpp</text>
</a>
</g>
</g>
<!-- Node5 -->
<g id="node2" class="node"><title>Node5</title>
<g id="a_node2"><a xlink:href="../../dc/da3/_agency_8cpp.html" target="_top" xlink:title=" ">
<polygon fill="white" stroke="black" points="0,-56.5 0,-75.5 85,-75.5 85,-56.5 0,-56.5"/>
<text text-anchor="middle" x="42.5" y="-63.5" font-family="Helvetica,sans-Serif" font-size="10.00">src/Agency.cpp</text>
</a>
</g>
</g>
<!-- Node4&#45;&gt;Node5 -->
<g id="edge1" class="edge"><title>Node4&#45;&gt;Node5</title>
<path fill="none" stroke="midnightblue" d="M93.9103,-106.101C81.1324,-96.3824 64.8873,-84.0269 54.1149,-75.8339"/>
<polygon fill="midnightblue" stroke="midnightblue" points="92.0143,-109.056 102.093,-112.324 96.2519,-103.484 92.0143,-109.056"/>
</g>
<!-- Node6 -->
<g id="node3" class="node"><title>Node6</title>
<g id="a_node3"><a xlink:href="../../d5/d12/_main_8cpp.html" target="_top" xlink:title=" ">
<polygon fill="white" stroke="black" points="77,-0.5 77,-19.5 150,-19.5 150,-0.5 77,-0.5"/>
<text text-anchor="middle" x="113.5" y="-7.5" font-family="Helvetica,sans-Serif" font-size="10.00">src/Main.cpp</text>
</a>
</g>
</g>
<!-- Node4&#45;&gt;Node6 -->
<g id="edge2" class="edge"><title>Node4&#45;&gt;Node6</title>
<path fill="none" stroke="midnightblue" d="M113.5,-102.348C113.5,-78.2538 113.5,-37.3079 113.5,-19.5914"/>
<polygon fill="midnightblue" stroke="midnightblue" points="110,-102.368 113.5,-112.368 117,-102.369 110,-102.368"/>
</g>
<!-- Node7 -->
<g id="node4" class="node"><title>Node7</title>
<g id="a_node4"><a xlink:href="../../dc/dba/_interface_8hpp.html" target="_top" xlink:title=" ">
<polygon fill="white" stroke="black" points="142,-56.5 142,-75.5 249,-75.5 249,-56.5 142,-56.5"/>
<text text-anchor="middle" x="195.5" y="-63.5" font-family="Helvetica,sans-Serif" font-size="10.00">include/Interface.hpp</text>
</a>
</g>
</g>
<!-- Node4&#45;&gt;Node7 -->
<g id="edge3" class="edge"><title>Node4&#45;&gt;Node7</title>
<path fill="none" stroke="midnightblue" d="M135.333,-106.622C150.313,-96.7574 169.697,-83.9919 182.358,-75.6545"/>
<polygon fill="midnightblue" stroke="midnightblue" points="133.101,-103.901 126.675,-112.324 136.951,-109.747 133.101,-103.901"/>
</g>
<!-- Node7&#45;&gt;Node6 -->
<g id="edge5" class="edge"><title>Node7&#45;&gt;Node6</title>
<path fill="none" stroke="midnightblue" d="M173.667,-50.6221C158.687,-40.7574 139.303,-27.9919 126.642,-19.6545"/>
<polygon fill="midnightblue" stroke="midnightblue" points="172.049,-53.7471 182.325,-56.324 175.899,-47.9009 172.049,-53.7471"/>
</g>
<!-- Node8 -->
<g id="node5" class="node"><title>Node8</title>
<g id="a_node5"><a xlink:href="../../d2/d35/_interface_8cpp.html" target="_top" xlink:title=" ">
<polygon fill="white" stroke="black" points="168.5,-0.5 168.5,-19.5 258.5,-19.5 258.5,-0.5 168.5,-0.5"/>
<text text-anchor="middle" x="213.5" y="-7.5" font-family="Helvetica,sans-Serif" font-size="10.00">src/Interface.cpp</text>
</a>
</g>
</g>
<!-- Node7&#45;&gt;Node8 -->
<g id="edge4" class="edge"><title>Node7&#45;&gt;Node8</title>
<path fill="none" stroke="midnightblue" d="M201.701,-46.3956C204.713,-37.362 208.188,-26.936 210.583,-19.7511"/>
<polygon fill="midnightblue" stroke="midnightblue" points="198.314,-45.4893 198.472,-56.083 204.955,-47.703 198.314,-45.4893"/>
</g>
</g>
</svg>
