<?xml version="1.0" encoding="UTF-8" standalone="no"?>
<!DOCTYPE svg PUBLIC "-//W3C//DTD SVG 1.1//EN"
 "http://www.w3.org/Graphics/SVG/1.1/DTD/svg11.dtd">
<!-- Generated by graphviz version 2.38.0 (20140413.2041)
 -->
<!-- Title: src/Employee.cpp Pages: 1 -->
<svg width="222pt" height="196pt"
 viewBox="0.00 0.00 222.00 196.00" xmlns="http://www.w3.org/2000/svg" xmlns:xlink="http://www.w3.org/1999/xlink">
<g id="graph0" class="graph" transform="scale(1 1) rotate(0) translate(4 192)">
<title>src/Employee.cpp</title>
<polygon fill="white" stroke="none" points="-4,4 -4,-192 218,-192 218,4 -4,4"/>
<!-- Node0 -->
<g id="node1" class="node"><title>Node0</title>
<g id="a_node1"><a xlink:title=" ">
<polygon fill="#bfbfbf" stroke="black" points="34.5,-168.5 34.5,-187.5 129.5,-187.5 129.5,-168.5 34.5,-168.5"/>
<text text-anchor="middle" x="82" y="-175.5" font-family="Helvetica,sans-Serif" font-size="10.00">src/Employee.cpp</text>
</a>
</g>
</g>
<!-- Node1 -->
<g id="node2" class="node"><title>Node1</title>
<g id="a_node2"><a xlink:title=" ">
<polygon fill="white" stroke="#bfbfbf" points="0,-112.5 0,-131.5 54,-131.5 54,-112.5 0,-112.5"/>
<text text-anchor="middle" x="27" y="-119.5" font-family="Helvetica,sans-Serif" font-size="10.00">iostream</text>
</a>
</g>
</g>
<!-- Node0&#45;&gt;Node1 -->
<g id="edge1" class="edge"><title>Node0&#45;&gt;Node1</title>
<path fill="none" stroke="midnightblue" d="M72.9179,-168.083C64.8287,-160.141 52.8046,-148.335 43.0898,-138.797"/>
<polygon fill="midnightblue" stroke="midnightblue" points="45.5009,-136.26 35.9131,-131.751 40.5967,-141.254 45.5009,-136.26"/>
</g>
<!-- Node2 -->
<g id="node3" class="node"><title>Node2</title>
<g id="a_node3"><a xlink:title=" ">
<polygon fill="white" stroke="#bfbfbf" points="99.5,-0.5 99.5,-19.5 140.5,-19.5 140.5,-0.5 99.5,-0.5"/>
<text text-anchor="middle" x="120" y="-7.5" font-family="Helvetica,sans-Serif" font-size="10.00">string</text>
</a>
</g>
</g>
<!-- Node0&#45;&gt;Node2 -->
<g id="edge2" class="edge"><title>Node0&#45;&gt;Node2</title>
<path fill="none" stroke="midnightblue" d="M84.043,-168.075C90.0246,-141.945 107.59,-65.2106 115.747,-29.577"/>
<polygon fill="midnightblue" stroke="midnightblue" points="119.219,-30.097 118.039,-19.5681 112.395,-28.5349 119.219,-30.097"/>
</g>
<!-- Node3 -->
<g id="node4" class="node"><title>Node3</title>
<g id="a_node4"><a xlink:href="../../d3/dba/_employee_8hpp.html" target="_top" xlink:title=" ">
<polygon fill="white" stroke="black" points="110.5,-112.5 110.5,-131.5 189.5,-131.5 189.5,-112.5 110.5,-112.5"/>
<text text-anchor="middle" x="150" y="-119.5" font-family="Helvetica,sans-Serif" font-size="10.00">Employee.hpp</text>
</a>
</g>
</g>
<!-- Node0&#45;&gt;Node3 -->
<g id="edge3" class="edge"><title>Node0&#45;&gt;Node3</title>
<path fill="none" stroke="midnightblue" d="M92.9254,-168.324C103.175,-160.185 118.721,-147.839 131.001,-138.087"/>
<polygon fill="midnightblue" stroke="midnightblue" points="133.221,-140.794 138.876,-131.834 128.868,-135.312 133.221,-140.794"/>
</g>
<!-- Node3&#45;&gt;Node2 -->
<g id="edge6" class="edge"><title>Node3&#45;&gt;Node2</title>
<path fill="none" stroke="midnightblue" d="M147.646,-112.368C142.783,-94.5366 131.535,-53.2953 124.983,-29.2717"/>
<polygon fill="midnightblue" stroke="midnightblue" points="128.351,-28.3181 122.343,-19.5914 121.598,-30.16 128.351,-28.3181"/>
</g>
<!-- Node4 -->
<g id="node5" class="node"><title>Node4</title>
<g id="a_node5"><a xlink:href="../../db/dad/_person_8hpp.html" target="_top" xlink:title=" ">
<polygon fill="white" stroke="black" points="148,-56.5 148,-75.5 214,-75.5 214,-56.5 148,-56.5"/>
<text text-anchor="middle" x="181" y="-63.5" font-family="Helvetica,sans-Serif" font-size="10.00">Person.hpp</text>
</a>
</g>
</g>
<!-- Node3&#45;&gt;Node4 -->
<g id="edge4" class="edge"><title>Node3&#45;&gt;Node4</title>
<path fill="none" stroke="midnightblue" d="M155.119,-112.083C159.408,-104.613 165.658,-93.7244 170.942,-84.5199"/>
<polygon fill="midnightblue" stroke="midnightblue" points="174.033,-86.1662 175.976,-75.7511 167.962,-82.6811 174.033,-86.1662"/>
</g>
<!-- Node4&#45;&gt;Node2 -->
<g id="edge5" class="edge"><title>Node4&#45;&gt;Node2</title>
<path fill="none" stroke="midnightblue" d="M171.199,-56.324C162.182,-48.3414 148.594,-36.3128 137.682,-26.6529"/>
<polygon fill="midnightblue" stroke="midnightblue" points="139.787,-23.8416 129.979,-19.8339 135.147,-29.083 139.787,-23.8416"/>
</g>
</g>
</svg>
