<?xml version="1.0" encoding="UTF-8" standalone="no"?>
<!DOCTYPE svg PUBLIC "-//W3C//DTD SVG 1.1//EN"
 "http://www.w3.org/Graphics/SVG/1.1/DTD/svg11.dtd">
<!-- Generated by graphviz version 2.38.0 (20140413.2041)
 -->
<!-- Title: src/Employee.cpp Pages: 1 -->
<svg width="277pt" height="252pt"
 viewBox="0.00 0.00 276.50 252.00" xmlns="http://www.w3.org/2000/svg" xmlns:xlink="http://www.w3.org/1999/xlink">
<g id="graph0" class="graph" transform="scale(1 1) rotate(0) translate(4 248)">
<title>src/Employee.cpp</title>
<polygon fill="white" stroke="none" points="-4,4 -4,-248 272.5,-248 272.5,4 -4,4"/>
<!-- Node0 -->
<g id="node1" class="node"><title>Node0</title>
<g id="a_node1"><a xlink:title=" ">
<polygon fill="#bfbfbf" stroke="black" points="0,-224.5 0,-243.5 95,-243.5 95,-224.5 0,-224.5"/>
<text text-anchor="middle" x="47.5" y="-231.5" font-family="Helvetica,sans-Serif" font-size="10.00">src/Employee.cpp</text>
</a>
</g>
</g>
<!-- Node1 -->
<g id="node2" class="node"><title>Node1</title>
<g id="a_node2"><a xlink:title=" ">
<polygon fill="white" stroke="#bfbfbf" points="75.5,-0.5 75.5,-19.5 129.5,-19.5 129.5,-0.5 75.5,-0.5"/>
<text text-anchor="middle" x="102.5" y="-7.5" font-family="Helvetica,sans-Serif" font-size="10.00">iostream</text>
</a>
</g>
</g>
<!-- Node0&#45;&gt;Node1 -->
<g id="edge1" class="edge"><title>Node0&#45;&gt;Node1</title>
<path fill="none" stroke="midnightblue" d="M42.689,-224.148C28.6027,-196.923 -9.53644,-112.838 23.5,-56 32.696,-40.1785 49.7656,-29.4579 65.6911,-22.4631"/>
<polygon fill="midnightblue" stroke="midnightblue" points="67.4005,-25.5486 75.3785,-18.577 64.7943,-19.0518 67.4005,-25.5486"/>
</g>
<!-- Node2 -->
<g id="node3" class="node"><title>Node2</title>
<g id="a_node3"><a xlink:title=" ">
<polygon fill="white" stroke="#bfbfbf" points="33,-56.5 33,-75.5 74,-75.5 74,-56.5 33,-56.5"/>
<text text-anchor="middle" x="53.5" y="-63.5" font-family="Helvetica,sans-Serif" font-size="10.00">string</text>
</a>
</g>
</g>
<!-- Node0&#45;&gt;Node2 -->
<g id="edge2" class="edge"><title>Node0&#45;&gt;Node2</title>
<path fill="none" stroke="midnightblue" d="M47.8226,-224.075C48.767,-197.945 51.5406,-121.211 52.8285,-85.577"/>
<polygon fill="midnightblue" stroke="midnightblue" points="56.3267,-85.688 53.1903,-75.5681 49.3313,-85.4351 56.3267,-85.688"/>
</g>
<!-- Node3 -->
<g id="node4" class="node"><title>Node3</title>
<g id="a_node4"><a xlink:href="../../d3/dba/_employee_8hpp.html" target="_top" xlink:title=" ">
<polygon fill="white" stroke="black" points="91,-168.5 91,-187.5 170,-187.5 170,-168.5 91,-168.5"/>
<text text-anchor="middle" x="130.5" y="-175.5" font-family="Helvetica,sans-Serif" font-size="10.00">Employee.hpp</text>
</a>
</g>
</g>
<!-- Node0&#45;&gt;Node3 -->
<g id="edge3" class="edge"><title>Node0&#45;&gt;Node3</title>
<path fill="none" stroke="midnightblue" d="M60.8354,-224.324C73.662,-215.979 93.285,-203.212 108.44,-193.352"/>
<polygon fill="midnightblue" stroke="midnightblue" points="110.724,-196.042 117.198,-187.655 106.907,-190.174 110.724,-196.042"/>
</g>
<!-- Node3&#45;&gt;Node2 -->
<g id="edge11" class="edge"><title>Node3&#45;&gt;Node2</title>
<path fill="none" stroke="midnightblue" d="M124.458,-168.368C111.751,-150.215 82.0611,-107.802 65.3931,-83.9902"/>
<polygon fill="midnightblue" stroke="midnightblue" points="68.116,-81.7766 59.514,-75.5914 62.3813,-85.7909 68.116,-81.7766"/>
</g>
<!-- Node4 -->
<g id="node5" class="node"><title>Node4</title>
<g id="a_node5"><a xlink:href="../../db/dad/_person_8hpp.html" target="_top" xlink:title=" ">
<polygon fill="white" stroke="black" points="113.5,-112.5 113.5,-131.5 179.5,-131.5 179.5,-112.5 113.5,-112.5"/>
<text text-anchor="middle" x="146.5" y="-119.5" font-family="Helvetica,sans-Serif" font-size="10.00">Person.hpp</text>
</a>
</g>
</g>
<!-- Node3&#45;&gt;Node4 -->
<g id="edge4" class="edge"><title>Node3&#45;&gt;Node4</title>
<path fill="none" stroke="midnightblue" d="M133.142,-168.083C135.286,-160.849 138.379,-150.409 141.049,-141.397"/>
<polygon fill="midnightblue" stroke="midnightblue" points="144.422,-142.333 143.907,-131.751 137.71,-140.345 144.422,-142.333"/>
</g>
<!-- Node6 -->
<g id="node7" class="node"><title>Node6</title>
<g id="a_node7"><a xlink:href="../../d2/d0f/members_8hpp.html" target="_top" xlink:title=" ">
<polygon fill="white" stroke="black" points="192.5,-56.5 192.5,-75.5 268.5,-75.5 268.5,-56.5 192.5,-56.5"/>
<text text-anchor="middle" x="230.5" y="-63.5" font-family="Helvetica,sans-Serif" font-size="10.00">members.hpp</text>
</a>
</g>
</g>
<!-- Node3&#45;&gt;Node6 -->
<g id="edge10" class="edge"><title>Node3&#45;&gt;Node6</title>
<path fill="none" stroke="midnightblue" d="M143.984,-168.472C156.462,-160.156 175.06,-146.651 188.5,-132 201.801,-117.5 213.629,-98.3173 221.317,-84.5552"/>
<polygon fill="midnightblue" stroke="midnightblue" points="224.462,-86.0972 226.144,-75.6368 218.306,-82.7649 224.462,-86.0972"/>
</g>
<!-- Node4&#45;&gt;Node1 -->
<g id="edge7" class="edge"><title>Node4&#45;&gt;Node1</title>
<path fill="none" stroke="midnightblue" d="M140.915,-112.328C135.4,-103.474 127.012,-89.1943 121.5,-76 115.127,-60.7446 110.022,-42.6357 106.715,-29.4114"/>
<polygon fill="midnightblue" stroke="midnightblue" points="110.104,-28.5325 104.372,-19.6218 103.296,-30.1619 110.104,-28.5325"/>
</g>
<!-- Node4&#45;&gt;Node2 -->
<g id="edge5" class="edge"><title>Node4&#45;&gt;Node2</title>
<path fill="none" stroke="midnightblue" d="M131.558,-112.324C116.915,-103.822 94.3663,-90.7288 77.2623,-80.7975"/>
<polygon fill="midnightblue" stroke="midnightblue" points="78.8104,-77.6491 68.405,-75.6545 75.2954,-83.7027 78.8104,-77.6491"/>
</g>
<!-- Node5 -->
<g id="node6" class="node"><title>Node5</title>
<g id="a_node6"><a xlink:title=" ">
<polygon fill="white" stroke="#bfbfbf" points="130.5,-56.5 130.5,-75.5 174.5,-75.5 174.5,-56.5 130.5,-56.5"/>
<text text-anchor="middle" x="152.5" y="-63.5" font-family="Helvetica,sans-Serif" font-size="10.00">vector</text>
</a>
</g>
</g>
<!-- Node4&#45;&gt;Node5 -->
<g id="edge6" class="edge"><title>Node4&#45;&gt;Node5</title>
<path fill="none" stroke="midnightblue" d="M147.491,-112.083C148.286,-104.927 149.429,-94.6353 150.423,-85.6911"/>
<polygon fill="midnightblue" stroke="midnightblue" points="153.902,-86.0765 151.528,-75.7511 146.945,-85.3034 153.902,-86.0765"/>
</g>
<!-- Node4&#45;&gt;Node6 -->
<g id="edge8" class="edge"><title>Node4&#45;&gt;Node6</title>
<path fill="none" stroke="midnightblue" d="M159.996,-112.324C173.1,-103.9 193.212,-90.9709 208.607,-81.0741"/>
<polygon fill="midnightblue" stroke="midnightblue" points="210.518,-84.0063 217.037,-75.6545 206.733,-78.118 210.518,-84.0063"/>
</g>
<!-- Node6&#45;&gt;Node1 -->
<g id="edge9" class="edge"><title>Node6&#45;&gt;Node1</title>
<path fill="none" stroke="midnightblue" d="M210.218,-56.4435C189.153,-47.5566 155.983,-33.5632 132.014,-23.4514"/>
<polygon fill="midnightblue" stroke="midnightblue" points="133.261,-20.1787 122.687,-19.5164 130.54,-26.6283 133.261,-20.1787"/>
</g>
</g>
</svg>
