<?xml version="1.0" encoding="UTF-8" standalone="no"?>
<!DOCTYPE svg PUBLIC "-//W3C//DTD SVG 1.1//EN"
 "http://www.w3.org/Graphics/SVG/1.1/DTD/svg11.dtd">
<!-- Generated by graphviz version 2.38.0 (20140413.2041)
 -->
<!-- Title: include/Interface.hpp Pages: 1 -->
<svg width="679pt" height="252pt"
 viewBox="0.00 0.00 678.50 252.00" xmlns="http://www.w3.org/2000/svg" xmlns:xlink="http://www.w3.org/1999/xlink">
<g id="graph0" class="graph" transform="scale(1 1) rotate(0) translate(4 248)">
<title>include/Interface.hpp</title>
<polygon fill="white" stroke="none" points="-4,4 -4,-248 674.5,-248 674.5,4 -4,4"/>
<!-- Node0 -->
<g id="node1" class="node"><title>Node0</title>
<g id="a_node1"><a xlink:title=" ">
<polygon fill="#bfbfbf" stroke="black" points="310,-224.5 310,-243.5 417,-243.5 417,-224.5 310,-224.5"/>
<text text-anchor="middle" x="363.5" y="-231.5" font-family="Helvetica,sans-Serif" font-size="10.00">include/Interface.hpp</text>
</a>
</g>
</g>
<!-- Node1 -->
<g id="node2" class="node"><title>Node1</title>
<g id="a_node2"><a xlink:title=" ">
<polygon fill="white" stroke="#bfbfbf" points="97.5,-56.5 97.5,-75.5 141.5,-75.5 141.5,-56.5 97.5,-56.5"/>
<text text-anchor="middle" x="119.5" y="-63.5" font-family="Helvetica,sans-Serif" font-size="10.00">vector</text>
</a>
</g>
</g>
<!-- Node0&#45;&gt;Node1 -->
<g id="edge1" class="edge"><title>Node0&#45;&gt;Node1</title>
<path fill="none" stroke="midnightblue" d="M309.881,-231.208C254.298,-227.721 165.86,-217.547 95.5,-188 56.4849,-171.616 37.7019,-169.708 18.5,-132 2.43842,-100.459 52.0814,-82.1678 87.358,-73.4227"/>
<polygon fill="midnightblue" stroke="midnightblue" points="88.3606,-76.783 97.3077,-71.1084 86.7748,-69.965 88.3606,-76.783"/>
</g>
<!-- Node2 -->
<g id="node3" class="node"><title>Node2</title>
<g id="a_node3"><a xlink:href="../../db/dad/_person_8hpp.html" target="_top" xlink:title=" ">
<polygon fill="white" stroke="black" points="442.5,-112.5 442.5,-131.5 508.5,-131.5 508.5,-112.5 442.5,-112.5"/>
<text text-anchor="middle" x="475.5" y="-119.5" font-family="Helvetica,sans-Serif" font-size="10.00">Person.hpp</text>
</a>
</g>
</g>
<!-- Node0&#45;&gt;Node2 -->
<g id="edge2" class="edge"><title>Node0&#45;&gt;Node2</title>
<path fill="none" stroke="midnightblue" d="M389.95,-224.453C408.471,-217.289 432.646,-205.405 448.5,-188 460.447,-174.884 467.527,-155.738 471.418,-141.621"/>
<polygon fill="midnightblue" stroke="midnightblue" points="474.896,-142.135 473.887,-131.588 468.099,-140.462 474.896,-142.135"/>
</g>
<!-- Node6 -->
<g id="node7" class="node"><title>Node6</title>
<g id="a_node7"><a xlink:href="../../d4/d2b/_vehicles_8hpp.html" target="_top" xlink:title=" ">
<polygon fill="white" stroke="black" points="132,-168.5 132,-187.5 205,-187.5 205,-168.5 132,-168.5"/>
<text text-anchor="middle" x="168.5" y="-175.5" font-family="Helvetica,sans-Serif" font-size="10.00">Vehicles.hpp</text>
</a>
</g>
</g>
<!-- Node0&#45;&gt;Node6 -->
<g id="edge8" class="edge"><title>Node0&#45;&gt;Node6</title>
<path fill="none" stroke="midnightblue" d="M332.602,-224.444C299.226,-215.201 245.906,-200.436 209.151,-190.257"/>
<polygon fill="midnightblue" stroke="midnightblue" points="209.825,-186.812 199.254,-187.516 207.957,-193.558 209.825,-186.812"/>
</g>
<!-- Node7 -->
<g id="node8" class="node"><title>Node7</title>
<g id="a_node8"><a xlink:href="../../dc/de3/_alocation_8hpp.html" target="_top" xlink:title=" ">
<polygon fill="white" stroke="black" points="27.5,-112.5 27.5,-131.5 103.5,-131.5 103.5,-112.5 27.5,-112.5"/>
<text text-anchor="middle" x="65.5" y="-119.5" font-family="Helvetica,sans-Serif" font-size="10.00">Alocation.hpp</text>
</a>
</g>
</g>
<!-- Node0&#45;&gt;Node7 -->
<g id="edge16" class="edge"><title>Node0&#45;&gt;Node7</title>
<path fill="none" stroke="midnightblue" d="M309.791,-232.876C258.548,-230.564 180.752,-221.178 122.5,-188 102.411,-176.558 85.8613,-155.354 75.8643,-140.277"/>
<polygon fill="midnightblue" stroke="midnightblue" points="78.8191,-138.401 70.5135,-131.823 72.9044,-142.144 78.8191,-138.401"/>
</g>
<!-- Node9 -->
<g id="node10" class="node"><title>Node9</title>
<g id="a_node10"><a xlink:href="../../d6/d02/_agency_8hpp.html" target="_top" xlink:title=" ">
<polygon fill="white" stroke="black" points="602.5,-112.5 602.5,-131.5 670.5,-131.5 670.5,-112.5 602.5,-112.5"/>
<text text-anchor="middle" x="636.5" y="-119.5" font-family="Helvetica,sans-Serif" font-size="10.00">Agency.hpp</text>
</a>
</g>
</g>
<!-- Node0&#45;&gt;Node9 -->
<g id="edge17" class="edge"><title>Node0&#45;&gt;Node9</title>
<path fill="none" stroke="midnightblue" d="M417.212,-232.177C464.424,-229.208 533.379,-219.235 584.5,-188 603.316,-176.504 618.175,-155.622 627.109,-140.625"/>
<polygon fill="midnightblue" stroke="midnightblue" points="630.236,-142.207 632.107,-131.778 624.141,-138.764 630.236,-142.207"/>
</g>
<!-- Node10 -->
<g id="node11" class="node"><title>Node10</title>
<g id="a_node11"><a xlink:href="../../d9/dbb/_client_8hpp.html" target="_top" xlink:title=" ">
<polygon fill="white" stroke="black" points="379,-168.5 379,-187.5 440,-187.5 440,-168.5 379,-168.5"/>
<text text-anchor="middle" x="409.5" y="-175.5" font-family="Helvetica,sans-Serif" font-size="10.00">Client.hpp</text>
</a>
</g>
</g>
<!-- Node0&#45;&gt;Node10 -->
<g id="edge21" class="edge"><title>Node0&#45;&gt;Node10</title>
<path fill="none" stroke="midnightblue" d="M371.096,-224.083C377.727,-216.298 387.521,-204.801 395.558,-195.367"/>
<polygon fill="midnightblue" stroke="midnightblue" points="398.225,-197.633 402.045,-187.751 392.896,-193.094 398.225,-197.633"/>
</g>
<!-- Node11 -->
<g id="node12" class="node"><title>Node11</title>
<g id="a_node12"><a xlink:href="../../d3/dba/_employee_8hpp.html" target="_top" xlink:title=" ">
<polygon fill="white" stroke="black" points="497,-168.5 497,-187.5 576,-187.5 576,-168.5 497,-168.5"/>
<text text-anchor="middle" x="536.5" y="-175.5" font-family="Helvetica,sans-Serif" font-size="10.00">Employee.hpp</text>
</a>
</g>
</g>
<!-- Node0&#45;&gt;Node11 -->
<g id="edge24" class="edge"><title>Node0&#45;&gt;Node11</title>
<path fill="none" stroke="midnightblue" d="M390.912,-224.444C420.269,-215.28 467.019,-200.688 499.596,-190.519"/>
<polygon fill="midnightblue" stroke="midnightblue" points="500.713,-193.837 509.216,-187.516 498.627,-187.155 500.713,-193.837"/>
</g>
<!-- Node12 -->
<g id="node13" class="node"><title>Node12</title>
<g id="a_node13"><a xlink:href="../../de/d24/_exceptions_8hpp.html" target="_top" xlink:title=" ">
<polygon fill="white" stroke="black" points="268.5,-168.5 268.5,-187.5 352.5,-187.5 352.5,-168.5 268.5,-168.5"/>
<text text-anchor="middle" x="310.5" y="-175.5" font-family="Helvetica,sans-Serif" font-size="10.00">Exceptions.hpp</text>
</a>
</g>
</g>
<!-- Node0&#45;&gt;Node12 -->
<g id="edge28" class="edge"><title>Node0&#45;&gt;Node12</title>
<path fill="none" stroke="midnightblue" d="M354.748,-224.083C347.03,-216.22 335.595,-204.569 326.283,-195.081"/>
<polygon fill="midnightblue" stroke="midnightblue" points="328.592,-192.436 319.089,-187.751 323.596,-197.34 328.592,-192.436"/>
</g>
<!-- Node2&#45;&gt;Node1 -->
<g id="edge4" class="edge"><title>Node2&#45;&gt;Node1</title>
<path fill="none" stroke="midnightblue" d="M442.328,-115.968C374.168,-105.629 219.122,-82.1112 151.752,-71.8921"/>
<polygon fill="midnightblue" stroke="midnightblue" points="152.131,-68.4097 141.719,-70.3703 151.081,-75.3305 152.131,-68.4097"/>
</g>
<!-- Node3 -->
<g id="node4" class="node"><title>Node3</title>
<g id="a_node4"><a xlink:title=" ">
<polygon fill="white" stroke="#bfbfbf" points="394,-56.5 394,-75.5 435,-75.5 435,-56.5 394,-56.5"/>
<text text-anchor="middle" x="414.5" y="-63.5" font-family="Helvetica,sans-Serif" font-size="10.00">string</text>
</a>
</g>
</g>
<!-- Node2&#45;&gt;Node3 -->
<g id="edge3" class="edge"><title>Node2&#45;&gt;Node3</title>
<path fill="none" stroke="midnightblue" d="M465.699,-112.324C456.682,-104.341 443.094,-92.3128 432.182,-82.6529"/>
<polygon fill="midnightblue" stroke="midnightblue" points="434.287,-79.8416 424.479,-75.8339 429.647,-85.083 434.287,-79.8416"/>
</g>
<!-- Node4 -->
<g id="node5" class="node"><title>Node4</title>
<g id="a_node5"><a xlink:title=" ">
<polygon fill="white" stroke="#bfbfbf" points="448.5,-0.5 448.5,-19.5 502.5,-19.5 502.5,-0.5 448.5,-0.5"/>
<text text-anchor="middle" x="475.5" y="-7.5" font-family="Helvetica,sans-Serif" font-size="10.00">iostream</text>
</a>
</g>
</g>
<!-- Node2&#45;&gt;Node4 -->
<g id="edge5" class="edge"><title>Node2&#45;&gt;Node4</title>
<path fill="none" stroke="midnightblue" d="M475.5,-112.368C475.5,-94.617 475.5,-53.6664 475.5,-29.5974"/>
<polygon fill="midnightblue" stroke="midnightblue" points="479,-29.5914 475.5,-19.5914 472,-29.5915 479,-29.5914"/>
</g>
<!-- Node5 -->
<g id="node6" class="node"><title>Node5</title>
<g id="a_node6"><a xlink:href="../../d2/d0f/members_8hpp.html" target="_top" xlink:title=" ">
<polygon fill="white" stroke="black" points="517.5,-56.5 517.5,-75.5 593.5,-75.5 593.5,-56.5 517.5,-56.5"/>
<text text-anchor="middle" x="555.5" y="-63.5" font-family="Helvetica,sans-Serif" font-size="10.00">members.hpp</text>
</a>
</g>
</g>
<!-- Node2&#45;&gt;Node5 -->
<g id="edge6" class="edge"><title>Node2&#45;&gt;Node5</title>
<path fill="none" stroke="midnightblue" d="M488.353,-112.324C500.716,-103.979 519.63,-91.2122 534.237,-81.3524"/>
<polygon fill="midnightblue" stroke="midnightblue" points="536.348,-84.1503 542.679,-75.6545 532.432,-78.3483 536.348,-84.1503"/>
</g>
<!-- Node5&#45;&gt;Node4 -->
<g id="edge7" class="edge"><title>Node5&#45;&gt;Node4</title>
<path fill="none" stroke="midnightblue" d="M542.647,-56.324C530.284,-47.979 511.37,-35.2122 496.763,-25.3524"/>
<polygon fill="midnightblue" stroke="midnightblue" points="498.568,-22.3483 488.321,-19.6545 494.652,-28.1503 498.568,-22.3483"/>
</g>
<!-- Node6&#45;&gt;Node1 -->
<g id="edge15" class="edge"><title>Node6&#45;&gt;Node1</title>
<path fill="none" stroke="midnightblue" d="M164.655,-168.368C156.676,-150.456 138.175,-108.923 127.495,-84.9482"/>
<polygon fill="midnightblue" stroke="midnightblue" points="130.593,-83.3019 123.327,-75.5914 124.199,-86.1503 130.593,-83.3019"/>
</g>
<!-- Node6&#45;&gt;Node3 -->
<g id="edge14" class="edge"><title>Node6&#45;&gt;Node3</title>
<path fill="none" stroke="midnightblue" d="M178.024,-168.126C193.397,-154.25 225.136,-127.416 256.5,-112 298.421,-91.3957 351.37,-78.737 384.08,-72.2905"/>
<polygon fill="midnightblue" stroke="midnightblue" points="384.779,-75.7203 393.949,-70.4135 383.471,-68.8436 384.779,-75.7203"/>
</g>
<!-- Node6&#45;&gt;Node7 -->
<g id="edge9" class="edge"><title>Node6&#45;&gt;Node7</title>
<path fill="none" stroke="midnightblue" d="M151.951,-168.324C135.508,-159.703 110.065,-146.364 91.0316,-136.386"/>
<polygon fill="midnightblue" stroke="midnightblue" points="92.4895,-133.198 82.0077,-131.655 89.2391,-139.398 92.4895,-133.198"/>
</g>
<!-- Node7&#45;&gt;Node1 -->
<g id="edge11" class="edge"><title>Node7&#45;&gt;Node1</title>
<path fill="none" stroke="midnightblue" d="M74.417,-112.083C82.2805,-104.22 93.9312,-92.5688 103.419,-83.0813"/>
<polygon fill="midnightblue" stroke="midnightblue" points="106.153,-85.2971 110.749,-75.7511 101.203,-80.3473 106.153,-85.2971"/>
</g>
<!-- Node7&#45;&gt;Node3 -->
<g id="edge12" class="edge"><title>Node7&#45;&gt;Node3</title>
<path fill="none" stroke="midnightblue" d="M103.513,-115.118C173.155,-104.343 319.903,-81.6368 383.746,-71.7586"/>
<polygon fill="midnightblue" stroke="midnightblue" points="384.615,-75.1657 393.962,-70.1777 383.545,-68.2481 384.615,-75.1657"/>
</g>
<!-- Node7&#45;&gt;Node4 -->
<g id="edge10" class="edge"><title>Node7&#45;&gt;Node4</title>
<path fill="none" stroke="midnightblue" d="M65.8141,-112.192C66.839,-97.905 71.0931,-69.8825 88.5,-56 141.93,-13.3885 352.136,-10.0094 438.328,-10.4766"/>
<polygon fill="midnightblue" stroke="midnightblue" points="438.419,-13.9773 448.445,-10.5526 438.471,-6.97753 438.419,-13.9773"/>
</g>
<!-- Node8 -->
<g id="node9" class="node"><title>Node8</title>
<g id="a_node9"><a xlink:title=" ">
<polygon fill="white" stroke="#bfbfbf" points="0,-56.5 0,-75.5 41,-75.5 41,-56.5 0,-56.5"/>
<text text-anchor="middle" x="20.5" y="-63.5" font-family="Helvetica,sans-Serif" font-size="10.00">ctime</text>
</a>
</g>
</g>
<!-- Node7&#45;&gt;Node8 -->
<g id="edge13" class="edge"><title>Node7&#45;&gt;Node8</title>
<path fill="none" stroke="midnightblue" d="M58.0692,-112.083C51.6473,-104.377 42.1944,-93.0333 34.3775,-83.6531"/>
<polygon fill="midnightblue" stroke="midnightblue" points="36.8832,-81.1927 27.7926,-75.7511 31.5057,-85.674 36.8832,-81.1927"/>
</g>
<!-- Node9&#45;&gt;Node3 -->
<g id="edge19" class="edge"><title>Node9&#45;&gt;Node3</title>
<path fill="none" stroke="midnightblue" d="M602.299,-112.681C559.243,-102.208 485.95,-84.3796 444.814,-74.3736"/>
<polygon fill="midnightblue" stroke="midnightblue" points="445.63,-70.9703 435.086,-72.0075 443.976,-77.772 445.63,-70.9703"/>
</g>
<!-- Node9&#45;&gt;Node4 -->
<g id="edge18" class="edge"><title>Node9&#45;&gt;Node4</title>
<path fill="none" stroke="midnightblue" d="M634.144,-112.112C630.02,-98.2178 620.199,-71.3576 602.5,-56 577.121,-33.9778 540.236,-22.5012 512.748,-16.6694"/>
<polygon fill="midnightblue" stroke="midnightblue" points="513.204,-13.1922 502.717,-14.7005 511.856,-20.0611 513.204,-13.1922"/>
</g>
<!-- Node9&#45;&gt;Node5 -->
<g id="edge20" class="edge"><title>Node9&#45;&gt;Node5</title>
<path fill="none" stroke="midnightblue" d="M623.486,-112.324C610.968,-103.979 591.818,-91.2122 577.029,-81.3524"/>
<polygon fill="midnightblue" stroke="midnightblue" points="578.744,-78.2894 568.482,-75.6545 574.861,-84.1137 578.744,-78.2894"/>
</g>
<!-- Node10&#45;&gt;Node2 -->
<g id="edge22" class="edge"><title>Node10&#45;&gt;Node2</title>
<path fill="none" stroke="midnightblue" d="M420.104,-168.324C429.956,-160.263 444.851,-148.077 456.715,-138.369"/>
<polygon fill="midnightblue" stroke="midnightblue" points="459.18,-140.875 464.703,-131.834 454.747,-135.457 459.18,-140.875"/>
</g>
<!-- Node10&#45;&gt;Node3 -->
<g id="edge23" class="edge"><title>Node10&#45;&gt;Node3</title>
<path fill="none" stroke="midnightblue" d="M409.892,-168.368C410.699,-150.617 412.561,-109.666 413.655,-85.5974"/>
<polygon fill="midnightblue" stroke="midnightblue" points="417.152,-85.7401 414.109,-75.5914 410.159,-85.4221 417.152,-85.7401"/>
</g>
<!-- Node11&#45;&gt;Node2 -->
<g id="edge25" class="edge"><title>Node11&#45;&gt;Node2</title>
<path fill="none" stroke="midnightblue" d="M526.699,-168.324C517.682,-160.341 504.094,-148.313 493.182,-138.653"/>
<polygon fill="midnightblue" stroke="midnightblue" points="495.287,-135.842 485.479,-131.834 490.647,-141.083 495.287,-135.842"/>
</g>
<!-- Node11&#45;&gt;Node3 -->
<g id="edge27" class="edge"><title>Node11&#45;&gt;Node3</title>
<path fill="none" stroke="midnightblue" d="M536.228,-168.321C535.354,-154.714 531.791,-128.24 517.5,-112 498.831,-90.7843 468.322,-79.1713 445.343,-73.0858"/>
<polygon fill="midnightblue" stroke="midnightblue" points="445.929,-69.6263 435.385,-70.6642 444.275,-76.4281 445.929,-69.6263"/>
</g>
<!-- Node11&#45;&gt;Node5 -->
<g id="edge26" class="edge"><title>Node11&#45;&gt;Node5</title>
<path fill="none" stroke="midnightblue" d="M539.891,-168.186C543.185,-159.221 548.038,-144.857 550.5,-132 553.43,-116.696 554.655,-99.0541 555.161,-86.0146"/>
<polygon fill="midnightblue" stroke="midnightblue" points="558.662,-86.0096 555.446,-75.915 551.665,-85.8124 558.662,-86.0096"/>
</g>
<!-- Node12&#45;&gt;Node2 -->
<g id="edge29" class="edge"><title>Node12&#45;&gt;Node2</title>
<path fill="none" stroke="midnightblue" d="M336.645,-168.444C364.523,-159.32 408.848,-144.813 439.9,-134.651"/>
<polygon fill="midnightblue" stroke="midnightblue" points="441.062,-137.953 449.478,-131.516 438.885,-131.3 441.062,-137.953"/>
</g>
<!-- Node12&#45;&gt;Node3 -->
<g id="edge32" class="edge"><title>Node12&#45;&gt;Node3</title>
<path fill="none" stroke="midnightblue" d="M296.817,-168.494C278.422,-155.989 249.646,-131.965 264.5,-112 291.857,-75.2315 348.221,-67.3734 383.531,-66.2948"/>
<polygon fill="midnightblue" stroke="midnightblue" points="383.808,-69.7914 393.759,-66.1532 383.711,-62.792 383.808,-69.7914"/>
</g>
<!-- Node12&#45;&gt;Node4 -->
<g id="edge30" class="edge"><title>Node12&#45;&gt;Node4</title>
<path fill="none" stroke="midnightblue" d="M294.247,-168.499C273.675,-156.571 242.502,-133.871 256.5,-112 296.726,-49.1504 387.085,-24.8588 438.277,-15.8996"/>
<polygon fill="midnightblue" stroke="midnightblue" points="438.97,-19.3328 448.271,-14.2587 437.836,-12.4253 438.97,-19.3328"/>
</g>
<!-- Node13 -->
<g id="node14" class="node"><title>Node13</title>
<g id="a_node14"><a xlink:title=" ">
<polygon fill="white" stroke="#bfbfbf" points="274,-112.5 274,-131.5 333,-131.5 333,-112.5 274,-112.5"/>
<text text-anchor="middle" x="303.5" y="-119.5" font-family="Helvetica,sans-Serif" font-size="10.00">exception</text>
</a>
</g>
</g>
<!-- Node12&#45;&gt;Node13 -->
<g id="edge31" class="edge"><title>Node12&#45;&gt;Node13</title>
<path fill="none" stroke="midnightblue" d="M309.344,-168.083C308.416,-160.927 307.082,-150.635 305.923,-141.691"/>
<polygon fill="midnightblue" stroke="midnightblue" points="309.391,-141.218 304.634,-131.751 302.449,-142.118 309.391,-141.218"/>
</g>
<!-- Node14 -->
<g id="node15" class="node"><title>Node14</title>
<g id="a_node15"><a xlink:title=" ">
<polygon fill="white" stroke="#bfbfbf" points="351,-112.5 351,-131.5 386,-131.5 386,-112.5 351,-112.5"/>
<text text-anchor="middle" x="368.5" y="-119.5" font-family="Helvetica,sans-Serif" font-size="10.00">map</text>
</a>
</g>
</g>
<!-- Node12&#45;&gt;Node14 -->
<g id="edge33" class="edge"><title>Node12&#45;&gt;Node14</title>
<path fill="none" stroke="midnightblue" d="M319.819,-168.324C328.393,-160.341 341.312,-148.313 351.688,-138.653"/>
<polygon fill="midnightblue" stroke="midnightblue" points="354.078,-141.21 359.012,-131.834 349.308,-136.086 354.078,-141.21"/>
</g>
</g>
</svg>
