<?xml version="1.0" encoding="UTF-8" standalone="no"?>
<!DOCTYPE svg PUBLIC "-//W3C//DTD SVG 1.1//EN"
 "http://www.w3.org/Graphics/SVG/1.1/DTD/svg11.dtd">
<!-- Generated by graphviz version 2.38.0 (20140413.2041)
 -->
<!-- Title: include/Client.hpp Pages: 1 -->
<svg width="244pt" height="196pt"
 viewBox="0.00 0.00 243.50 196.00" xmlns="http://www.w3.org/2000/svg" xmlns:xlink="http://www.w3.org/1999/xlink">
<g id="graph0" class="graph" transform="scale(1 1) rotate(0) translate(4 192)">
<title>include/Client.hpp</title>
<polygon fill="white" stroke="none" points="-4,4 -4,-192 239.5,-192 239.5,4 -4,4"/>
<!-- Node0 -->
<g id="node1" class="node"><title>Node0</title>
<g id="a_node1"><a xlink:title=" ">
<polygon fill="#bfbfbf" stroke="black" points="3,-168.5 3,-187.5 98,-187.5 98,-168.5 3,-168.5"/>
<text text-anchor="middle" x="50.5" y="-175.5" font-family="Helvetica,sans-Serif" font-size="10.00">include/Client.hpp</text>
</a>
</g>
</g>
<!-- Node1 -->
<g id="node2" class="node"><title>Node1</title>
<g id="a_node2"><a xlink:href="../../db/dad/_person_8hpp.html" target="_top" xlink:title=" ">
<polygon fill="white" stroke="black" points="48.5,-112.5 48.5,-131.5 114.5,-131.5 114.5,-112.5 48.5,-112.5"/>
<text text-anchor="middle" x="81.5" y="-119.5" font-family="Helvetica,sans-Serif" font-size="10.00">Person.hpp</text>
</a>
</g>
</g>
<!-- Node0&#45;&gt;Node1 -->
<g id="edge1" class="edge"><title>Node0&#45;&gt;Node1</title>
<path fill="none" stroke="midnightblue" d="M55.619,-168.083C59.9075,-160.613 66.1582,-149.724 71.4423,-140.52"/>
<polygon fill="midnightblue" stroke="midnightblue" points="74.5329,-142.166 76.4762,-131.751 68.4621,-138.681 74.5329,-142.166"/>
</g>
<!-- Node2 -->
<g id="node3" class="node"><title>Node2</title>
<g id="a_node3"><a xlink:title=" ">
<polygon fill="white" stroke="#bfbfbf" points="0,-56.5 0,-75.5 41,-75.5 41,-56.5 0,-56.5"/>
<text text-anchor="middle" x="20.5" y="-63.5" font-family="Helvetica,sans-Serif" font-size="10.00">string</text>
</a>
</g>
</g>
<!-- Node0&#45;&gt;Node2 -->
<g id="edge7" class="edge"><title>Node0&#45;&gt;Node2</title>
<path fill="none" stroke="midnightblue" d="M48.146,-168.368C43.2827,-150.537 32.0351,-109.295 25.4832,-85.2717"/>
<polygon fill="midnightblue" stroke="midnightblue" points="28.851,-84.3181 22.8431,-75.5914 22.0977,-86.16 28.851,-84.3181"/>
</g>
<!-- Node1&#45;&gt;Node2 -->
<g id="edge2" class="edge"><title>Node1&#45;&gt;Node2</title>
<path fill="none" stroke="midnightblue" d="M71.6993,-112.324C62.6819,-104.341 49.094,-92.3128 38.182,-82.6529"/>
<polygon fill="midnightblue" stroke="midnightblue" points="40.2866,-79.8416 30.479,-75.8339 35.6467,-85.083 40.2866,-79.8416"/>
</g>
<!-- Node3 -->
<g id="node4" class="node"><title>Node3</title>
<g id="a_node4"><a xlink:title=" ">
<polygon fill="white" stroke="#bfbfbf" points="59.5,-56.5 59.5,-75.5 103.5,-75.5 103.5,-56.5 59.5,-56.5"/>
<text text-anchor="middle" x="81.5" y="-63.5" font-family="Helvetica,sans-Serif" font-size="10.00">vector</text>
</a>
</g>
</g>
<!-- Node1&#45;&gt;Node3 -->
<g id="edge3" class="edge"><title>Node1&#45;&gt;Node3</title>
<path fill="none" stroke="midnightblue" d="M81.5,-112.083C81.5,-105.006 81.5,-94.8611 81.5,-85.9865"/>
<polygon fill="midnightblue" stroke="midnightblue" points="85.0001,-85.751 81.5,-75.7511 78.0001,-85.7511 85.0001,-85.751"/>
</g>
<!-- Node4 -->
<g id="node5" class="node"><title>Node4</title>
<g id="a_node5"><a xlink:title=" ">
<polygon fill="white" stroke="#bfbfbf" points="137.5,-0.5 137.5,-19.5 191.5,-19.5 191.5,-0.5 137.5,-0.5"/>
<text text-anchor="middle" x="164.5" y="-7.5" font-family="Helvetica,sans-Serif" font-size="10.00">iostream</text>
</a>
</g>
</g>
<!-- Node1&#45;&gt;Node4 -->
<g id="edge4" class="edge"><title>Node1&#45;&gt;Node4</title>
<path fill="none" stroke="midnightblue" d="M88.0129,-112.368C101.771,-94.135 133.997,-51.4257 151.918,-27.6752"/>
<polygon fill="midnightblue" stroke="midnightblue" points="154.788,-29.6821 158.017,-19.5914 149.2,-25.4659 154.788,-29.6821"/>
</g>
<!-- Node5 -->
<g id="node6" class="node"><title>Node5</title>
<g id="a_node6"><a xlink:href="../../d2/d0f/members_8hpp.html" target="_top" xlink:title=" ">
<polygon fill="white" stroke="black" points="159.5,-56.5 159.5,-75.5 235.5,-75.5 235.5,-56.5 159.5,-56.5"/>
<text text-anchor="middle" x="197.5" y="-63.5" font-family="Helvetica,sans-Serif" font-size="10.00">members.hpp</text>
</a>
</g>
</g>
<!-- Node1&#45;&gt;Node5 -->
<g id="edge5" class="edge"><title>Node1&#45;&gt;Node5</title>
<path fill="none" stroke="midnightblue" d="M99.8805,-112.444C118.716,-103.675 148.231,-89.9355 169.879,-79.8579"/>
<polygon fill="midnightblue" stroke="midnightblue" points="171.617,-82.9098 179.205,-75.5164 168.662,-76.5637 171.617,-82.9098"/>
</g>
<!-- Node5&#45;&gt;Node4 -->
<g id="edge6" class="edge"><title>Node5&#45;&gt;Node4</title>
<path fill="none" stroke="midnightblue" d="M192.051,-56.083C187.486,-48.6127 180.832,-37.7244 175.207,-28.5199"/>
<polygon fill="midnightblue" stroke="midnightblue" points="178.049,-26.4588 169.848,-19.7511 172.076,-30.109 178.049,-26.4588"/>
</g>
</g>
</svg>
