<?xml version="1.0" encoding="UTF-8" standalone="no"?>
<!DOCTYPE svg PUBLIC "-//W3C//DTD SVG 1.1//EN"
 "http://www.w3.org/Graphics/SVG/1.1/DTD/svg11.dtd">
<!-- Generated by graphviz version 2.38.0 (20140413.2041)
 -->
<!-- Title: src/Person.cpp Pages: 1 -->
<svg width="422pt" height="252pt"
 viewBox="0.00 0.00 422.00 252.00" xmlns="http://www.w3.org/2000/svg" xmlns:xlink="http://www.w3.org/1999/xlink">
<g id="graph0" class="graph" transform="scale(1 1) rotate(0) translate(4 248)">
<title>src/Person.cpp</title>
<polygon fill="white" stroke="none" points="-4,4 -4,-248 418,-248 418,4 -4,4"/>
<!-- Node0 -->
<g id="node1" class="node"><title>Node0</title>
<g id="a_node1"><a xlink:title=" ">
<polygon fill="#bfbfbf" stroke="black" points="111,-224.5 111,-243.5 194,-243.5 194,-224.5 111,-224.5"/>
<text text-anchor="middle" x="152.5" y="-231.5" font-family="Helvetica,sans-Serif" font-size="10.00">src/Person.cpp</text>
</a>
</g>
</g>
<!-- Node1 -->
<g id="node2" class="node"><title>Node1</title>
<g id="a_node2"><a xlink:href="../../db/dad/_person_8hpp.html" target="_top" xlink:title=" ">
<polygon fill="white" stroke="black" points="137.5,-112.5 137.5,-131.5 203.5,-131.5 203.5,-112.5 137.5,-112.5"/>
<text text-anchor="middle" x="170.5" y="-119.5" font-family="Helvetica,sans-Serif" font-size="10.00">Person.hpp</text>
</a>
</g>
</g>
<!-- Node0&#45;&gt;Node1 -->
<g id="edge1" class="edge"><title>Node0&#45;&gt;Node1</title>
<path fill="none" stroke="midnightblue" d="M155.933,-224.194C159.259,-215.235 164.136,-200.876 166.5,-188 169.31,-172.691 170.255,-155.049 170.527,-142.011"/>
<polygon fill="midnightblue" stroke="midnightblue" points="174.028,-141.946 170.624,-131.913 167.028,-141.879 174.028,-141.946"/>
</g>
<!-- Node6 -->
<g id="node7" class="node"><title>Node6</title>
<g id="a_node7"><a xlink:href="../../d9/dbb/_client_8hpp.html" target="_top" xlink:title=" ">
<polygon fill="white" stroke="black" points="0,-168.5 0,-187.5 61,-187.5 61,-168.5 0,-168.5"/>
<text text-anchor="middle" x="30.5" y="-175.5" font-family="Helvetica,sans-Serif" font-size="10.00">Client.hpp</text>
</a>
</g>
</g>
<!-- Node0&#45;&gt;Node6 -->
<g id="edge7" class="edge"><title>Node0&#45;&gt;Node6</title>
<path fill="none" stroke="midnightblue" d="M133.169,-224.444C113.18,-215.596 81.7569,-201.687 58.9361,-191.586"/>
<polygon fill="midnightblue" stroke="midnightblue" points="60.3018,-188.363 49.7408,-187.516 57.4685,-194.764 60.3018,-188.363"/>
</g>
<!-- Node7 -->
<g id="node8" class="node"><title>Node7</title>
<g id="a_node8"><a xlink:href="../../d3/dba/_employee_8hpp.html" target="_top" xlink:title=" ">
<polygon fill="white" stroke="black" points="79,-168.5 79,-187.5 158,-187.5 158,-168.5 79,-168.5"/>
<text text-anchor="middle" x="118.5" y="-175.5" font-family="Helvetica,sans-Serif" font-size="10.00">Employee.hpp</text>
</a>
</g>
</g>
<!-- Node0&#45;&gt;Node7 -->
<g id="edge10" class="edge"><title>Node0&#45;&gt;Node7</title>
<path fill="none" stroke="midnightblue" d="M146.886,-224.083C142.133,-216.534 135.182,-205.495 129.348,-196.23"/>
<polygon fill="midnightblue" stroke="midnightblue" points="132.3,-194.349 124.01,-187.751 126.376,-198.078 132.3,-194.349"/>
</g>
<!-- Node8 -->
<g id="node9" class="node"><title>Node8</title>
<g id="a_node9"><a xlink:href="../../de/d24/_exceptions_8hpp.html" target="_top" xlink:title=" ">
<polygon fill="white" stroke="black" points="222.5,-168.5 222.5,-187.5 306.5,-187.5 306.5,-168.5 222.5,-168.5"/>
<text text-anchor="middle" x="264.5" y="-175.5" font-family="Helvetica,sans-Serif" font-size="10.00">Exceptions.hpp</text>
</a>
</g>
</g>
<!-- Node0&#45;&gt;Node8 -->
<g id="edge14" class="edge"><title>Node0&#45;&gt;Node8</title>
<path fill="none" stroke="midnightblue" d="M170.495,-224.324C188.538,-215.625 216.547,-202.12 237.303,-192.113"/>
<polygon fill="midnightblue" stroke="midnightblue" points="239.062,-195.15 246.55,-187.655 236.022,-188.845 239.062,-195.15"/>
</g>
<!-- Node2 -->
<g id="node3" class="node"><title>Node2</title>
<g id="a_node3"><a xlink:title=" ">
<polygon fill="white" stroke="#bfbfbf" points="10,-56.5 10,-75.5 51,-75.5 51,-56.5 10,-56.5"/>
<text text-anchor="middle" x="30.5" y="-63.5" font-family="Helvetica,sans-Serif" font-size="10.00">string</text>
</a>
</g>
</g>
<!-- Node1&#45;&gt;Node2 -->
<g id="edge2" class="edge"><title>Node1&#45;&gt;Node2</title>
<path fill="none" stroke="midnightblue" d="M148.317,-112.444C124.661,-103.319 87.051,-88.8125 60.7041,-78.6501"/>
<polygon fill="midnightblue" stroke="midnightblue" points="61.8,-75.3216 51.2104,-74.9883 59.2809,-81.8526 61.8,-75.3216"/>
</g>
<!-- Node3 -->
<g id="node4" class="node"><title>Node3</title>
<g id="a_node4"><a xlink:title=" ">
<polygon fill="white" stroke="#bfbfbf" points="163.5,-56.5 163.5,-75.5 207.5,-75.5 207.5,-56.5 163.5,-56.5"/>
<text text-anchor="middle" x="185.5" y="-63.5" font-family="Helvetica,sans-Serif" font-size="10.00">vector</text>
</a>
</g>
</g>
<!-- Node1&#45;&gt;Node3 -->
<g id="edge3" class="edge"><title>Node1&#45;&gt;Node3</title>
<path fill="none" stroke="midnightblue" d="M172.977,-112.083C174.986,-104.849 177.886,-94.4087 180.39,-85.3968"/>
<polygon fill="midnightblue" stroke="midnightblue" points="183.765,-86.323 183.069,-75.7511 177.02,-84.4495 183.765,-86.323"/>
</g>
<!-- Node4 -->
<g id="node5" class="node"><title>Node4</title>
<g id="a_node5"><a xlink:title=" ">
<polygon fill="white" stroke="#bfbfbf" points="208.5,-0.5 208.5,-19.5 262.5,-19.5 262.5,-0.5 208.5,-0.5"/>
<text text-anchor="middle" x="235.5" y="-7.5" font-family="Helvetica,sans-Serif" font-size="10.00">iostream</text>
</a>
</g>
</g>
<!-- Node1&#45;&gt;Node4 -->
<g id="edge4" class="edge"><title>Node1&#45;&gt;Node4</title>
<path fill="none" stroke="midnightblue" d="M182.373,-112.288C192.8,-104.041 207.649,-90.7533 216.5,-76 225.1,-61.6651 230.008,-43.202 232.673,-29.6187"/>
<polygon fill="midnightblue" stroke="midnightblue" points="236.158,-30.0047 234.415,-19.5542 229.26,-28.8108 236.158,-30.0047"/>
</g>
<!-- Node5 -->
<g id="node6" class="node"><title>Node5</title>
<g id="a_node6"><a xlink:href="../../d2/d0f/members_8hpp.html" target="_top" xlink:title=" ">
<polygon fill="white" stroke="black" points="69.5,-56.5 69.5,-75.5 145.5,-75.5 145.5,-56.5 69.5,-56.5"/>
<text text-anchor="middle" x="107.5" y="-63.5" font-family="Helvetica,sans-Serif" font-size="10.00">members.hpp</text>
</a>
</g>
</g>
<!-- Node1&#45;&gt;Node5 -->
<g id="edge5" class="edge"><title>Node1&#45;&gt;Node5</title>
<path fill="none" stroke="midnightblue" d="M160.378,-112.324C150.974,-104.263 136.756,-92.0765 125.431,-82.3695"/>
<polygon fill="midnightblue" stroke="midnightblue" points="127.677,-79.6844 117.806,-75.8339 123.121,-84.9993 127.677,-79.6844"/>
</g>
<!-- Node5&#45;&gt;Node4 -->
<g id="edge6" class="edge"><title>Node5&#45;&gt;Node4</title>
<path fill="none" stroke="midnightblue" d="M127.782,-56.4435C148.847,-47.5566 182.017,-33.5632 205.986,-23.4514"/>
<polygon fill="midnightblue" stroke="midnightblue" points="207.46,-26.6283 215.313,-19.5164 204.739,-20.1787 207.46,-26.6283"/>
</g>
<!-- Node6&#45;&gt;Node1 -->
<g id="edge8" class="edge"><title>Node6&#45;&gt;Node1</title>
<path fill="none" stroke="midnightblue" d="M52.6834,-168.444C75.9285,-159.478 112.649,-145.314 138.915,-135.183"/>
<polygon fill="midnightblue" stroke="midnightblue" points="140.35,-138.381 148.42,-131.516 137.831,-131.85 140.35,-138.381"/>
</g>
<!-- Node6&#45;&gt;Node2 -->
<g id="edge9" class="edge"><title>Node6&#45;&gt;Node2</title>
<path fill="none" stroke="midnightblue" d="M30.5,-168.368C30.5,-150.617 30.5,-109.666 30.5,-85.5974"/>
<polygon fill="midnightblue" stroke="midnightblue" points="34.0001,-85.5914 30.5,-75.5914 27.0001,-85.5915 34.0001,-85.5914"/>
</g>
<!-- Node7&#45;&gt;Node1 -->
<g id="edge11" class="edge"><title>Node7&#45;&gt;Node1</title>
<path fill="none" stroke="midnightblue" d="M127.087,-168.083C134.659,-160.22 145.878,-148.569 155.014,-139.081"/>
<polygon fill="midnightblue" stroke="midnightblue" points="157.658,-141.382 162.073,-131.751 152.615,-136.527 157.658,-141.382"/>
</g>
<!-- Node7&#45;&gt;Node2 -->
<g id="edge13" class="edge"><title>Node7&#45;&gt;Node2</title>
<path fill="none" stroke="midnightblue" d="M111.595,-168.368C97.008,-150.135 62.8406,-107.426 43.8402,-83.6752"/>
<polygon fill="midnightblue" stroke="midnightblue" points="46.3532,-81.2137 37.3731,-75.5914 40.8871,-85.5866 46.3532,-81.2137"/>
</g>
<!-- Node7&#45;&gt;Node5 -->
<g id="edge12" class="edge"><title>Node7&#45;&gt;Node5</title>
<path fill="none" stroke="midnightblue" d="M117.637,-168.368C115.862,-150.617 111.767,-109.666 109.36,-85.5974"/>
<polygon fill="midnightblue" stroke="midnightblue" points="112.837,-85.1935 108.359,-75.5914 105.872,-85.8901 112.837,-85.1935"/>
</g>
<!-- Node8&#45;&gt;Node1 -->
<g id="edge15" class="edge"><title>Node8&#45;&gt;Node1</title>
<path fill="none" stroke="midnightblue" d="M249.397,-168.324C234.597,-159.822 211.806,-146.729 194.518,-136.797"/>
<polygon fill="midnightblue" stroke="midnightblue" points="195.98,-133.601 185.565,-131.655 192.493,-139.671 195.98,-133.601"/>
</g>
<!-- Node8&#45;&gt;Node2 -->
<g id="edge18" class="edge"><title>Node8&#45;&gt;Node2</title>
<path fill="none" stroke="midnightblue" d="M260.057,-168.303C252.371,-154.175 235.212,-126.376 212.5,-112 156.474,-76.5377 129.982,-92.3786 61.1171,-75.905"/>
<polygon fill="midnightblue" stroke="midnightblue" points="61.6657,-72.4331 51.1112,-73.3574 59.9384,-79.2167 61.6657,-72.4331"/>
</g>
<!-- Node8&#45;&gt;Node4 -->
<g id="edge16" class="edge"><title>Node8&#45;&gt;Node4</title>
<path fill="none" stroke="midnightblue" d="M262.941,-168.075C258.376,-141.945 244.971,-65.2106 238.745,-29.577"/>
<polygon fill="midnightblue" stroke="midnightblue" points="242.166,-28.8166 236.997,-19.5681 235.27,-30.0213 242.166,-28.8166"/>
</g>
<!-- Node9 -->
<g id="node10" class="node"><title>Node9</title>
<g id="a_node10"><a xlink:title=" ">
<polygon fill="white" stroke="#bfbfbf" points="302,-112.5 302,-131.5 361,-131.5 361,-112.5 302,-112.5"/>
<text text-anchor="middle" x="331.5" y="-119.5" font-family="Helvetica,sans-Serif" font-size="10.00">exception</text>
</a>
</g>
</g>
<!-- Node8&#45;&gt;Node9 -->
<g id="edge17" class="edge"><title>Node8&#45;&gt;Node9</title>
<path fill="none" stroke="midnightblue" d="M275.265,-168.324C285.266,-160.263 300.387,-148.077 312.43,-138.369"/>
<polygon fill="midnightblue" stroke="midnightblue" points="314.95,-140.834 320.539,-131.834 310.557,-135.384 314.95,-140.834"/>
</g>
<!-- Node10 -->
<g id="node11" class="node"><title>Node10</title>
<g id="a_node11"><a xlink:title=" ">
<polygon fill="white" stroke="#bfbfbf" points="379,-112.5 379,-131.5 414,-131.5 414,-112.5 379,-112.5"/>
<text text-anchor="middle" x="396.5" y="-119.5" font-family="Helvetica,sans-Serif" font-size="10.00">map</text>
</a>
</g>
</g>
<!-- Node8&#45;&gt;Node10 -->
<g id="edge19" class="edge"><title>Node8&#45;&gt;Node10</title>
<path fill="none" stroke="midnightblue" d="M285.416,-168.444C308.034,-159.191 344.184,-144.402 369.067,-134.223"/>
<polygon fill="midnightblue" stroke="midnightblue" points="370.715,-137.33 378.645,-130.304 368.065,-130.851 370.715,-137.33"/>
</g>
</g>
</svg>
