<?xml version="1.0" encoding="UTF-8" standalone="no"?>
<!DOCTYPE svg PUBLIC "-//W3C//DTD SVG 1.1//EN"
 "http://www.w3.org/Graphics/SVG/1.1/DTD/svg11.dtd">
<!-- Generated by graphviz version 2.38.0 (20140413.2041)
 -->
<!-- Title: src/Exceptions.cpp Pages: 1 -->
<svg width="295pt" height="252pt"
 viewBox="0.00 0.00 294.88 252.00" xmlns="http://www.w3.org/2000/svg" xmlns:xlink="http://www.w3.org/1999/xlink">
<g id="graph0" class="graph" transform="scale(1 1) rotate(0) translate(4 248)">
<title>src/Exceptions.cpp</title>
<polygon fill="white" stroke="none" points="-4,4 -4,-248 290.885,-248 290.885,4 -4,4"/>
<!-- Node0 -->
<g id="node1" class="node"><title>Node0</title>
<g id="a_node1"><a xlink:title=" ">
<polygon fill="#bfbfbf" stroke="black" points="88.5489,-224.5 88.5489,-243.5 189.549,-243.5 189.549,-224.5 88.5489,-224.5"/>
<text text-anchor="middle" x="139.049" y="-231.5" font-family="Helvetica,sans-Serif" font-size="10.00">src/Exceptions.cpp</text>
</a>
</g>
</g>
<!-- Node1 -->
<g id="node2" class="node"><title>Node1</title>
<g id="a_node2"><a xlink:href="../../de/d24/_exceptions_8hpp.html" target="_top" xlink:title=" ">
<polygon fill="white" stroke="black" points="138.049,-168.5 138.049,-187.5 222.049,-187.5 222.049,-168.5 138.049,-168.5"/>
<text text-anchor="middle" x="180.049" y="-175.5" font-family="Helvetica,sans-Serif" font-size="10.00">Exceptions.hpp</text>
</a>
</g>
</g>
<!-- Node0&#45;&gt;Node1 -->
<g id="edge1" class="edge"><title>Node0&#45;&gt;Node1</title>
<path fill="none" stroke="midnightblue" d="M145.819,-224.083C151.611,-216.455 160.107,-205.264 167.186,-195.941"/>
<polygon fill="midnightblue" stroke="midnightblue" points="170.145,-197.832 173.405,-187.751 164.57,-193.599 170.145,-197.832"/>
</g>
<!-- Node2 -->
<g id="node3" class="node"><title>Node2</title>
<g id="a_node3"><a xlink:href="../../db/dad/_person_8hpp.html" target="_top" xlink:title=" ">
<polygon fill="white" stroke="black" points="41.0489,-112.5 41.0489,-131.5 107.049,-131.5 107.049,-112.5 41.0489,-112.5"/>
<text text-anchor="middle" x="74.0489" y="-119.5" font-family="Helvetica,sans-Serif" font-size="10.00">Person.hpp</text>
</a>
</g>
</g>
<!-- Node0&#45;&gt;Node2 -->
<g id="edge12" class="edge"><title>Node0&#45;&gt;Node2</title>
<path fill="none" stroke="midnightblue" d="M133.948,-224.368C123.269,-206.296 98.3804,-164.176 84.276,-140.307"/>
<polygon fill="midnightblue" stroke="midnightblue" points="87.2263,-138.42 79.1257,-131.591 81.1998,-141.981 87.2263,-138.42"/>
</g>
<!-- Node1&#45;&gt;Node2 -->
<g id="edge2" class="edge"><title>Node1&#45;&gt;Node2</title>
<path fill="none" stroke="midnightblue" d="M163.018,-168.324C146.019,-159.664 119.673,-146.242 100.056,-136.249"/>
<polygon fill="midnightblue" stroke="midnightblue" points="101.537,-133.075 91.0374,-131.655 98.359,-139.312 101.537,-133.075"/>
</g>
<!-- Node3 -->
<g id="node4" class="node"><title>Node3</title>
<g id="a_node4"><a xlink:title=" ">
<polygon fill="white" stroke="#bfbfbf" points="169.549,-56.5 169.549,-75.5 210.549,-75.5 210.549,-56.5 169.549,-56.5"/>
<text text-anchor="middle" x="190.049" y="-63.5" font-family="Helvetica,sans-Serif" font-size="10.00">string</text>
</a>
</g>
</g>
<!-- Node1&#45;&gt;Node3 -->
<g id="edge10" class="edge"><title>Node1&#45;&gt;Node3</title>
<path fill="none" stroke="midnightblue" d="M172.284,-168.26C162.255,-155.865 146.888,-132.415 154.049,-112 157.834,-101.209 165.415,-91.084 172.649,-83.1808"/>
<polygon fill="midnightblue" stroke="midnightblue" points="175.375,-85.4005 179.887,-75.8145 170.382,-80.4943 175.375,-85.4005"/>
</g>
<!-- Node5 -->
<g id="node6" class="node"><title>Node5</title>
<g id="a_node6"><a xlink:title=" ">
<polygon fill="white" stroke="#bfbfbf" points="86.0489,-0.5 86.0489,-19.5 140.049,-19.5 140.049,-0.5 86.0489,-0.5"/>
<text text-anchor="middle" x="113.049" y="-7.5" font-family="Helvetica,sans-Serif" font-size="10.00">iostream</text>
</a>
</g>
</g>
<!-- Node1&#45;&gt;Node5 -->
<g id="edge8" class="edge"><title>Node1&#45;&gt;Node5</title>
<path fill="none" stroke="midnightblue" d="M222.262,-168.64C256.775,-159.501 297.801,-142.001 284.049,-112 259.641,-58.7543 192.325,-31.6995 149.797,-19.5225"/>
<polygon fill="midnightblue" stroke="midnightblue" points="150.65,-16.1274 140.082,-16.8749 148.81,-22.8811 150.65,-16.1274"/>
</g>
<!-- Node7 -->
<g id="node8" class="node"><title>Node7</title>
<g id="a_node8"><a xlink:title=" ">
<polygon fill="white" stroke="#bfbfbf" points="163.549,-112.5 163.549,-131.5 222.549,-131.5 222.549,-112.5 163.549,-112.5"/>
<text text-anchor="middle" x="193.049" y="-119.5" font-family="Helvetica,sans-Serif" font-size="10.00">exception</text>
</a>
</g>
</g>
<!-- Node1&#45;&gt;Node7 -->
<g id="edge9" class="edge"><title>Node1&#45;&gt;Node7</title>
<path fill="none" stroke="midnightblue" d="M182.196,-168.083C183.918,-160.927 186.396,-150.635 188.549,-141.691"/>
<polygon fill="midnightblue" stroke="midnightblue" points="192.004,-142.293 190.942,-131.751 185.199,-140.654 192.004,-142.293"/>
</g>
<!-- Node8 -->
<g id="node9" class="node"><title>Node8</title>
<g id="a_node9"><a xlink:title=" ">
<polygon fill="white" stroke="#bfbfbf" points="240.549,-112.5 240.549,-131.5 275.549,-131.5 275.549,-112.5 240.549,-112.5"/>
<text text-anchor="middle" x="258.049" y="-119.5" font-family="Helvetica,sans-Serif" font-size="10.00">map</text>
</a>
</g>
</g>
<!-- Node1&#45;&gt;Node8 -->
<g id="edge11" class="edge"><title>Node1&#45;&gt;Node8</title>
<path fill="none" stroke="midnightblue" d="M192.581,-168.324C204.635,-159.979 223.076,-147.212 237.318,-137.352"/>
<polygon fill="midnightblue" stroke="midnightblue" points="239.318,-140.224 245.548,-131.655 235.334,-134.469 239.318,-140.224"/>
</g>
<!-- Node2&#45;&gt;Node3 -->
<g id="edge3" class="edge"><title>Node2&#45;&gt;Node3</title>
<path fill="none" stroke="midnightblue" d="M92.4295,-112.444C111.265,-103.675 140.78,-89.9355 162.428,-79.8579"/>
<polygon fill="midnightblue" stroke="midnightblue" points="164.166,-82.9098 171.754,-75.5164 161.211,-76.5637 164.166,-82.9098"/>
</g>
<!-- Node4 -->
<g id="node5" class="node"><title>Node4</title>
<g id="a_node5"><a xlink:title=" ">
<polygon fill="white" stroke="#bfbfbf" points="13.0489,-56.5 13.0489,-75.5 57.0489,-75.5 57.0489,-56.5 13.0489,-56.5"/>
<text text-anchor="middle" x="35.0489" y="-63.5" font-family="Helvetica,sans-Serif" font-size="10.00">vector</text>
</a>
</g>
</g>
<!-- Node2&#45;&gt;Node4 -->
<g id="edge4" class="edge"><title>Node2&#45;&gt;Node4</title>
<path fill="none" stroke="midnightblue" d="M67.6089,-112.083C62.1001,-104.455 54.0177,-93.2645 47.284,-83.9408"/>
<polygon fill="midnightblue" stroke="midnightblue" points="50.0615,-81.8087 41.3692,-75.7511 44.3867,-85.9071 50.0615,-81.8087"/>
</g>
<!-- Node2&#45;&gt;Node5 -->
<g id="edge5" class="edge"><title>Node2&#45;&gt;Node5</title>
<path fill="none" stroke="midnightblue" d="M51.7145,-112.453C25.6716,-101.147 -11.9047,-79.8461 4.04893,-56 19.9577,-32.2209 50.9786,-20.9936 75.872,-15.7003"/>
<polygon fill="midnightblue" stroke="midnightblue" points="76.5803,-19.1285 85.7568,-13.833 75.2809,-12.2501 76.5803,-19.1285"/>
</g>
<!-- Node6 -->
<g id="node7" class="node"><title>Node6</title>
<g id="a_node7"><a xlink:href="../../d2/d0f/members_8hpp.html" target="_top" xlink:title=" ">
<polygon fill="white" stroke="black" points="75.0489,-56.5 75.0489,-75.5 151.049,-75.5 151.049,-56.5 75.0489,-56.5"/>
<text text-anchor="middle" x="113.049" y="-63.5" font-family="Helvetica,sans-Serif" font-size="10.00">members.hpp</text>
</a>
</g>
</g>
<!-- Node2&#45;&gt;Node6 -->
<g id="edge6" class="edge"><title>Node2&#45;&gt;Node6</title>
<path fill="none" stroke="midnightblue" d="M80.489,-112.083C85.9978,-104.455 94.0802,-93.2645 100.814,-83.9408"/>
<polygon fill="midnightblue" stroke="midnightblue" points="103.711,-85.9071 106.729,-75.7511 98.0364,-81.8087 103.711,-85.9071"/>
</g>
<!-- Node6&#45;&gt;Node5 -->
<g id="edge7" class="edge"><title>Node6&#45;&gt;Node5</title>
<path fill="none" stroke="midnightblue" d="M113.049,-56.083C113.049,-49.0059 113.049,-38.8611 113.049,-29.9865"/>
<polygon fill="midnightblue" stroke="midnightblue" points="116.549,-29.751 113.049,-19.7511 109.549,-29.7511 116.549,-29.751"/>
</g>
</g>
</svg>
