<?xml version="1.0" encoding="UTF-8" standalone="no"?>
<!DOCTYPE svg PUBLIC "-//W3C//DTD SVG 1.1//EN"
 "http://www.w3.org/Graphics/SVG/1.1/DTD/svg11.dtd">
<!-- Generated by graphviz version 2.38.0 (20140413.2041)
 -->
<!-- Title: include/Employee.hpp Pages: 1 -->
<svg width="368pt" height="140pt"
 viewBox="0.00 0.00 368.00 140.00" xmlns="http://www.w3.org/2000/svg" xmlns:xlink="http://www.w3.org/1999/xlink">
<g id="graph0" class="graph" transform="scale(1 1) rotate(0) translate(4 136)">
<title>include/Employee.hpp</title>
<polygon fill="white" stroke="none" points="-4,4 -4,-136 364,-136 364,4 -4,4"/>
<!-- Node6 -->
<g id="node1" class="node"><title>Node6</title>
<g id="a_node1"><a xlink:title=" ">
<polygon fill="#bfbfbf" stroke="black" points="102,-112.5 102,-131.5 215,-131.5 215,-112.5 102,-112.5"/>
<text text-anchor="middle" x="158.5" y="-119.5" font-family="Helvetica,sans-Serif" font-size="10.00">include/Employee.hpp</text>
</a>
</g>
</g>
<!-- Node7 -->
<g id="node2" class="node"><title>Node7</title>
<g id="a_node2"><a xlink:href="../../de/de6/_employee_8cpp.html" target="_top" xlink:title=" ">
<polygon fill="white" stroke="black" points="0,-56.5 0,-75.5 95,-75.5 95,-56.5 0,-56.5"/>
<text text-anchor="middle" x="47.5" y="-63.5" font-family="Helvetica,sans-Serif" font-size="10.00">src/Employee.cpp</text>
</a>
</g>
</g>
<!-- Node6&#45;&gt;Node7 -->
<g id="edge1" class="edge"><title>Node6&#45;&gt;Node7</title>
<path fill="none" stroke="midnightblue" d="M131.495,-107.862C110.912,-97.8492 83.1553,-84.3458 65.2898,-75.6545"/>
<polygon fill="midnightblue" stroke="midnightblue" points="130.142,-111.097 140.666,-112.324 133.205,-104.802 130.142,-111.097"/>
</g>
<!-- Node8 -->
<g id="node3" class="node"><title>Node8</title>
<g id="a_node3"><a xlink:href="../../d5/d12/_main_8cpp.html" target="_top" xlink:title=" ">
<polygon fill="white" stroke="black" points="128,-0.5 128,-19.5 201,-19.5 201,-0.5 128,-0.5"/>
<text text-anchor="middle" x="164.5" y="-7.5" font-family="Helvetica,sans-Serif" font-size="10.00">src/Main.cpp</text>
</a>
</g>
</g>
<!-- Node6&#45;&gt;Node8 -->
<g id="edge2" class="edge"><title>Node6&#45;&gt;Node8</title>
<path fill="none" stroke="midnightblue" d="M149.415,-102.947C143.995,-89.9214 138.821,-71.9028 142.5,-56 145.636,-42.4442 153.446,-28.255 158.862,-19.5194"/>
<polygon fill="midnightblue" stroke="midnightblue" points="146.302,-104.555 153.65,-112.187 152.665,-101.638 146.302,-104.555"/>
</g>
<!-- Node9 -->
<g id="node4" class="node"><title>Node9</title>
<g id="a_node4"><a xlink:href="../../d5/d87/_person_8cpp.html" target="_top" xlink:title=" ">
<polygon fill="white" stroke="black" points="152,-56.5 152,-75.5 235,-75.5 235,-56.5 152,-56.5"/>
<text text-anchor="middle" x="193.5" y="-63.5" font-family="Helvetica,sans-Serif" font-size="10.00">src/Person.cpp</text>
</a>
</g>
</g>
<!-- Node6&#45;&gt;Node9 -->
<g id="edge3" class="edge"><title>Node6&#45;&gt;Node9</title>
<path fill="none" stroke="midnightblue" d="M169.8,-103.566C175.822,-94.2747 182.969,-83.2484 187.828,-75.7511"/>
<polygon fill="midnightblue" stroke="midnightblue" points="166.781,-101.788 164.28,-112.083 172.656,-105.595 166.781,-101.788"/>
</g>
<!-- Node10 -->
<g id="node5" class="node"><title>Node10</title>
<g id="a_node5"><a xlink:href="../../dc/dba/_interface_8hpp.html" target="_top" xlink:title=" ">
<polygon fill="white" stroke="black" points="253,-56.5 253,-75.5 360,-75.5 360,-56.5 253,-56.5"/>
<text text-anchor="middle" x="306.5" y="-63.5" font-family="Helvetica,sans-Serif" font-size="10.00">include/Interface.hpp</text>
</a>
</g>
</g>
<!-- Node6&#45;&gt;Node10 -->
<g id="edge4" class="edge"><title>Node6&#45;&gt;Node10</title>
<path fill="none" stroke="midnightblue" d="M191.647,-108.906C219.472,-98.7536 258.52,-84.5063 283.159,-75.5164"/>
<polygon fill="midnightblue" stroke="midnightblue" points="190.146,-105.728 181.951,-112.444 192.545,-112.304 190.146,-105.728"/>
</g>
<!-- Node10&#45;&gt;Node8 -->
<g id="edge6" class="edge"><title>Node10&#45;&gt;Node8</title>
<path fill="none" stroke="midnightblue" d="M274.345,-52.772C247.672,-42.6287 210.431,-28.4669 186.895,-19.5164"/>
<polygon fill="midnightblue" stroke="midnightblue" points="273.409,-56.1604 284,-56.4435 275.897,-49.6176 273.409,-56.1604"/>
</g>
<!-- Node11 -->
<g id="node6" class="node"><title>Node11</title>
<g id="a_node6"><a xlink:href="../../d2/d35/_interface_8cpp.html" target="_top" xlink:title=" ">
<polygon fill="white" stroke="black" points="261.5,-0.5 261.5,-19.5 351.5,-19.5 351.5,-0.5 261.5,-0.5"/>
<text text-anchor="middle" x="306.5" y="-7.5" font-family="Helvetica,sans-Serif" font-size="10.00">src/Interface.cpp</text>
</a>
</g>
</g>
<!-- Node10&#45;&gt;Node11 -->
<g id="edge5" class="edge"><title>Node10&#45;&gt;Node11</title>
<path fill="none" stroke="midnightblue" d="M306.5,-45.8045C306.5,-36.9102 306.5,-26.7798 306.5,-19.7511"/>
<polygon fill="midnightblue" stroke="midnightblue" points="303,-46.083 306.5,-56.083 310,-46.083 303,-46.083"/>
</g>
</g>
</svg>
