<?xml version="1.0" encoding="UTF-8" standalone="no"?>
<!DOCTYPE svg PUBLIC "-//W3C//DTD SVG 1.1//EN"
 "http://www.w3.org/Graphics/SVG/1.1/DTD/svg11.dtd">
<!-- Generated by graphviz version 2.38.0 (20140413.2041)
 -->
<!-- Title: include/Vehicles.hpp Pages: 1 -->
<svg width="371pt" height="140pt"
 viewBox="0.00 0.00 370.50 140.00" xmlns="http://www.w3.org/2000/svg" xmlns:xlink="http://www.w3.org/1999/xlink">
<g id="graph0" class="graph" transform="scale(1 1) rotate(0) translate(4 136)">
<title>include/Vehicles.hpp</title>
<polygon fill="white" stroke="none" points="-4,4 -4,-136 366.5,-136 366.5,4 -4,4"/>
<!-- Node6 -->
<g id="node1" class="node"><title>Node6</title>
<g id="a_node1"><a xlink:title=" ">
<polygon fill="#bfbfbf" stroke="black" points="102.5,-112.5 102.5,-131.5 209.5,-131.5 209.5,-112.5 102.5,-112.5"/>
<text text-anchor="middle" x="156" y="-119.5" font-family="Helvetica,sans-Serif" font-size="10.00">include/Vehicles.hpp</text>
</a>
</g>
</g>
<!-- Node7 -->
<g id="node2" class="node"><title>Node7</title>
<g id="a_node2"><a xlink:href="../../db/d4c/_alocation_8cpp.html" target="_top" xlink:title=" ">
<polygon fill="white" stroke="black" points="0,-56.5 0,-75.5 92,-75.5 92,-56.5 0,-56.5"/>
<text text-anchor="middle" x="46" y="-63.5" font-family="Helvetica,sans-Serif" font-size="10.00">src/Alocation.cpp</text>
</a>
</g>
</g>
<!-- Node6&#45;&gt;Node7 -->
<g id="edge1" class="edge"><title>Node6&#45;&gt;Node7</title>
<path fill="none" stroke="midnightblue" d="M129.238,-107.862C108.841,-97.8492 81.3341,-84.3458 63.6295,-75.6545"/>
<polygon fill="midnightblue" stroke="midnightblue" points="127.808,-111.059 138.327,-112.324 130.892,-104.775 127.808,-111.059"/>
</g>
<!-- Node8 -->
<g id="node3" class="node"><title>Node8</title>
<g id="a_node3"><a xlink:href="../../d5/d12/_main_8cpp.html" target="_top" xlink:title=" ">
<polygon fill="white" stroke="black" points="127.5,-0.5 127.5,-19.5 200.5,-19.5 200.5,-0.5 127.5,-0.5"/>
<text text-anchor="middle" x="164" y="-7.5" font-family="Helvetica,sans-Serif" font-size="10.00">src/Main.cpp</text>
</a>
</g>
</g>
<!-- Node6&#45;&gt;Node8 -->
<g id="edge2" class="edge"><title>Node6&#45;&gt;Node8</title>
<path fill="none" stroke="midnightblue" d="M146.225,-102.92C140.408,-89.8819 134.891,-71.8591 139,-56 142.542,-42.3307 151.235,-28.393 157.371,-19.7252"/>
<polygon fill="midnightblue" stroke="midnightblue" points="143.222,-104.744 150.777,-112.172 149.503,-101.654 143.222,-104.744"/>
</g>
<!-- Node9 -->
<g id="node4" class="node"><title>Node9</title>
<g id="a_node4"><a xlink:href="../../d2/d7e/_vehicles_8cpp.html" target="_top" xlink:title=" ">
<polygon fill="white" stroke="black" points="148.5,-56.5 148.5,-75.5 237.5,-75.5 237.5,-56.5 148.5,-56.5"/>
<text text-anchor="middle" x="193" y="-63.5" font-family="Helvetica,sans-Serif" font-size="10.00">src/Vehicles.cpp</text>
</a>
</g>
</g>
<!-- Node6&#45;&gt;Node9 -->
<g id="edge3" class="edge"><title>Node6&#45;&gt;Node9</title>
<path fill="none" stroke="midnightblue" d="M167.946,-103.566C174.312,-94.2747 181.867,-83.2484 187.004,-75.7511"/>
<polygon fill="midnightblue" stroke="midnightblue" points="164.875,-101.855 162.11,-112.083 170.649,-105.812 164.875,-101.855"/>
</g>
<!-- Node10 -->
<g id="node5" class="node"><title>Node10</title>
<g id="a_node5"><a xlink:href="../../dc/dba/_interface_8hpp.html" target="_top" xlink:title=" ">
<polygon fill="white" stroke="black" points="255.5,-56.5 255.5,-75.5 362.5,-75.5 362.5,-56.5 255.5,-56.5"/>
<text text-anchor="middle" x="309" y="-63.5" font-family="Helvetica,sans-Serif" font-size="10.00">include/Interface.hpp</text>
</a>
</g>
</g>
<!-- Node6&#45;&gt;Node10 -->
<g id="edge4" class="edge"><title>Node6&#45;&gt;Node10</title>
<path fill="none" stroke="midnightblue" d="M189.889,-109.039C218.677,-98.8786 259.287,-84.5457 284.87,-75.5164"/>
<polygon fill="midnightblue" stroke="midnightblue" points="188.508,-105.815 180.243,-112.444 190.838,-112.416 188.508,-105.815"/>
</g>
<!-- Node10&#45;&gt;Node8 -->
<g id="edge6" class="edge"><title>Node10&#45;&gt;Node8</title>
<path fill="none" stroke="midnightblue" d="M276.525,-52.9058C249.264,-42.7536 211.008,-28.5063 186.868,-19.5164"/>
<polygon fill="midnightblue" stroke="midnightblue" points="275.432,-56.2334 286.024,-56.4435 277.875,-49.6736 275.432,-56.2334"/>
</g>
<!-- Node11 -->
<g id="node6" class="node"><title>Node11</title>
<g id="a_node6"><a xlink:href="../../d2/d35/_interface_8cpp.html" target="_top" xlink:title=" ">
<polygon fill="white" stroke="black" points="264,-0.5 264,-19.5 354,-19.5 354,-0.5 264,-0.5"/>
<text text-anchor="middle" x="309" y="-7.5" font-family="Helvetica,sans-Serif" font-size="10.00">src/Interface.cpp</text>
</a>
</g>
</g>
<!-- Node10&#45;&gt;Node11 -->
<g id="edge5" class="edge"><title>Node10&#45;&gt;Node11</title>
<path fill="none" stroke="midnightblue" d="M309,-45.8045C309,-36.9102 309,-26.7798 309,-19.7511"/>
<polygon fill="midnightblue" stroke="midnightblue" points="305.5,-46.083 309,-56.083 312.5,-46.083 305.5,-46.083"/>
</g>
</g>
</svg>
