<?xml version="1.0" encoding="UTF-8" standalone="no"?>
<!DOCTYPE svg PUBLIC "-//W3C//DTD SVG 1.1//EN"
 "http://www.w3.org/Graphics/SVG/1.1/DTD/svg11.dtd">
<!-- Generated by graphviz version 2.38.0 (20140413.2041)
 -->
<!-- Title: include/Alocation.hpp Pages: 1 -->
<svg width="243pt" height="84pt"
 viewBox="0.00 0.00 242.50 84.00" xmlns="http://www.w3.org/2000/svg" xmlns:xlink="http://www.w3.org/1999/xlink">
<g id="graph0" class="graph" transform="scale(1 1) rotate(0) translate(4 80)">
<title>include/Alocation.hpp</title>
<polygon fill="white" stroke="none" points="-4,4 -4,-80 238.5,-80 238.5,4 -4,4"/>
<!-- Node0 -->
<g id="node1" class="node"><title>Node0</title>
<g id="a_node1"><a xlink:title=" ">
<polygon fill="#bfbfbf" stroke="black" points="69,-56.5 69,-75.5 179,-75.5 179,-56.5 69,-56.5"/>
<text text-anchor="middle" x="124" y="-63.5" font-family="Helvetica,sans-Serif" font-size="10.00">include/Alocation.hpp</text>
</a>
</g>
</g>
<!-- Node1 -->
<g id="node2" class="node"><title>Node1</title>
<g id="a_node2"><a xlink:title=" ">
<polygon fill="white" stroke="#bfbfbf" points="0,-0.5 0,-19.5 54,-19.5 54,-0.5 0,-0.5"/>
<text text-anchor="middle" x="27" y="-7.5" font-family="Helvetica,sans-Serif" font-size="10.00">iostream</text>
</a>
</g>
</g>
<!-- Node0&#45;&gt;Node1 -->
<g id="edge1" class="edge"><title>Node0&#45;&gt;Node1</title>
<path fill="none" stroke="midnightblue" d="M108.415,-56.324C93.0009,-47.7428 69.1878,-34.486 51.2903,-24.5224"/>
<polygon fill="midnightblue" stroke="midnightblue" points="52.9858,-21.4606 42.5461,-19.6545 49.5809,-27.5767 52.9858,-21.4606"/>
</g>
<!-- Node2 -->
<g id="node3" class="node"><title>Node2</title>
<g id="a_node3"><a xlink:title=" ">
<polygon fill="white" stroke="#bfbfbf" points="72,-0.5 72,-19.5 116,-19.5 116,-0.5 72,-0.5"/>
<text text-anchor="middle" x="94" y="-7.5" font-family="Helvetica,sans-Serif" font-size="10.00">vector</text>
</a>
</g>
</g>
<!-- Node0&#45;&gt;Node2 -->
<g id="edge2" class="edge"><title>Node0&#45;&gt;Node2</title>
<path fill="none" stroke="midnightblue" d="M119.046,-56.083C114.896,-48.6127 108.847,-37.7244 103.733,-28.5199"/>
<polygon fill="midnightblue" stroke="midnightblue" points="106.778,-26.7929 98.8617,-19.7511 100.659,-30.1924 106.778,-26.7929"/>
</g>
<!-- Node3 -->
<g id="node4" class="node"><title>Node3</title>
<g id="a_node4"><a xlink:title=" ">
<polygon fill="white" stroke="#bfbfbf" points="134.5,-0.5 134.5,-19.5 175.5,-19.5 175.5,-0.5 134.5,-0.5"/>
<text text-anchor="middle" x="155" y="-7.5" font-family="Helvetica,sans-Serif" font-size="10.00">string</text>
</a>
</g>
</g>
<!-- Node0&#45;&gt;Node3 -->
<g id="edge3" class="edge"><title>Node0&#45;&gt;Node3</title>
<path fill="none" stroke="midnightblue" d="M129.119,-56.083C133.408,-48.6127 139.658,-37.7244 144.942,-28.5199"/>
<polygon fill="midnightblue" stroke="midnightblue" points="148.033,-30.1662 149.976,-19.7511 141.962,-26.6811 148.033,-30.1662"/>
</g>
<!-- Node4 -->
<g id="node5" class="node"><title>Node4</title>
<g id="a_node5"><a xlink:title=" ">
<polygon fill="white" stroke="#bfbfbf" points="193.5,-0.5 193.5,-19.5 234.5,-19.5 234.5,-0.5 193.5,-0.5"/>
<text text-anchor="middle" x="214" y="-7.5" font-family="Helvetica,sans-Serif" font-size="10.00">ctime</text>
</a>
</g>
</g>
<!-- Node0&#45;&gt;Node4 -->
<g id="edge4" class="edge"><title>Node0&#45;&gt;Node4</title>
<path fill="none" stroke="midnightblue" d="M138.46,-56.324C152.5,-47.9002 174.048,-34.9709 190.543,-25.0741"/>
<polygon fill="midnightblue" stroke="midnightblue" points="192.802,-27.8007 199.576,-19.6545 189.2,-21.7983 192.802,-27.8007"/>
</g>
</g>
</svg>
