<?xml version="1.0" encoding="UTF-8" standalone="no"?>
<!DOCTYPE svg PUBLIC "-//W3C//DTD SVG 1.1//EN"
 "http://www.w3.org/Graphics/SVG/1.1/DTD/svg11.dtd">
<!-- Generated by graphviz version 2.38.0 (20140413.2041)
 -->
<!-- Title: src/Interface.cpp Pages: 1 -->
<!--zoomable 308 -->
<svg id="main" version="1.1" xmlns="http://www.w3.org/2000/svg" xmlns:xlink="http://www.w3.org/1999/xlink" xml:space="preserve" onload="init(evt)">
<style type="text/css"><![CDATA[
.edge:hover path { stroke: red; }
.edge:hover polygon { stroke: red; fill: red; }
]]></style>
<script type="text/javascript"><![CDATA[
var edges = document.getElementsByTagName('g');
if (edges && edges.length) {
  for (var i=0;i<edges.length;i++) {
    if (edges[i].id.substr(0,4)=='edge') {
      edges[i].setAttribute('class','edge');
    }
  }
}
]]></script>
        <defs>
                <circle id="rim" cx="0" cy="0" r="7"/>
                <circle id="rim2" cx="0" cy="0" r="3.5"/>
                <g id="zoomPlus">
                        <use xlink:href="#rim" fill="#404040">
                                <set attributeName="fill" to="#808080" begin="zoomplus.mouseover" end="zoomplus.mouseout"/>
                        </use>
                        <path d="M-4,0h8M0,-4v8" fill="none" stroke="white" stroke-width="1.5" pointer-events="none"/>
                </g>
                <g id="zoomMin">
                        <use xlink:href="#rim" fill="#404040">
                                <set attributeName="fill" to="#808080" begin="zoomminus.mouseover" end="zoomminus.mouseout"/>
                        </use>
                        <path d="M-4,0h8" fill="none" stroke="white" stroke-width="1.5" pointer-events="none"/>
                </g>
                <g id="dirArrow">
                        <path fill="none" stroke="white" stroke-width="1.5" d="M0,-3.0v7 M-2.5,-0.5L0,-3.0L2.5,-0.5"/>
                </g>
               <g id="resetDef">
                       <use xlink:href="#rim2" fill="#404040">
                               <set attributeName="fill" to="#808080" begin="reset.mouseover" end="reset.mouseout"/>
                       </use>
               </g>
        </defs>

<script type="text/javascript">
var viewWidth = 683;
var viewHeight = 308;
var sectionId = 'dynsection-0';
</script>
<script xlink:href="../../svgpan.js"/>
<svg id="graph" class="graph">
<g id="viewport">
<title>src/Interface.cpp</title>
<polygon fill="white" stroke="none" points="-4,4 -4,-304 679,-304 679,4 -4,4"/>
<!-- Node0 -->
<g id="node1" class="node"><title>Node0</title>
<g id="a_node1"><a xlink:title=" ">
<polygon fill="#bfbfbf" stroke="black" points="417,-280.5 417,-299.5 507,-299.5 507,-280.5 417,-280.5"/>
<text text-anchor="middle" x="462" y="-287.5" font-family="Helvetica,sans-Serif" font-size="10.00">src/Interface.cpp</text>
</a>
</g>
</g>
<!-- Node1 -->
<g id="node2" class="node"><title>Node1</title>
<g id="a_node2"><a xlink:href="../../dc/dba/_interface_8hpp.html" target="_top" xlink:title=" ">
<polygon fill="white" stroke="black" points="212,-224.5 212,-243.5 286,-243.5 286,-224.5 212,-224.5"/>
<text text-anchor="middle" x="249" y="-231.5" font-family="Helvetica,sans-Serif" font-size="10.00">Interface.hpp</text>
</a>
</g>
</g>
<!-- Node0&#45;&gt;Node1 -->
<g id="edge1" class="edge"><title>Node0&#45;&gt;Node1</title>
<path fill="none" stroke="midnightblue" d="M428.25,-280.444C391.482,-271.122 332.554,-256.183 292.378,-245.997"/>
<polygon fill="midnightblue" stroke="midnightblue" points="293.146,-242.581 282.593,-243.516 291.426,-249.367 293.146,-242.581"/>
</g>
<!-- Node5 -->
<g id="node6" class="node"><title>Node5</title>
<g id="a_node6"><a xlink:title=" ">
<polygon fill="white" stroke="#bfbfbf" points="371,-0.5 371,-19.5 425,-19.5 425,-0.5 371,-0.5"/>
<text text-anchor="middle" x="398" y="-7.5" font-family="Helvetica,sans-Serif" font-size="10.00">iostream</text>
</a>
</g>
</g>
<!-- Node0&#45;&gt;Node5 -->
<g id="edge35" class="edge"><title>Node0&#45;&gt;Node5</title>
<path fill="none" stroke="midnightblue" d="M507.172,-285.48C569.696,-277.863 675,-253.915 675,-179 675,-179 675,-179 675,-121 675,-69.9749 510.594,-32.2822 435.1,-17.6638"/>
<polygon fill="midnightblue" stroke="midnightblue" points="435.542,-14.1851 425.064,-15.7552 434.234,-21.0619 435.542,-14.1851"/>
</g>
<!-- Node2 -->
<g id="node3" class="node"><title>Node2</title>
<g id="a_node3"><a xlink:title=" ">
<polygon fill="white" stroke="#bfbfbf" points="0,-56.5 0,-75.5 44,-75.5 44,-56.5 0,-56.5"/>
<text text-anchor="middle" x="22" y="-63.5" font-family="Helvetica,sans-Serif" font-size="10.00">vector</text>
</a>
</g>
</g>
<!-- Node1&#45;&gt;Node2 -->
<g id="edge2" class="edge"><title>Node1&#45;&gt;Node2</title>
<path fill="none" stroke="midnightblue" d="M211.605,-229.885C157.322,-224.595 60.4934,-212.011 36,-188 8.77997,-161.316 12.9506,-112.222 17.8021,-85.5042"/>
<polygon fill="midnightblue" stroke="midnightblue" points="21.2623,-86.0524 19.8335,-75.5544 14.4038,-84.6521 21.2623,-86.0524"/>
</g>
<!-- Node3 -->
<g id="node4" class="node"><title>Node3</title>
<g id="a_node4"><a xlink:href="../../db/dad/_person_8hpp.html" target="_top" xlink:title=" ">
<polygon fill="white" stroke="black" points="174,-112.5 174,-131.5 240,-131.5 240,-112.5 174,-112.5"/>
<text text-anchor="middle" x="207" y="-119.5" font-family="Helvetica,sans-Serif" font-size="10.00">Person.hpp</text>
</a>
</g>
</g>
<!-- Node1&#45;&gt;Node3 -->
<g id="edge3" class="edge"><title>Node1&#45;&gt;Node3</title>
<path fill="none" stroke="midnightblue" d="M237.844,-224.384C228.218,-216.203 214.951,-202.957 209,-188 203.189,-173.396 203.107,-155.452 204.241,-142.121"/>
<polygon fill="midnightblue" stroke="midnightblue" points="207.763,-142.129 205.438,-131.792 200.81,-141.323 207.763,-142.129"/>
</g>
<!-- Node7 -->
<g id="node8" class="node"><title>Node7</title>
<g id="a_node8"><a xlink:href="../../d4/d2b/_vehicles_8hpp.html" target="_top" xlink:title=" ">
<polygon fill="white" stroke="black" points="45.5,-168.5 45.5,-187.5 118.5,-187.5 118.5,-168.5 45.5,-168.5"/>
<text text-anchor="middle" x="82" y="-175.5" font-family="Helvetica,sans-Serif" font-size="10.00">Vehicles.hpp</text>
</a>
</g>
</g>
<!-- Node1&#45;&gt;Node7 -->
<g id="edge9" class="edge"><title>Node1&#45;&gt;Node7</title>
<path fill="none" stroke="midnightblue" d="M222.538,-224.444C194.322,-215.32 149.46,-200.813 118.032,-190.651"/>
<polygon fill="midnightblue" stroke="midnightblue" points="118.93,-187.263 108.338,-187.516 116.776,-193.923 118.93,-187.263"/>
</g>
<!-- Node8 -->
<g id="node9" class="node"><title>Node8</title>
<g id="a_node9"><a xlink:href="../../dc/de3/_alocation_8hpp.html" target="_top" xlink:title=" ">
<polygon fill="white" stroke="black" points="42,-112.5 42,-131.5 118,-131.5 118,-112.5 42,-112.5"/>
<text text-anchor="middle" x="80" y="-119.5" font-family="Helvetica,sans-Serif" font-size="10.00">Alocation.hpp</text>
</a>
</g>
</g>
<!-- Node1&#45;&gt;Node8 -->
<g id="edge17" class="edge"><title>Node1&#45;&gt;Node8</title>
<path fill="none" stroke="midnightblue" d="M235.739,-224.368C206.738,-205.492 137.437,-160.385 101.873,-137.237"/>
<polygon fill="midnightblue" stroke="midnightblue" points="103.49,-134.113 93.1995,-131.591 99.6713,-139.98 103.49,-134.113"/>
</g>
<!-- Node10 -->
<g id="node11" class="node"><title>Node10</title>
<g id="a_node11"><a xlink:href="../../d6/d02/_agency_8hpp.html" target="_top" xlink:title=" ">
<polygon fill="white" stroke="black" points="410,-112.5 410,-131.5 478,-131.5 478,-112.5 410,-112.5"/>
<text text-anchor="middle" x="444" y="-119.5" font-family="Helvetica,sans-Serif" font-size="10.00">Agency.hpp</text>
</a>
</g>
</g>
<!-- Node1&#45;&gt;Node10 -->
<g id="edge18" class="edge"><title>Node1&#45;&gt;Node10</title>
<path fill="none" stroke="midnightblue" d="M286.186,-226.113C314.88,-219.568 354.665,-207.729 385,-188 404.467,-175.339 421.663,-154.722 432.394,-140.105"/>
<polygon fill="midnightblue" stroke="midnightblue" points="435.278,-142.088 438.203,-131.905 429.566,-138.042 435.278,-142.088"/>
</g>
<!-- Node11 -->
<g id="node12" class="node"><title>Node11</title>
<g id="a_node12"><a xlink:href="../../d9/dbb/_client_8hpp.html" target="_top" xlink:title=" ">
<polygon fill="white" stroke="black" points="218.5,-168.5 218.5,-187.5 279.5,-187.5 279.5,-168.5 218.5,-168.5"/>
<text text-anchor="middle" x="249" y="-175.5" font-family="Helvetica,sans-Serif" font-size="10.00">Client.hpp</text>
</a>
</g>
</g>
<!-- Node1&#45;&gt;Node11 -->
<g id="edge22" class="edge"><title>Node1&#45;&gt;Node11</title>
<path fill="none" stroke="midnightblue" d="M249,-224.083C249,-217.006 249,-206.861 249,-197.986"/>
<polygon fill="midnightblue" stroke="midnightblue" points="252.5,-197.751 249,-187.751 245.5,-197.751 252.5,-197.751"/>
</g>
<!-- Node12 -->
<g id="node13" class="node"><title>Node12</title>
<g id="a_node13"><a xlink:href="../../d3/dba/_employee_8hpp.html" target="_top" xlink:title=" ">
<polygon fill="white" stroke="black" points="297.5,-168.5 297.5,-187.5 376.5,-187.5 376.5,-168.5 297.5,-168.5"/>
<text text-anchor="middle" x="337" y="-175.5" font-family="Helvetica,sans-Serif" font-size="10.00">Employee.hpp</text>
</a>
</g>
</g>
<!-- Node1&#45;&gt;Node12 -->
<g id="edge25" class="edge"><title>Node1&#45;&gt;Node12</title>
<path fill="none" stroke="midnightblue" d="M263.139,-224.324C276.866,-215.9 297.936,-202.971 314.064,-193.074"/>
<polygon fill="midnightblue" stroke="midnightblue" points="316.204,-195.868 322.896,-187.655 312.543,-189.902 316.204,-195.868"/>
</g>
<!-- Node13 -->
<g id="node14" class="node"><title>Node13</title>
<g id="a_node14"><a xlink:href="../../de/d24/_exceptions_8hpp.html" target="_top" xlink:title=" ">
<polygon fill="white" stroke="black" points="452,-168.5 452,-187.5 536,-187.5 536,-168.5 452,-168.5"/>
<text text-anchor="middle" x="494" y="-175.5" font-family="Helvetica,sans-Serif" font-size="10.00">Exceptions.hpp</text>
</a>
</g>
</g>
<!-- Node1&#45;&gt;Node13 -->
<g id="edge29" class="edge"><title>Node1&#45;&gt;Node13</title>
<path fill="none" stroke="midnightblue" d="M286.21,-224.799C328.737,-215.425 398.489,-200.051 445.308,-189.732"/>
<polygon fill="midnightblue" stroke="midnightblue" points="446.211,-193.117 455.223,-187.547 444.704,-186.281 446.211,-193.117"/>
</g>
<!-- Node3&#45;&gt;Node2 -->
<g id="edge5" class="edge"><title>Node3&#45;&gt;Node2</title>
<path fill="none" stroke="midnightblue" d="M177.686,-112.444C143.932,-102.591 88.6756,-86.4621 53.8761,-76.3044"/>
<polygon fill="midnightblue" stroke="midnightblue" points="54.7892,-72.9249 44.209,-73.4826 52.8277,-79.6445 54.7892,-72.9249"/>
</g>
<!-- Node4 -->
<g id="node5" class="node"><title>Node4</title>
<g id="a_node5"><a xlink:title=" ">
<polygon fill="white" stroke="#bfbfbf" points="247.5,-56.5 247.5,-75.5 288.5,-75.5 288.5,-56.5 247.5,-56.5"/>
<text text-anchor="middle" x="268" y="-63.5" font-family="Helvetica,sans-Serif" font-size="10.00">string</text>
</a>
</g>
</g>
<!-- Node3&#45;&gt;Node4 -->
<g id="edge4" class="edge"><title>Node3&#45;&gt;Node4</title>
<path fill="none" stroke="midnightblue" d="M216.801,-112.324C225.818,-104.341 239.406,-92.3128 250.318,-82.6529"/>
<polygon fill="midnightblue" stroke="midnightblue" points="252.853,-85.083 258.021,-75.8339 248.213,-79.8416 252.853,-85.083"/>
</g>
<!-- Node3&#45;&gt;Node5 -->
<g id="edge6" class="edge"><title>Node3&#45;&gt;Node5</title>
<path fill="none" stroke="midnightblue" d="M208.696,-112.438C211.908,-98.5055 220.214,-70.9805 238,-56 272.702,-26.7723 325.135,-16.472 360.426,-12.8746"/>
<polygon fill="midnightblue" stroke="midnightblue" points="361.137,-16.3256 370.79,-11.9598 360.521,-9.35273 361.137,-16.3256"/>
</g>
<!-- Node6 -->
<g id="node7" class="node"><title>Node6</title>
<g id="a_node7"><a xlink:href="../../d2/d0f/members_8hpp.html" target="_top" xlink:title=" ">
<polygon fill="white" stroke="black" points="323,-56.5 323,-75.5 399,-75.5 399,-56.5 323,-56.5"/>
<text text-anchor="middle" x="361" y="-63.5" font-family="Helvetica,sans-Serif" font-size="10.00">members.hpp</text>
</a>
</g>
</g>
<!-- Node3&#45;&gt;Node6 -->
<g id="edge7" class="edge"><title>Node3&#45;&gt;Node6</title>
<path fill="none" stroke="midnightblue" d="M231.402,-112.444C257.197,-103.399 298.077,-89.064 327.018,-78.9158"/>
<polygon fill="midnightblue" stroke="midnightblue" points="328.434,-82.1283 336.712,-75.5164 326.118,-75.5226 328.434,-82.1283"/>
</g>
<!-- Node6&#45;&gt;Node5 -->
<g id="edge8" class="edge"><title>Node6&#45;&gt;Node5</title>
<path fill="none" stroke="midnightblue" d="M367.11,-56.083C372.282,-48.5341 379.846,-37.4948 386.194,-28.2298"/>
<polygon fill="midnightblue" stroke="midnightblue" points="389.239,-29.9787 392.004,-19.7511 383.464,-26.0221 389.239,-29.9787"/>
</g>
<!-- Node7&#45;&gt;Node2 -->
<g id="edge16" class="edge"><title>Node7&#45;&gt;Node2</title>
<path fill="none" stroke="midnightblue" d="M68.4603,-168.391C57.0853,-160.397 41.3827,-147.425 33,-132 25.2297,-117.701 22.6975,-99.2342 21.9819,-85.6402"/>
<polygon fill="midnightblue" stroke="midnightblue" points="25.479,-85.4763 21.7328,-75.5659 18.4811,-85.6493 25.479,-85.4763"/>
</g>
<!-- Node7&#45;&gt;Node4 -->
<g id="edge15" class="edge"><title>Node7&#45;&gt;Node4</title>
<path fill="none" stroke="midnightblue" d="M91.6264,-168.126C106.513,-154.723 136.397,-129.073 165,-112 188.289,-98.0988 216.651,-86.0278 237.712,-77.8972"/>
<polygon fill="midnightblue" stroke="midnightblue" points="239.005,-81.1503 247.12,-74.3391 236.528,-74.6029 239.005,-81.1503"/>
</g>
<!-- Node7&#45;&gt;Node8 -->
<g id="edge10" class="edge"><title>Node7&#45;&gt;Node8</title>
<path fill="none" stroke="midnightblue" d="M81.6697,-168.083C81.4076,-161.006 81.0319,-150.861 80.7032,-141.986"/>
<polygon fill="midnightblue" stroke="midnightblue" points="84.1919,-141.615 80.3241,-131.751 77.1967,-141.874 84.1919,-141.615"/>
</g>
<!-- Node8&#45;&gt;Node2 -->
<g id="edge12" class="edge"><title>Node8&#45;&gt;Node2</title>
<path fill="none" stroke="midnightblue" d="M70.6813,-112.324C62.1074,-104.341 49.1878,-92.3128 38.8124,-82.6529"/>
<polygon fill="midnightblue" stroke="midnightblue" points="41.1922,-80.0865 31.4883,-75.8339 36.4223,-85.2098 41.1922,-80.0865"/>
</g>
<!-- Node8&#45;&gt;Node4 -->
<g id="edge13" class="edge"><title>Node8&#45;&gt;Node4</title>
<path fill="none" stroke="midnightblue" d="M109.789,-112.444C144.75,-102.402 202.411,-85.8394 237.624,-75.7251"/>
<polygon fill="midnightblue" stroke="midnightblue" points="238.707,-79.0556 247.352,-72.9308 236.774,-72.3276 238.707,-79.0556"/>
</g>
<!-- Node8&#45;&gt;Node5 -->
<g id="edge11" class="edge"><title>Node8&#45;&gt;Node5</title>
<path fill="none" stroke="midnightblue" d="M79.7904,-112.305C79.9626,-98.1797 82.5293,-70.3847 99,-56 137.36,-22.4983 289.348,-13.9299 360.673,-11.7447"/>
<polygon fill="midnightblue" stroke="midnightblue" points="361.095,-15.2343 370.994,-11.4561 360.9,-8.23706 361.095,-15.2343"/>
</g>
<!-- Node9 -->
<g id="node10" class="node"><title>Node9</title>
<g id="a_node10"><a xlink:title=" ">
<polygon fill="white" stroke="#bfbfbf" points="108.5,-56.5 108.5,-75.5 149.5,-75.5 149.5,-56.5 108.5,-56.5"/>
<text text-anchor="middle" x="129" y="-63.5" font-family="Helvetica,sans-Serif" font-size="10.00">ctime</text>
</a>
</g>
</g>
<!-- Node8&#45;&gt;Node9 -->
<g id="edge14" class="edge"><title>Node8&#45;&gt;Node9</title>
<path fill="none" stroke="midnightblue" d="M88.0914,-112.083C95.1554,-104.298 105.588,-92.8015 114.149,-83.3665"/>
<polygon fill="midnightblue" stroke="midnightblue" points="116.931,-85.5087 121.059,-75.7511 111.747,-80.8047 116.931,-85.5087"/>
</g>
<!-- Node10&#45;&gt;Node4 -->
<g id="edge20" class="edge"><title>Node10&#45;&gt;Node4</title>
<path fill="none" stroke="midnightblue" d="M416.112,-112.444C383.962,-102.579 331.308,-86.424 298.208,-76.2685"/>
<polygon fill="midnightblue" stroke="midnightblue" points="299.195,-72.9102 288.608,-73.323 297.142,-79.6023 299.195,-72.9102"/>
</g>
<!-- Node10&#45;&gt;Node5 -->
<g id="edge19" class="edge"><title>Node10&#45;&gt;Node5</title>
<path fill="none" stroke="midnightblue" d="M440.39,-112.368C432.9,-94.4563 415.532,-52.9233 405.506,-28.9482"/>
<polygon fill="midnightblue" stroke="midnightblue" points="408.68,-27.4669 401.593,-19.5914 402.222,-30.1676 408.68,-27.4669"/>
</g>
<!-- Node10&#45;&gt;Node6 -->
<g id="edge21" class="edge"><title>Node10&#45;&gt;Node6</title>
<path fill="none" stroke="midnightblue" d="M430.665,-112.324C417.838,-103.979 398.215,-91.2122 383.06,-81.3524"/>
<polygon fill="midnightblue" stroke="midnightblue" points="384.593,-78.1742 374.302,-75.6545 380.776,-84.0417 384.593,-78.1742"/>
</g>
<!-- Node11&#45;&gt;Node3 -->
<g id="edge23" class="edge"><title>Node11&#45;&gt;Node3</title>
<path fill="none" stroke="midnightblue" d="M242.065,-168.083C236.071,-160.377 227.248,-149.033 219.952,-139.653"/>
<polygon fill="midnightblue" stroke="midnightblue" points="222.709,-137.496 213.806,-131.751 217.183,-141.793 222.709,-137.496"/>
</g>
<!-- Node11&#45;&gt;Node4 -->
<g id="edge24" class="edge"><title>Node11&#45;&gt;Node4</title>
<path fill="none" stroke="midnightblue" d="M250.491,-168.368C253.557,-150.617 260.63,-109.666 264.788,-85.5974"/>
<polygon fill="midnightblue" stroke="midnightblue" points="268.263,-86.0413 266.516,-75.5914 261.365,-84.8498 268.263,-86.0413"/>
</g>
<!-- Node12&#45;&gt;Node3 -->
<g id="edge26" class="edge"><title>Node12&#45;&gt;Node3</title>
<path fill="none" stroke="midnightblue" d="M316.401,-168.444C295.007,-159.557 261.319,-145.563 236.976,-135.451"/>
<polygon fill="midnightblue" stroke="midnightblue" points="238.08,-132.12 227.503,-131.516 235.395,-138.585 238.08,-132.12"/>
</g>
<!-- Node12&#45;&gt;Node4 -->
<g id="edge28" class="edge"><title>Node12&#45;&gt;Node4</title>
<path fill="none" stroke="midnightblue" d="M331.586,-168.368C320.249,-150.296 293.829,-108.176 278.856,-84.3074"/>
<polygon fill="midnightblue" stroke="midnightblue" points="281.668,-82.2029 273.389,-75.5914 275.738,-85.9226 281.668,-82.2029"/>
</g>
<!-- Node12&#45;&gt;Node6 -->
<g id="edge27" class="edge"><title>Node12&#45;&gt;Node6</title>
<path fill="none" stroke="midnightblue" d="M338.883,-168.368C342.756,-150.617 351.691,-109.666 356.942,-85.5974"/>
<polygon fill="midnightblue" stroke="midnightblue" points="360.413,-86.1077 359.126,-75.5914 353.574,-84.6155 360.413,-86.1077"/>
</g>
<!-- Node13&#45;&gt;Node3 -->
<g id="edge30" class="edge"><title>Node13&#45;&gt;Node3</title>
<path fill="none" stroke="midnightblue" d="M451.96,-169.09C397.987,-158.935 304.806,-141.403 250.252,-131.138"/>
<polygon fill="midnightblue" stroke="midnightblue" points="250.682,-127.657 240.207,-129.248 249.387,-134.537 250.682,-127.657"/>
</g>
<!-- Node13&#45;&gt;Node4 -->
<g id="edge33" class="edge"><title>Node13&#45;&gt;Node4</title>
<path fill="none" stroke="midnightblue" d="M476.161,-168.394C457.432,-159.352 427.131,-144.708 401,-132 364.154,-114.082 321.621,-93.273 294.773,-80.1226"/>
<polygon fill="midnightblue" stroke="midnightblue" points="296.151,-76.9002 285.631,-75.6437 293.071,-83.1864 296.151,-76.9002"/>
</g>
<!-- Node13&#45;&gt;Node5 -->
<g id="edge31" class="edge"><title>Node13&#45;&gt;Node5</title>
<path fill="none" stroke="midnightblue" d="M494.692,-168.159C495.349,-155.237 495.233,-130.697 487,-112 471.271,-76.2817 438.192,-44.1857 417.091,-26.1848"/>
<polygon fill="midnightblue" stroke="midnightblue" points="419.058,-23.2688 409.128,-19.5745 414.587,-28.6548 419.058,-23.2688"/>
</g>
<!-- Node14 -->
<g id="node15" class="node"><title>Node14</title>
<g id="a_node15"><a xlink:title=" ">
<polygon fill="white" stroke="#bfbfbf" points="534.5,-112.5 534.5,-131.5 593.5,-131.5 593.5,-112.5 534.5,-112.5"/>
<text text-anchor="middle" x="564" y="-119.5" font-family="Helvetica,sans-Serif" font-size="10.00">exception</text>
</a>
</g>
</g>
<!-- Node13&#45;&gt;Node14 -->
<g id="edge32" class="edge"><title>Node13&#45;&gt;Node14</title>
<path fill="none" stroke="midnightblue" d="M505.247,-168.324C515.797,-160.185 531.801,-147.839 544.442,-138.087"/>
<polygon fill="midnightblue" stroke="midnightblue" points="546.769,-140.713 552.549,-131.834 542.493,-135.171 546.769,-140.713"/>
</g>
<!-- Node15 -->
<g id="node16" class="node"><title>Node15</title>
<g id="a_node16"><a xlink:title=" ">
<polygon fill="white" stroke="#bfbfbf" points="611.5,-112.5 611.5,-131.5 646.5,-131.5 646.5,-112.5 611.5,-112.5"/>
<text text-anchor="middle" x="629" y="-119.5" font-family="Helvetica,sans-Serif" font-size="10.00">map</text>
</a>
</g>
</g>
<!-- Node13&#45;&gt;Node15 -->
<g id="edge34" class="edge"><title>Node13&#45;&gt;Node15</title>
<path fill="none" stroke="midnightblue" d="M515.391,-168.444C538.757,-159.097 576.244,-144.102 601.712,-133.915"/>
<polygon fill="midnightblue" stroke="midnightblue" points="603.173,-137.1 611.158,-130.137 600.573,-130.601 603.173,-137.1"/>
</g>
</g>
</svg>
        <g id="navigator" transform="translate(0 0)" fill="#404254">
                <rect fill="#f2f5e9" fill-opacity="0.5" stroke="#606060" stroke-width=".5" x="0" y="0" width="60" height="60"/>
                <use id="zoomplus" xlink:href="#zoomPlus" x="17" y="9" onmousedown="handleZoom(evt,'in')"/>
                <use id="zoomminus" xlink:href="#zoomMin" x="42" y="9" onmousedown="handleZoom(evt,'out')"/>
                <use id="reset" xlink:href="#resetDef" x="30" y="36" onmousedown="handleReset()"/>
                <g id="arrowUp" xlink:href="#dirArrow" transform="translate(30 24)" onmousedown="handlePan(0,-1)">
                  <use xlink:href="#rim" fill="#404040">
                        <set attributeName="fill" to="#808080" begin="arrowUp.mouseover" end="arrowUp.mouseout"/>
                  </use>
                  <path fill="none" stroke="white" stroke-width="1.5" d="M0,-3.0v7 M-2.5,-0.5L0,-3.0L2.5,-0.5"/>
                </g>
                <g id="arrowRight" xlink:href="#dirArrow" transform="rotate(90) translate(36 -43)" onmousedown="handlePan(1,0)">
                  <use xlink:href="#rim" fill="#404040">
                        <set attributeName="fill" to="#808080" begin="arrowRight.mouseover" end="arrowRight.mouseout"/>
                  </use>
                  <path fill="none" stroke="white" stroke-width="1.5" d="M0,-3.0v7 M-2.5,-0.5L0,-3.0L2.5,-0.5"/>
                </g>
                <g id="arrowDown" xlink:href="#dirArrow" transform="rotate(180) translate(-30 -48)" onmousedown="handlePan(0,1)">
                  <use xlink:href="#rim" fill="#404040">
                        <set attributeName="fill" to="#808080" begin="arrowDown.mouseover" end="arrowDown.mouseout"/>
                  </use>
                  <path fill="none" stroke="white" stroke-width="1.5" d="M0,-3.0v7 M-2.5,-0.5L0,-3.0L2.5,-0.5"/>
                </g>
                <g id="arrowLeft" xlink:href="#dirArrow" transform="rotate(270) translate(-36 17)" onmousedown="handlePan(-1,0)">
                  <use xlink:href="#rim" fill="#404040">
                        <set attributeName="fill" to="#808080" begin="arrowLeft.mouseover" end="arrowLeft.mouseout"/>
                  </use>
                  <path fill="none" stroke="white" stroke-width="1.5" d="M0,-3.0v7 M-2.5,-0.5L0,-3.0L2.5,-0.5"/>
                </g>
        </g>
        <svg viewBox="0 0 15 15" width="100%" height="30px" preserveAspectRatio="xMaxYMin meet">
         <g id="arrow_out" transform="scale(0.3 0.3)">
          <a xlink:href="_interface_8cpp__incl_org.svg" target="_base">
           <rect id="button" ry="5" rx="5" y="6" x="6" height="38" width="38"
                fill="#f2f5e9" fill-opacity="0.5" stroke="#606060" stroke-width="1.0"/>
           <path id="arrow"
             d="M 11.500037,31.436501 C 11.940474,20.09759 22.043105,11.32322 32.158766,21.979434 L 37.068811,17.246167 C 37.068811,17.246167 37.088388,32 37.088388,32 L 22.160133,31.978069 C 22.160133,31.978069 26.997745,27.140456 26.997745,27.140456 C 18.528582,18.264221 13.291696,25.230495 11.500037,31.436501 z"
             style="fill:#404040;"/>
          </a>
         </g>
        </svg>
</svg>
