<?xml version="1.0" encoding="UTF-8" standalone="no"?>
<!DOCTYPE svg PUBLIC "-//W3C//DTD SVG 1.1//EN"
 "http://www.w3.org/Graphics/SVG/1.1/DTD/svg11.dtd">
<!-- Generated by graphviz version 2.38.0 (20140413.2041)
 -->
<!-- Title: src/Vehicles.cpp Pages: 1 -->
<svg width="380pt" height="196pt"
 viewBox="0.00 0.00 379.50 196.00" xmlns="http://www.w3.org/2000/svg" xmlns:xlink="http://www.w3.org/1999/xlink">
<g id="graph0" class="graph" transform="scale(1 1) rotate(0) translate(4 192)">
<title>src/Vehicles.cpp</title>
<polygon fill="white" stroke="none" points="-4,4 -4,-192 375.5,-192 375.5,4 -4,4"/>
<!-- Node0 -->
<g id="node1" class="node"><title>Node0</title>
<g id="a_node1"><a xlink:title=" ">
<polygon fill="#bfbfbf" stroke="black" points="148.5,-168.5 148.5,-187.5 237.5,-187.5 237.5,-168.5 148.5,-168.5"/>
<text text-anchor="middle" x="193" y="-175.5" font-family="Helvetica,sans-Serif" font-size="10.00">src/Vehicles.cpp</text>
</a>
</g>
</g>
<!-- Node1 -->
<g id="node2" class="node"><title>Node1</title>
<g id="a_node2"><a xlink:title=" ">
<polygon fill="white" stroke="#bfbfbf" points="202,-56.5 202,-75.5 256,-75.5 256,-56.5 202,-56.5"/>
<text text-anchor="middle" x="229" y="-63.5" font-family="Helvetica,sans-Serif" font-size="10.00">iostream</text>
</a>
</g>
</g>
<!-- Node0&#45;&gt;Node1 -->
<g id="edge1" class="edge"><title>Node0&#45;&gt;Node1</title>
<path fill="none" stroke="midnightblue" d="M195.825,-168.368C201.661,-150.537 215.158,-109.295 223.02,-85.2717"/>
<polygon fill="midnightblue" stroke="midnightblue" points="226.404,-86.1841 226.188,-75.5914 219.751,-84.0067 226.404,-86.1841"/>
</g>
<!-- Node2 -->
<g id="node3" class="node"><title>Node2</title>
<g id="a_node3"><a xlink:title=" ">
<polygon fill="white" stroke="#bfbfbf" points="134.5,-0.5 134.5,-19.5 175.5,-19.5 175.5,-0.5 134.5,-0.5"/>
<text text-anchor="middle" x="155" y="-7.5" font-family="Helvetica,sans-Serif" font-size="10.00">string</text>
</a>
</g>
</g>
<!-- Node0&#45;&gt;Node2 -->
<g id="edge2" class="edge"><title>Node0&#45;&gt;Node2</title>
<path fill="none" stroke="midnightblue" d="M190.957,-168.075C184.975,-141.945 167.41,-65.2106 159.253,-29.577"/>
<polygon fill="midnightblue" stroke="midnightblue" points="162.605,-28.5349 156.961,-19.5681 155.781,-30.097 162.605,-28.5349"/>
</g>
<!-- Node3 -->
<g id="node4" class="node"><title>Node3</title>
<g id="a_node4"><a xlink:href="../../d4/d2b/_vehicles_8hpp.html" target="_top" xlink:title=" ">
<polygon fill="white" stroke="black" points="72.5,-112.5 72.5,-131.5 145.5,-131.5 145.5,-112.5 72.5,-112.5"/>
<text text-anchor="middle" x="109" y="-119.5" font-family="Helvetica,sans-Serif" font-size="10.00">Vehicles.hpp</text>
</a>
</g>
</g>
<!-- Node0&#45;&gt;Node3 -->
<g id="edge3" class="edge"><title>Node0&#45;&gt;Node3</title>
<path fill="none" stroke="midnightblue" d="M179.504,-168.324C166.4,-159.9 146.288,-146.971 130.893,-137.074"/>
<polygon fill="midnightblue" stroke="midnightblue" points="132.767,-134.118 122.463,-131.655 128.982,-140.006 132.767,-134.118"/>
</g>
<!-- Node7 -->
<g id="node8" class="node"><title>Node7</title>
<g id="a_node8"><a xlink:href="../../de/d24/_exceptions_8hpp.html" target="_top" xlink:title=" ">
<polygon fill="white" stroke="black" points="241,-112.5 241,-131.5 325,-131.5 325,-112.5 241,-112.5"/>
<text text-anchor="middle" x="283" y="-119.5" font-family="Helvetica,sans-Serif" font-size="10.00">Exceptions.hpp</text>
</a>
</g>
</g>
<!-- Node0&#45;&gt;Node7 -->
<g id="edge9" class="edge"><title>Node0&#45;&gt;Node7</title>
<path fill="none" stroke="midnightblue" d="M207.46,-168.324C221.5,-159.9 243.048,-146.971 259.543,-137.074"/>
<polygon fill="midnightblue" stroke="midnightblue" points="261.802,-139.801 268.576,-131.655 258.2,-133.798 261.802,-139.801"/>
</g>
<!-- Node3&#45;&gt;Node2 -->
<g id="edge8" class="edge"><title>Node3&#45;&gt;Node2</title>
<path fill="none" stroke="midnightblue" d="M112.61,-112.368C120.1,-94.4563 137.468,-52.9233 147.494,-28.9482"/>
<polygon fill="midnightblue" stroke="midnightblue" points="150.778,-30.1676 151.407,-19.5914 144.32,-27.4669 150.778,-30.1676"/>
</g>
<!-- Node4 -->
<g id="node5" class="node"><title>Node4</title>
<g id="a_node5"><a xlink:href="../../dc/de3/_alocation_8hpp.html" target="_top" xlink:title=" ">
<polygon fill="white" stroke="black" points="32,-56.5 32,-75.5 108,-75.5 108,-56.5 32,-56.5"/>
<text text-anchor="middle" x="70" y="-63.5" font-family="Helvetica,sans-Serif" font-size="10.00">Alocation.hpp</text>
</a>
</g>
</g>
<!-- Node3&#45;&gt;Node4 -->
<g id="edge4" class="edge"><title>Node3&#45;&gt;Node4</title>
<path fill="none" stroke="midnightblue" d="M102.56,-112.083C97.0511,-104.455 88.9688,-93.2645 82.235,-83.9408"/>
<polygon fill="midnightblue" stroke="midnightblue" points="85.0126,-81.8087 76.3202,-75.7511 79.3378,-85.9071 85.0126,-81.8087"/>
</g>
<!-- Node4&#45;&gt;Node2 -->
<g id="edge6" class="edge"><title>Node4&#45;&gt;Node2</title>
<path fill="none" stroke="midnightblue" d="M83.6567,-56.324C96.9163,-47.9002 117.268,-34.9709 132.846,-25.0741"/>
<polygon fill="midnightblue" stroke="midnightblue" points="134.813,-27.9711 141.377,-19.6545 131.06,-22.0626 134.813,-27.9711"/>
</g>
<!-- Node5 -->
<g id="node6" class="node"><title>Node5</title>
<g id="a_node6"><a xlink:title=" ">
<polygon fill="white" stroke="#bfbfbf" points="0,-0.5 0,-19.5 44,-19.5 44,-0.5 0,-0.5"/>
<text text-anchor="middle" x="22" y="-7.5" font-family="Helvetica,sans-Serif" font-size="10.00">vector</text>
</a>
</g>
</g>
<!-- Node4&#45;&gt;Node5 -->
<g id="edge5" class="edge"><title>Node4&#45;&gt;Node5</title>
<path fill="none" stroke="midnightblue" d="M62.0738,-56.083C55.1539,-48.2982 44.9346,-36.8015 36.548,-27.3665"/>
<polygon fill="midnightblue" stroke="midnightblue" points="39.0383,-24.8999 29.7787,-19.7511 33.8065,-29.5505 39.0383,-24.8999"/>
</g>
<!-- Node6 -->
<g id="node7" class="node"><title>Node6</title>
<g id="a_node7"><a xlink:title=" ">
<polygon fill="white" stroke="#bfbfbf" points="62.5,-0.5 62.5,-19.5 103.5,-19.5 103.5,-0.5 62.5,-0.5"/>
<text text-anchor="middle" x="83" y="-7.5" font-family="Helvetica,sans-Serif" font-size="10.00">ctime</text>
</a>
</g>
</g>
<!-- Node4&#45;&gt;Node6 -->
<g id="edge7" class="edge"><title>Node4&#45;&gt;Node6</title>
<path fill="none" stroke="midnightblue" d="M72.1467,-56.083C73.8694,-48.9272 76.3471,-38.6353 78.5003,-29.6911"/>
<polygon fill="midnightblue" stroke="midnightblue" points="81.9554,-30.2925 80.8933,-19.7511 75.1499,-28.6541 81.9554,-30.2925"/>
</g>
<!-- Node7&#45;&gt;Node1 -->
<g id="edge10" class="edge"><title>Node7&#45;&gt;Node1</title>
<path fill="none" stroke="midnightblue" d="M274.083,-112.083C266.22,-104.22 254.569,-92.5688 245.081,-83.0813"/>
<polygon fill="midnightblue" stroke="midnightblue" points="247.297,-80.3473 237.751,-75.7511 242.347,-85.2971 247.297,-80.3473"/>
</g>
<!-- Node7&#45;&gt;Node2 -->
<g id="edge12" class="edge"><title>Node7&#45;&gt;Node2</title>
<path fill="none" stroke="midnightblue" d="M282.925,-112.29C282.347,-98.6398 279.309,-72.1079 265,-56 244.497,-32.9187 210.384,-21.4458 185.574,-15.8965"/>
<polygon fill="midnightblue" stroke="midnightblue" points="186.075,-12.4267 175.578,-13.8643 184.68,-19.2864 186.075,-12.4267"/>
</g>
<!-- Node8 -->
<g id="node9" class="node"><title>Node8</title>
<g id="a_node9"><a xlink:title=" ">
<polygon fill="white" stroke="#bfbfbf" points="312.5,-56.5 312.5,-75.5 371.5,-75.5 371.5,-56.5 312.5,-56.5"/>
<text text-anchor="middle" x="342" y="-63.5" font-family="Helvetica,sans-Serif" font-size="10.00">exception</text>
</a>
</g>
</g>
<!-- Node7&#45;&gt;Node8 -->
<g id="edge11" class="edge"><title>Node7&#45;&gt;Node8</title>
<path fill="none" stroke="midnightblue" d="M292.479,-112.324C301.201,-104.341 314.343,-92.3128 324.898,-82.6529"/>
<polygon fill="midnightblue" stroke="midnightblue" points="327.334,-85.1674 332.348,-75.8339 322.608,-80.0036 327.334,-85.1674"/>
</g>
</g>
</svg>
