<?xml version="1.0" encoding="UTF-8" standalone="no"?>
<!DOCTYPE svg PUBLIC "-//W3C//DTD SVG 1.1//EN"
 "http://www.w3.org/Graphics/SVG/1.1/DTD/svg11.dtd">
<!-- Generated by graphviz version 2.38.0 (20140413.2041)
 -->
<!-- Title: src/Vehicles.cpp Pages: 1 -->
<svg width="523pt" height="252pt"
 viewBox="0.00 0.00 523.12 252.00" xmlns="http://www.w3.org/2000/svg" xmlns:xlink="http://www.w3.org/1999/xlink">
<g id="graph0" class="graph" transform="scale(1 1) rotate(0) translate(4 248)">
<title>src/Vehicles.cpp</title>
<polygon fill="white" stroke="none" points="-4,4 -4,-248 519.116,-248 519.116,4 -4,4"/>
<!-- Node0 -->
<g id="node1" class="node"><title>Node0</title>
<g id="a_node1"><a xlink:title=" ">
<polygon fill="#bfbfbf" stroke="black" points="216,-224.5 216,-243.5 305,-243.5 305,-224.5 216,-224.5"/>
<text text-anchor="middle" x="260.5" y="-231.5" font-family="Helvetica,sans-Serif" font-size="10.00">src/Vehicles.cpp</text>
</a>
</g>
</g>
<!-- Node1 -->
<g id="node2" class="node"><title>Node1</title>
<g id="a_node2"><a xlink:title=" ">
<polygon fill="white" stroke="#bfbfbf" points="268.5,-0.5 268.5,-19.5 322.5,-19.5 322.5,-0.5 268.5,-0.5"/>
<text text-anchor="middle" x="295.5" y="-7.5" font-family="Helvetica,sans-Serif" font-size="10.00">iostream</text>
</a>
</g>
</g>
<!-- Node0&#45;&gt;Node1 -->
<g id="edge1" class="edge"><title>Node0&#45;&gt;Node1</title>
<path fill="none" stroke="midnightblue" d="M305.459,-229.335C363.439,-221.907 462.086,-199.491 506.5,-132 551.857,-63.0758 405.06,-28.876 333.008,-16.5455"/>
<polygon fill="midnightblue" stroke="midnightblue" points="333.389,-13.0609 322.952,-14.8834 332.247,-19.9673 333.389,-13.0609"/>
</g>
<!-- Node2 -->
<g id="node3" class="node"><title>Node2</title>
<g id="a_node3"><a xlink:title=" ">
<polygon fill="white" stroke="#bfbfbf" points="160,-56.5 160,-75.5 201,-75.5 201,-56.5 160,-56.5"/>
<text text-anchor="middle" x="180.5" y="-63.5" font-family="Helvetica,sans-Serif" font-size="10.00">string</text>
</a>
</g>
</g>
<!-- Node0&#45;&gt;Node2 -->
<g id="edge2" class="edge"><title>Node0&#45;&gt;Node2</title>
<path fill="none" stroke="midnightblue" d="M256.199,-224.075C243.497,-197.719 205.983,-119.878 189.011,-84.6608"/>
<polygon fill="midnightblue" stroke="midnightblue" points="192.124,-83.057 184.629,-75.5681 185.818,-86.0961 192.124,-83.057"/>
</g>
<!-- Node3 -->
<g id="node4" class="node"><title>Node3</title>
<g id="a_node4"><a xlink:href="../../d4/d2b/_vehicles_8hpp.html" target="_top" xlink:title=" ">
<polygon fill="white" stroke="black" points="90,-168.5 90,-187.5 163,-187.5 163,-168.5 90,-168.5"/>
<text text-anchor="middle" x="126.5" y="-175.5" font-family="Helvetica,sans-Serif" font-size="10.00">Vehicles.hpp</text>
</a>
</g>
</g>
<!-- Node0&#45;&gt;Node3 -->
<g id="edge3" class="edge"><title>Node0&#45;&gt;Node3</title>
<path fill="none" stroke="midnightblue" d="M239.267,-224.444C217.116,-215.517 182.181,-201.439 157.064,-191.317"/>
<polygon fill="midnightblue" stroke="midnightblue" points="158.217,-188.008 147.633,-187.516 155.6,-194.501 158.217,-188.008"/>
</g>
<!-- Node7 -->
<g id="node8" class="node"><title>Node7</title>
<g id="a_node8"><a xlink:href="../../de/d24/_exceptions_8hpp.html" target="_top" xlink:title=" ">
<polygon fill="white" stroke="black" points="283.5,-168.5 283.5,-187.5 367.5,-187.5 367.5,-168.5 283.5,-168.5"/>
<text text-anchor="middle" x="325.5" y="-175.5" font-family="Helvetica,sans-Serif" font-size="10.00">Exceptions.hpp</text>
</a>
</g>
</g>
<!-- Node0&#45;&gt;Node7 -->
<g id="edge11" class="edge"><title>Node0&#45;&gt;Node7</title>
<path fill="none" stroke="midnightblue" d="M270.943,-224.324C280.646,-216.263 295.315,-204.077 307,-194.369"/>
<polygon fill="midnightblue" stroke="midnightblue" points="309.411,-196.916 314.867,-187.834 304.938,-191.532 309.411,-196.916"/>
</g>
<!-- Node3&#45;&gt;Node2 -->
<g id="edge9" class="edge"><title>Node3&#45;&gt;Node2</title>
<path fill="none" stroke="midnightblue" d="M130.737,-168.368C139.57,-150.376 160.103,-108.55 171.847,-84.6267"/>
<polygon fill="midnightblue" stroke="midnightblue" points="175.017,-86.1105 176.282,-75.5914 168.734,-83.0257 175.017,-86.1105"/>
</g>
<!-- Node4 -->
<g id="node5" class="node"><title>Node4</title>
<g id="a_node5"><a xlink:href="../../dc/de3/_alocation_8hpp.html" target="_top" xlink:title=" ">
<polygon fill="white" stroke="black" points="16.5,-112.5 16.5,-131.5 92.5,-131.5 92.5,-112.5 16.5,-112.5"/>
<text text-anchor="middle" x="54.5" y="-119.5" font-family="Helvetica,sans-Serif" font-size="10.00">Alocation.hpp</text>
</a>
</g>
</g>
<!-- Node3&#45;&gt;Node4 -->
<g id="edge4" class="edge"><title>Node3&#45;&gt;Node4</title>
<path fill="none" stroke="midnightblue" d="M114.932,-168.324C104.08,-160.185 87.6193,-147.839 74.6166,-138.087"/>
<polygon fill="midnightblue" stroke="midnightblue" points="76.3786,-135.034 66.2785,-131.834 72.1785,-140.634 76.3786,-135.034"/>
</g>
<!-- Node5 -->
<g id="node6" class="node"><title>Node5</title>
<g id="a_node6"><a xlink:title=" ">
<polygon fill="white" stroke="#bfbfbf" points="97.5,-56.5 97.5,-75.5 141.5,-75.5 141.5,-56.5 97.5,-56.5"/>
<text text-anchor="middle" x="119.5" y="-63.5" font-family="Helvetica,sans-Serif" font-size="10.00">vector</text>
</a>
</g>
</g>
<!-- Node3&#45;&gt;Node5 -->
<g id="edge10" class="edge"><title>Node3&#45;&gt;Node5</title>
<path fill="none" stroke="midnightblue" d="M125.951,-168.368C124.821,-150.617 122.215,-109.666 120.683,-85.5974"/>
<polygon fill="midnightblue" stroke="midnightblue" points="124.175,-85.3489 120.047,-75.5914 117.189,-85.7935 124.175,-85.3489"/>
</g>
<!-- Node4&#45;&gt;Node1 -->
<g id="edge5" class="edge"><title>Node4&#45;&gt;Node1</title>
<path fill="none" stroke="midnightblue" d="M56.511,-112.3C60.2505,-98.1678 69.6636,-70.3629 88.5,-56 114.766,-35.9722 206.084,-21.8951 258.234,-15.2782"/>
<polygon fill="midnightblue" stroke="midnightblue" points="258.926,-18.7193 268.42,-14.0173 258.066,-11.7723 258.926,-18.7193"/>
</g>
<!-- Node4&#45;&gt;Node2 -->
<g id="edge7" class="edge"><title>Node4&#45;&gt;Node2</title>
<path fill="none" stroke="midnightblue" d="M74.4651,-112.444C95.1091,-103.596 127.563,-89.6875 151.132,-79.5865"/>
<polygon fill="midnightblue" stroke="midnightblue" points="152.816,-82.6727 160.628,-75.5164 150.058,-76.2387 152.816,-82.6727"/>
</g>
<!-- Node4&#45;&gt;Node5 -->
<g id="edge6" class="edge"><title>Node4&#45;&gt;Node5</title>
<path fill="none" stroke="midnightblue" d="M64.9434,-112.324C74.6462,-104.263 89.3153,-92.0765 101,-82.3695"/>
<polygon fill="midnightblue" stroke="midnightblue" points="103.411,-84.9163 108.867,-75.8339 98.9381,-79.532 103.411,-84.9163"/>
</g>
<!-- Node6 -->
<g id="node7" class="node"><title>Node6</title>
<g id="a_node7"><a xlink:title=" ">
<polygon fill="white" stroke="#bfbfbf" points="0,-56.5 0,-75.5 41,-75.5 41,-56.5 0,-56.5"/>
<text text-anchor="middle" x="20.5" y="-63.5" font-family="Helvetica,sans-Serif" font-size="10.00">ctime</text>
</a>
</g>
</g>
<!-- Node4&#45;&gt;Node6 -->
<g id="edge8" class="edge"><title>Node4&#45;&gt;Node6</title>
<path fill="none" stroke="midnightblue" d="M48.8856,-112.083C44.1326,-104.534 37.1819,-93.4948 31.3484,-84.2298"/>
<polygon fill="midnightblue" stroke="midnightblue" points="34.2999,-82.3486 26.0099,-75.7511 28.3763,-86.0783 34.2999,-82.3486"/>
</g>
<!-- Node7&#45;&gt;Node1 -->
<g id="edge18" class="edge"><title>Node7&#45;&gt;Node1</title>
<path fill="none" stroke="midnightblue" d="M329.696,-168.38C339.015,-147.962 359.328,-95.4084 342.5,-56 337.353,-43.9469 327.219,-33.5764 317.674,-25.8389"/>
<polygon fill="midnightblue" stroke="midnightblue" points="319.672,-22.9619 309.578,-19.7409 315.46,-28.5532 319.672,-22.9619"/>
</g>
<!-- Node7&#45;&gt;Node2 -->
<g id="edge20" class="edge"><title>Node7&#45;&gt;Node2</title>
<path fill="none" stroke="midnightblue" d="M310.119,-168.405C295.196,-159.834 272.138,-145.966 253.5,-132 232.839,-116.519 210.953,-96.4811 196.595,-82.7706"/>
<polygon fill="midnightblue" stroke="midnightblue" points="198.702,-79.94 189.077,-75.5114 193.839,-84.9756 198.702,-79.94"/>
</g>
<!-- Node8 -->
<g id="node9" class="node"><title>Node8</title>
<g id="a_node9"><a xlink:href="../../db/dad/_person_8hpp.html" target="_top" xlink:title=" ">
<polygon fill="white" stroke="black" points="262.5,-112.5 262.5,-131.5 328.5,-131.5 328.5,-112.5 262.5,-112.5"/>
<text text-anchor="middle" x="295.5" y="-119.5" font-family="Helvetica,sans-Serif" font-size="10.00">Person.hpp</text>
</a>
</g>
</g>
<!-- Node7&#45;&gt;Node8 -->
<g id="edge12" class="edge"><title>Node7&#45;&gt;Node8</title>
<path fill="none" stroke="midnightblue" d="M320.546,-168.083C316.396,-160.613 310.347,-149.724 305.233,-140.52"/>
<polygon fill="midnightblue" stroke="midnightblue" points="308.278,-138.793 300.362,-131.751 302.159,-142.192 308.278,-138.793"/>
</g>
<!-- Node10 -->
<g id="node11" class="node"><title>Node10</title>
<g id="a_node11"><a xlink:title=" ">
<polygon fill="white" stroke="#bfbfbf" points="385,-112.5 385,-131.5 444,-131.5 444,-112.5 385,-112.5"/>
<text text-anchor="middle" x="414.5" y="-119.5" font-family="Helvetica,sans-Serif" font-size="10.00">exception</text>
</a>
</g>
</g>
<!-- Node7&#45;&gt;Node10 -->
<g id="edge19" class="edge"><title>Node7&#45;&gt;Node10</title>
<path fill="none" stroke="midnightblue" d="M339.799,-168.324C353.683,-159.9 374.992,-146.971 391.304,-137.074"/>
<polygon fill="midnightblue" stroke="midnightblue" points="393.502,-139.834 400.236,-131.655 389.871,-133.85 393.502,-139.834"/>
</g>
<!-- Node11 -->
<g id="node12" class="node"><title>Node11</title>
<g id="a_node12"><a xlink:title=" ">
<polygon fill="white" stroke="#bfbfbf" points="462,-112.5 462,-131.5 497,-131.5 497,-112.5 462,-112.5"/>
<text text-anchor="middle" x="479.5" y="-119.5" font-family="Helvetica,sans-Serif" font-size="10.00">map</text>
</a>
</g>
</g>
<!-- Node7&#45;&gt;Node11 -->
<g id="edge21" class="edge"><title>Node7&#45;&gt;Node11</title>
<path fill="none" stroke="midnightblue" d="M349.902,-168.444C377.821,-158.654 423.412,-142.667 452.41,-132.499"/>
<polygon fill="midnightblue" stroke="midnightblue" points="453.64,-135.777 461.919,-129.165 451.324,-129.171 453.64,-135.777"/>
</g>
<!-- Node8&#45;&gt;Node1 -->
<g id="edge15" class="edge"><title>Node8&#45;&gt;Node1</title>
<path fill="none" stroke="midnightblue" d="M281.487,-112.327C264.407,-100.557 238.93,-78.4123 248.5,-56 253.647,-43.9469 263.781,-33.5764 273.326,-25.8389"/>
<polygon fill="midnightblue" stroke="midnightblue" points="275.54,-28.5532 281.422,-19.7409 271.328,-22.9619 275.54,-28.5532"/>
</g>
<!-- Node8&#45;&gt;Node2 -->
<g id="edge13" class="edge"><title>Node8&#45;&gt;Node2</title>
<path fill="none" stroke="midnightblue" d="M277.278,-112.444C258.604,-103.675 229.344,-89.9355 207.883,-79.8579"/>
<polygon fill="midnightblue" stroke="midnightblue" points="209.176,-76.5988 198.637,-75.5164 206.201,-82.935 209.176,-76.5988"/>
</g>
<!-- Node8&#45;&gt;Node5 -->
<g id="edge14" class="edge"><title>Node8&#45;&gt;Node5</title>
<path fill="none" stroke="midnightblue" d="M267.612,-112.444C235.989,-102.741 184.529,-86.952 151.352,-76.7727"/>
<polygon fill="midnightblue" stroke="midnightblue" points="152.271,-73.3939 141.685,-73.8067 150.218,-80.086 152.271,-73.3939"/>
</g>
<!-- Node9 -->
<g id="node10" class="node"><title>Node9</title>
<g id="a_node10"><a xlink:href="../../d2/d0f/members_8hpp.html" target="_top" xlink:title=" ">
<polygon fill="white" stroke="black" points="257.5,-56.5 257.5,-75.5 333.5,-75.5 333.5,-56.5 257.5,-56.5"/>
<text text-anchor="middle" x="295.5" y="-63.5" font-family="Helvetica,sans-Serif" font-size="10.00">members.hpp</text>
</a>
</g>
</g>
<!-- Node8&#45;&gt;Node9 -->
<g id="edge16" class="edge"><title>Node8&#45;&gt;Node9</title>
<path fill="none" stroke="midnightblue" d="M295.5,-112.083C295.5,-105.006 295.5,-94.8611 295.5,-85.9865"/>
<polygon fill="midnightblue" stroke="midnightblue" points="299,-85.751 295.5,-75.7511 292,-85.7511 299,-85.751"/>
</g>
<!-- Node9&#45;&gt;Node1 -->
<g id="edge17" class="edge"><title>Node9&#45;&gt;Node1</title>
<path fill="none" stroke="midnightblue" d="M295.5,-56.083C295.5,-49.0059 295.5,-38.8611 295.5,-29.9865"/>
<polygon fill="midnightblue" stroke="midnightblue" points="299,-29.751 295.5,-19.7511 292,-29.7511 299,-29.751"/>
</g>
</g>
</svg>
