<?xml version="1.0" encoding="UTF-8" standalone="no"?>
<!DOCTYPE svg PUBLIC "-//W3C//DTD SVG 1.1//EN"
 "http://www.w3.org/Graphics/SVG/1.1/DTD/svg11.dtd">
<!-- Generated by graphviz version 2.38.0 (20140413.2041)
 -->
<!-- Title: src/Agency.cpp Pages: 1 -->
<svg width="166pt" height="196pt"
 viewBox="0.00 0.00 165.50 196.00" xmlns="http://www.w3.org/2000/svg" xmlns:xlink="http://www.w3.org/1999/xlink">
<g id="graph0" class="graph" transform="scale(1 1) rotate(0) translate(4 192)">
<title>src/Agency.cpp</title>
<polygon fill="white" stroke="none" points="-4,4 -4,-192 161.5,-192 161.5,4 -4,4"/>
<!-- Node0 -->
<g id="node1" class="node"><title>Node0</title>
<g id="a_node1"><a xlink:title=" ">
<polygon fill="#bfbfbf" stroke="black" points="0,-168.5 0,-187.5 85,-187.5 85,-168.5 0,-168.5"/>
<text text-anchor="middle" x="42.5" y="-175.5" font-family="Helvetica,sans-Serif" font-size="10.00">src/Agency.cpp</text>
</a>
</g>
</g>
<!-- Node1 -->
<g id="node2" class="node"><title>Node1</title>
<g id="a_node2"><a xlink:href="../../d6/d02/_agency_8hpp.html" target="_top" xlink:title=" ">
<polygon fill="white" stroke="black" points="8.5,-112.5 8.5,-131.5 76.5,-131.5 76.5,-112.5 8.5,-112.5"/>
<text text-anchor="middle" x="42.5" y="-119.5" font-family="Helvetica,sans-Serif" font-size="10.00">Agency.hpp</text>
</a>
</g>
</g>
<!-- Node0&#45;&gt;Node1 -->
<g id="edge1" class="edge"><title>Node0&#45;&gt;Node1</title>
<path fill="none" stroke="midnightblue" d="M42.5,-168.083C42.5,-161.006 42.5,-150.861 42.5,-141.986"/>
<polygon fill="midnightblue" stroke="midnightblue" points="46.0001,-141.751 42.5,-131.751 39.0001,-141.751 46.0001,-141.751"/>
</g>
<!-- Node2 -->
<g id="node3" class="node"><title>Node2</title>
<g id="a_node3"><a xlink:title=" ">
<polygon fill="white" stroke="#bfbfbf" points="29.5,-0.5 29.5,-19.5 83.5,-19.5 83.5,-0.5 29.5,-0.5"/>
<text text-anchor="middle" x="56.5" y="-7.5" font-family="Helvetica,sans-Serif" font-size="10.00">iostream</text>
</a>
</g>
</g>
<!-- Node1&#45;&gt;Node2 -->
<g id="edge2" class="edge"><title>Node1&#45;&gt;Node2</title>
<path fill="none" stroke="midnightblue" d="M33.5162,-112.28C21.9148,-99.9087 4.14884,-76.4862 12.5,-56 17.3,-44.2251 26.8286,-33.8564 35.7948,-26.0486"/>
<polygon fill="midnightblue" stroke="midnightblue" points="38.1504,-28.6448 43.7191,-19.6314 33.745,-23.2048 38.1504,-28.6448"/>
</g>
<!-- Node3 -->
<g id="node4" class="node"><title>Node3</title>
<g id="a_node4"><a xlink:title=" ">
<polygon fill="white" stroke="#bfbfbf" points="22,-56.5 22,-75.5 63,-75.5 63,-56.5 22,-56.5"/>
<text text-anchor="middle" x="42.5" y="-63.5" font-family="Helvetica,sans-Serif" font-size="10.00">string</text>
</a>
</g>
</g>
<!-- Node1&#45;&gt;Node3 -->
<g id="edge3" class="edge"><title>Node1&#45;&gt;Node3</title>
<path fill="none" stroke="midnightblue" d="M42.5,-112.083C42.5,-105.006 42.5,-94.8611 42.5,-85.9865"/>
<polygon fill="midnightblue" stroke="midnightblue" points="46.0001,-85.751 42.5,-75.7511 39.0001,-85.7511 46.0001,-85.751"/>
</g>
<!-- Node4 -->
<g id="node5" class="node"><title>Node4</title>
<g id="a_node5"><a xlink:href="../../d2/d0f/members_8hpp.html" target="_top" xlink:title=" ">
<polygon fill="white" stroke="black" points="81.5,-56.5 81.5,-75.5 157.5,-75.5 157.5,-56.5 81.5,-56.5"/>
<text text-anchor="middle" x="119.5" y="-63.5" font-family="Helvetica,sans-Serif" font-size="10.00">members.hpp</text>
</a>
</g>
</g>
<!-- Node1&#45;&gt;Node4 -->
<g id="edge4" class="edge"><title>Node1&#45;&gt;Node4</title>
<path fill="none" stroke="midnightblue" d="M54.8714,-112.324C66.6585,-104.058 84.6323,-91.4527 98.6355,-81.6322"/>
<polygon fill="midnightblue" stroke="midnightblue" points="100.982,-84.2619 107.159,-75.6545 96.9624,-78.5307 100.982,-84.2619"/>
</g>
<!-- Node4&#45;&gt;Node2 -->
<g id="edge5" class="edge"><title>Node4&#45;&gt;Node2</title>
<path fill="none" stroke="midnightblue" d="M109.378,-56.324C99.9736,-48.2631 85.7559,-36.0765 74.431,-26.3695"/>
<polygon fill="midnightblue" stroke="midnightblue" points="76.6766,-23.6844 66.8062,-19.8339 72.121,-28.9993 76.6766,-23.6844"/>
</g>
</g>
</svg>
